SplineFontDB: 3.0
FontName: Cantarell-Bold
FullName: Cantarell Bold
FamilyName: Cantarell
Weight: Bold
Copyright: Copyright (c) 2009 Dave Crossland <dave@lab6.com>
UComments: "Cantarell is designed by Dave Crossland+AA0ACgAA-dave@lab6.com+AA0ACgAA-http://abattis.org/cantarell/" 
Version: 001.001
ItalicAngle: 0
UnderlinePosition: -233
UnderlineWidth: 116
Ascent: 1514
Descent: 534
LayerCount: 2
Layer: 0 0 "Back"  1
Layer: 1 0 "Fore"  0
XUID: [1021 472 1916768597 5236576]
FSType: 0
OS2Version: 0
OS2_WeightWidthSlopeOnly: 0
OS2_UseTypoMetrics: 1
CreationTime: 1236980653
ModificationTime: 1247126926
PfmFamily: 33
TTFWeight: 700
TTFWidth: 5
LineGap: 211
VLineGap: 0
OS2TypoAscent: 0
OS2TypoAOffset: 1
OS2TypoDescent: 0
OS2TypoDOffset: 1
OS2TypoLinegap: 211
OS2WinAscent: 0
OS2WinAOffset: 1
OS2WinDescent: 0
OS2WinDOffset: 1
HheadAscent: 0
HheadAOffset: 1
HheadDescent: 0
HheadDOffset: 1
OS2FamilyClass: 2050
OS2Vendor: 'ABAT'
DEI: 91125

StartChar: a
Encoding: 97 97 0
Width: 1233
VWidth: 2097
Flags: W
HStem: -20 211<423.604 763.503> 0 21G<860.385 1053> 396 186<432.57 806> 734 209<228.136 383.169> 789 218<277.45 753.683>
VStem: 123 260<234.738 350.579> 806 247<229.777 396 582 734.96>
LayerCount: 2
Back
SplineSet
507.414 1006.52 m 4
 580.836 1006.52 847.439 997.028 883.997 757.268 c 4
 888.384 728.491 889.043 699.316 889.043 670.182 c 4
 889.043 665.453 889.026 660.725 889.004 656 c 6
 886.004 0 l 5
 773.004 0 l 5x7c
 734.668 89.973 l 5
 668.899 29.9457 570.698 -19.9671 456.689 -19.9671 c 4
 266.486 -19.9671 122.836 114.776 122.836 261.593 c 4
 122.836 354.645 181.039 485.831 385.965 532.948 c 4
 451.386 547.99 537.745 557.586 724.004 560.599 c 5
 724.004 613 l 6
 724.004 622.859 724.109 632.762 724.109 642.666 c 4
 724.109 696.887 727.85 871.27 481.17 871.27 c 4xbc
 386.956 871.27 270.723 841.293 217.004 826 c 5
 186.004 946 l 5
 306.619 991.348 418.949 1006.35 507.414 1006.52 c 4
724.004 437.479 m 5
 527.693 434.531 398.584 439.171 325.004 362 c 4
 301.542 337.393 286.442 304.041 286.442 270.218 c 4
 286.442 186.91 382.104 108.915 501.376 108.915 c 4
 523.378 108.915 632.19 110.577 724.004 209.74 c 5
 724.004 437.479 l 5
EndSplineSet
Fore
SplineSet
597 1007 m 0x2e
 968 1007 1053 838 1053 648 c 2
 1053 0 l 1
 869 0 l 1x6e
 841 65 l 1
 763 15 657 -20 538 -20 c 0
 282 -20 123 122 123 273 c 0
 123 526 448 578 806 582 c 1
 806 616 l 2
 806 698 790 789 566 789 c 0xae
 506 789 412 779 269 745 c 1
 229 734 l 1
 178 931 l 1
 213 943 l 2x36
 340 987 477 1007 597 1007 c 0x2e
806 255 m 1
 806 396 l 1
 782 396 l 2
 522 396 383 369 383 291 c 0
 383 246 468 191 590 191 c 0xa6
 612 191 714 192 806 255 c 1
EndSplineSet
Validated: 1
EndChar

StartChar: d
Encoding: 100 100 1
Width: 1352
VWidth: 2097
Flags: W
HStem: -20 217<519.101 907.333> 0 21G<971.304 1162> 797 211<510.867 913.153> 1491 20G<916 1162>
VStem: 130 242<334.025 668.01> 916 246<218.516 778.016 974 1511>
LayerCount: 2
Fore
SplineSet
130 478 m 4xbc
 130 824 356 1008 683 1008 c 4
 772 1008 848 994 916 974 c 5
 916 1511 l 5
 1162 1511 l 5
 1162 0 l 5
 980 0 l 5x7c
 960 46 l 5
 857 -1 747 -20 650 -20 c 4
 400 -20 130 104 130 478 c 4xbc
713 197 m 4xbc
 791 197 862 213 916 232 c 5
 916 767 l 5
 863 782 789 797 711 797 c 4
 578 797 372 751 372 502 c 4
 372 250 576 197 713 197 c 4xbc
EndSplineSet
Validated: 1
EndChar

StartChar: e
Encoding: 101 101 2
Width: 1266
VWidth: 2097
Flags: W
HStem: -20 213<539.42 1015.48> 37 190<869.639 1041.64> 376 206<395 894> 783 224<498.929 823.477>
LayerCount: 2
Back
SplineSet
605.469 1007.06 m 4
 687.75 1007.06 910.955 986.74 960.409 701.903 c 4
 971.158 639.992 972 576.838 972 514 c 6
 972 417 l 5
 293 417 l 5
 303.311 275.531 420.448 110.991 664.233 110.991 c 4
 748.749 110.991 832.451 129.96 889 147 c 5
 918 35 l 5
 832.573 5.59987 722.617 -19.9723 601.601 -20.0001 c 4
 224.279 -20.0001 129.949 238.84 129.949 462.373 c 4
 129.949 845.182 373.346 1007.06 605.469 1007.06 c 4
570.328 864.734 m 4
 385.844 864.734 299.385 700.288 297 541 c 5
 813 541 l 5
 813.179 547.489 813.271 553.984 813.271 560.479 c 4
 813.271 825.046 667.506 864.734 570.328 864.734 c 4
EndSplineSet
Fore
SplineSet
702 1007 m 0xb0
 1117 1007 1136 696 1136 488 c 2
 1136 376 l 1
 393 376 l 1
 418 288 541 193 770 193 c 0xb0
 861 193 945 211 1000 227 c 2
 1041 239 l 1
 1090 49 l 1
 1054 37 l 2x70
 966 7 845 -20 698 -20 c 0
 242 -20 130 235 130 464 c 0
 130 843 411 1007 702 1007 c 0xb0
661 783 m 0
 499 783 411 688 395 582 c 1
 894 582 l 1
 883 734 792 783 661 783 c 0
EndSplineSet
Validated: 1
EndChar

StartChar: h
Encoding: 104 104 3
Width: 1341
VWidth: 2097
Flags: W
HStem: 0 21G<190 436 917 1161> 778 228<506.311 851.825> 1491 20G<190 436>
VStem: 190 246<0 738.57 937 1511> 917 244<0 713.365>
LayerCount: 2
Back
SplineSet
618.128 860.24 m 4
 565.303 860.24 474.111 845.672 354 782.879 c 5
 354 0 l 5
 190 0 l 5
 190 1511 l 5
 354 1511 l 5
 354 913.032 l 5
 420.147 948.051 550.596 1006.4 681.659 1006.4 c 4
 796.461 1006.4 990.379 957.141 1009.05 678.574 c 4
 1010.96 649.997 1011.45 621.363 1011.45 592.717 c 4
 1011.45 570.812 1011.16 548.9 1011 527 c 6
 1007 0 l 5
 843 0 l 5
 842 595 l 6
 841.889 660.702 843.394 801.374 698.413 848.323 c 4
 672.518 856.709 645.387 860.24 618.128 860.24 c 4
EndSplineSet
Fore
SplineSet
696 778 m 4
 646 778 557 769 436 723 c 5
 436 0 l 5
 190 0 l 5
 190 1511 l 5
 436 1511 l 5
 436 937 l 5
 522 970 645 1006 771 1006 c 4
 1147 1006 1161 714 1161 562 c 6
 1161 0 l 5
 917 0 l 5
 917 577 l 6
 917 630 909 778 696 778 c 4
EndSplineSet
Validated: 1
EndChar

StartChar: i
Encoding: 105 105 4
Width: 606
VWidth: 2097
Flags: W
HStem: 0 21G<180 426> 968 20G<180 426> 1150 271<165 441>
VStem: 165 276<1150 1421> 180 246<0 988>
LayerCount: 2
Fore
SplineSet
165 1421 m 5xf0
 441 1421 l 5
 441 1150 l 5
 165 1150 l 5
 165 1421 l 5xf0
180 988 m 5xe8
 426 988 l 5
 426 0 l 5
 180 0 l 5
 180 988 l 5xe8
EndSplineSet
Validated: 1
EndChar

StartChar: n
Encoding: 110 110 5
Width: 1326
VWidth: 2097
Flags: W
HStem: 0 21G<180 426 900 1146> 778 230<503.741 842.636> 968 20G<180 362>
VStem: 180 246<0 738.957> 900 246<0 715.623>
LayerCount: 2
Back
SplineSet
180 988 m 1
 295 988 l 1
 331 904 l 1
 485 988 604 1008 679 1008 c 0
 961 1008 997 788 997 589 c 2
 997 0 l 25
 832 0 l 1
 832 595 l 2
 832 657 835 860 608 860 c 0
 515 860 417 821 344 783 c 1
 344 0 l 1
 180 0 l 1
 180 988 l 1
EndSplineSet
Fore
SplineSet
180 988 m 5xb8
 352 988 l 5xb8
 386 920 l 5
 550 990 681 1008 769 1008 c 4
 1100 1008 1146 784 1146 583 c 6
 1146 0 l 5
 900 0 l 5
 900 580 l 6
 900 650 891 778 686 778 c 4xd8
 588 778 486 746 426 723 c 5
 426 0 l 5
 180 0 l 5
 180 988 l 5xb8
EndSplineSet
Validated: 1
EndChar

StartChar: o
Encoding: 111 111 6
Width: 1375
VWidth: 2097
Flags: W
HStem: -20 222<525.323 868.866> 785 222<508.332 849.803>
VStem: 130 242<354.029 653.449> 1003 242<335.058 640.5>
LayerCount: 2
Fore
SplineSet
694 1007 m 4
 1016 1007 1245 831 1245 512 c 4
 1245 183 1021 -20 675 -20 c 4
 347 -20 130 168 130 484 c 4
 130 805 346 1007 694 1007 c 4
678 785 m 4
 530 785 372 695 372 509 c 4
 372 339 501 202 696 202 c 4
 866 202 1003 310 1003 483 c 4
 1003 686 832 785 678 785 c 4
EndSplineSet
Validated: 1
EndChar

StartChar: s
Encoding: 115 115 7
Width: 1180
VWidth: 2097
Flags: W
HStem: -20 211<307.371 775.504> 761 204<709.152 965.077> 797 210<463.723 973.023>
VStem: 165 261<653.253 755.418> 807 264<227.279 336.332>
DStem2: 204 273 130 73 0.930155 -0.367167<4.60182 332.179>
LayerCount: 2
Fore
SplineSet
807 295 m 1xb8
 797 419 165 375 165 699 c 0
 165 820 275 1007 702 1007 c 0xb8
 856 1007 918 986 987 965 c 2
 1028 953 l 1
 960 751 l 1
 922 761 l 2xd8
 857 779 785 797 669 797 c 0
 450 797 426 720 426 696 c 0
 426 583 1071 598 1071 293 c 0
 1071 163 979 -20 550 -20 c 0
 452 -20 316 -3 167 58 c 2
 130 73 l 1
 204 273 l 1
 242 258 l 1
 373 209 463 191 559 191 c 0
 731 191 807 225 807 295 c 1xb8
EndSplineSet
Validated: 1
EndChar

StartChar: bar
Encoding: 124 124 8
Width: 884
VWidth: 2097
Flags: W
VStem: 319 246<-349 1642>
LayerCount: 2
Fore
SplineSet
319 1642 m 1
 565 1642 l 1
 565 -349 l 1
 319 -349 l 1
 319 1642 l 1
EndSplineSet
Validated: 1
EndChar

StartChar: b
Encoding: 98 98 9
Width: 1347
VWidth: 2097
Flags: W
HStem: -20 211<438.903 833.199> 0 21G<190 380.75> 790 218<439.448 832.711> 1491 20G<190 436>
VStem: 190 246<209.141 769.819 964 1511> 976 242<320.643 653.11>
LayerCount: 2
Fore
SplineSet
190 1511 m 1x7c
 436 1511 l 1
 436 964 l 1
 512 990 601 1008 699 1008 c 0
 939 1008 1218 892 1218 505 c 0
 1218 175 1002 -20 665 -20 c 0xbc
 555 -20 455 4 386 32 c 1
 372 0 l 1
 190 0 l 1
 190 1511 l 1x7c
633 790 m 0
 573 790 507 781 436 757 c 1
 436 220 l 1
 488 205 560 191 637 191 c 0
 775 191 976 242 976 479 c 0
 976 742 770 790 633 790 c 0
EndSplineSet
Validated: 1
EndChar

StartChar: l
Encoding: 108 108 10
Width: 646
VWidth: 2097
Flags: W
HStem: 0 21G<200 446> 1491 20G<200 446>
VStem: 200 246<0 1511>
LayerCount: 2
Fore
SplineSet
200 1511 m 1
 446 1511 l 1
 446 0 l 1
 200 0 l 1
 200 1511 l 1
EndSplineSet
Validated: 1
EndChar

StartChar: w
Encoding: 119 119 11
Width: 1931
VWidth: 2097
Flags: W
HStem: 0 21G<432.308 672.789 1202.44 1442.57> 968 20G<60 329.467 858.623 1094.37 1633.29 1906>
VStem: 1642 264<724 988>
DStem2: 560 255 664 0 0.386312 0.922368<0 580.383> 1088 988 976 710 0.303364 -0.952875<230.922 771.35>
LayerCount: 2
Back
SplineSet
1450 988 m 1
 1625 988 l 1
 1893 159 l 1
 2147 988 l 1
 2308 988 l 1
 2572 160 l 1
 2840 988 l 1
 3015 988 l 1
 2654 0 l 1
 2489 0 l 1
 2226 801 l 1
 1966 0 l 1
 1801 0 l 1
 1450 988 l 1
EndSplineSet
Fore
SplineSet
60 988 m 1
 323 988 l 1
 560 255 l 1
 867 988 l 1
 1088 988 l 1
 1322 253 l 1
 1642 988 l 1
 1906 988 l 1
 1433 0 l 1
 1209 0 l 1
 976 710 l 1
 664 0 l 1
 440 0 l 1
 60 988 l 1
EndSplineSet
Validated: 1
EndChar

StartChar: exclam
Encoding: 33 33 12
Width: 650
VWidth: 2097
Flags: W
HStem: -41 282<184 466>
VStem: 184 282<-41 241> 199 252<417 1462>
LayerCount: 2
Fore
SplineSet
184 241 m 1xc0
 466 241 l 1
 466 -41 l 1
 184 -41 l 1
 184 241 l 1xc0
199 1462 m 1xa0
 451 1462 l 1
 451 417 l 1
 199 417 l 1
 199 1462 l 1xa0
EndSplineSet
Validated: 1
EndChar

StartChar: u
Encoding: 117 117 14
Width: 1341
VWidth: 2097
Flags: W
HStem: -20 229<488.364 833.26> 0 21G<969.343 1161> 968 20G<180 426 915 1161>
VStem: 180 246<271.5 988> 915 246<249.214 988>
LayerCount: 2
Fore
SplineSet
915 988 m 1xb8
 1161 988 l 1
 1161 0 l 1
 978 0 l 1x78
 949 67 l 1
 787 -3 652 -20 562 -20 c 0
 227 -20 180 203 180 404 c 2
 180 988 l 1
 426 988 l 1
 426 406 l 2
 426 341 435 209 647 209 c 0
 748 209 853 241 915 264 c 1
 915 988 l 1xb8
EndSplineSet
Validated: 1
EndChar

StartChar: p
Encoding: 112 112 15
Width: 1341
VWidth: 2097
Flags: W
HStem: -20 211<438.776 830.003> 789 218<440.268 828.371> 968 20G<180 371.787>
VStem: 180 256<-531 14 209.984 767.42> 970 242<320.608 652.14>
LayerCount: 2
Fore
SplineSet
699 1007 m 0xd8
 937 1007 1212 890 1212 504 c 0
 1212 175 996 -20 665 -20 c 0
 577 -20 502 -6 436 14 c 1
 436 -531 l 1
 180 -531 l 1
 180 988 l 1
 362 988 l 1xb8
 385 941 l 1
 494 988 604 1007 699 1007 c 0xd8
634 789 m 0xd8
 574 789 507 779 436 754 c 1
 436 221 l 1
 488 206 560 191 637 191 c 0
 772 191 970 243 970 479 c 0
 970 741 769 789 634 789 c 0xd8
EndSplineSet
Validated: 1
EndChar

StartChar: q
Encoding: 113 113 16
Width: 1330
VWidth: 2097
Flags: W
HStem: -20 218<514.153 900.598> 793 215<500.632 900.701> 968 20G<966.628 1150>
VStem: 128 242<337.387 664.701> 904 246<-531 26 219.58 766.39>
LayerCount: 2
Fore
SplineSet
668 1008 m 0xd8
 714 1008 803 1006 957 945 c 1
 975 988 l 1
 1150 988 l 5xb8
 1150 -531 l 5
 904 -531 l 1
 904 26 l 1
 830 0 741 -20 642 -20 c 0
 397 -20 128 102 128 488 c 0
 128 839 386 1008 668 1008 c 0xd8
680 793 m 0xd8
 494 793 370 685 370 503 c 0
 370 251 571 198 706 198 c 0
 766 198 833 208 904 233 c 1
 904 755 l 1
 800 785 727 793 680 793 c 0xd8
EndSplineSet
Validated: 1
EndChar

StartChar: m
Encoding: 109 109 17
Width: 1980
VWidth: 2097
Flags: W
HStem: 0 21G<180 426 864 1110 1550 1796> 774 233<489.428 807.962 1137.27 1492.45> 968 20G<180 371.615>
VStem: 180 246<0 735.527> 864 246<0 717.843> 1550 246<0 719.948>
LayerCount: 2
Fore
SplineSet
660 774 m 0xdc
 611 774 552 766 426 720 c 1
 426 0 l 1
 180 0 l 1
 180 988 l 1
 363 988 l 1xbc
 391 923 l 1
 469 960 601 1007 740 1007 c 0
 891 1007 968 950 1009 908 c 1
 1100 956 1242 1006 1406 1006 c 0
 1723 1006 1796 816 1796 586 c 2
 1796 0 l 1
 1550 0 l 1
 1550 583 l 2
 1550 703 1493 774 1341 774 c 0
 1263 774 1177 748 1101 720 c 1
 1109 674 1110 627 1110 579 c 0
 1110 386 1110 193 1110 0 c 1
 864 0 l 1
 864 587 l 2
 864 747 751 774 660 774 c 0xdc
EndSplineSet
Validated: 1
EndChar

StartChar: c
Encoding: 99 99 18
Width: 1165
VWidth: 2097
Flags: W
HStem: -20 217<523.905 976.765> 783 223<506.653 981.723>
VStem: 130 241<337.996 659.167>
LayerCount: 2
Fore
SplineSet
130 473 m 0
 130 875 413 1006 713 1006 c 0
 833 1006 933 984 1025 944 c 2
 1060 929 l 1
 995 734 l 1
 956 747 l 2
 890 770 821 783 738 783 c 0
 553 783 371 727 371 504 c 0
 371 282 526 197 760 197 c 0
 829 197 888 208 944 228 c 1
 983 241 l 1
 1050 52 l 1
 1013 38 l 2
 902 -5 792 -20 690 -20 c 0
 409 -20 130 89 130 473 c 0
EndSplineSet
Validated: 1
EndChar

StartChar: t
Encoding: 116 116 19
Width: 939
VWidth: 2097
Flags: W
HStem: -20 210<515.693 844.023> 777 211<70 223 469 832>
VStem: 223 246<236.489 777 988 1271>
LayerCount: 2
Back
SplineSet
838 18 m 6
 722 -12 649 -20 592 -20 c 4
 266 -20 203 142 203 317 c 6
 203 777 l 5
 70 777 l 5
 70 988 l 5
 203 988 l 5
 203 1271 l 5
 496 1271 l 5
 496 988 l 5
 832 988 l 5
 832 777 l 5
 496 777 l 5
 496 334 l 6
 496 274 505 190 652 190 c 4
 678 190 691 192 798 210 c 6
 837 217 l 5
 876 28 l 5
 838 18 l 6
EndSplineSet
Fore
SplineSet
838 18 m 6
 722 -12 649 -20 592 -20 c 4
 266 -20 223 142 223 317 c 6
 223 777 l 5
 70 777 l 5
 70 988 l 5
 223 988 l 5
 223 1271 l 5
 469 1271 l 5
 469 988 l 5
 832 988 l 5
 832 777 l 5
 469 777 l 5
 469 334 l 6
 469 274 505 190 652 190 c 4
 678 190 691 192 798 210 c 5
 837 217 l 5
 876 28 l 5
 838 18 l 6
EndSplineSet
Validated: 1
EndChar

StartChar: r
Encoding: 114 114 20
Width: 947
VWidth: 2097
Flags: W
HStem: 0 21G<180 426> 785 222<440.674 884.067> 968 20G<180 354.943>
VStem: 180 246<0 753.478>
LayerCount: 2
Fore
SplineSet
373 935 m 5xb0
 464 977 579 1007 706 1007 c 4
 776 1007 847 994 912 964 c 6
 947 948 l 5
 869 743 l 5
 830 758 l 6
 783 776 735 785 678 785 c 4xd0
 591 785 503 768 426 738 c 5
 426 0 l 5
 180 0 l 5
 180 988 l 5
 344 988 l 5
 373 935 l 5xb0
EndSplineSet
Validated: 1
EndChar

StartChar: v
Encoding: 118 118 21
Width: 1157
VWidth: 2097
Flags: W
HStem: 0 21G<463.761 744.875> 968 20G<65 356.198 860.94 1126>
VStem: 65 284<704 988> 868 258<730 988>
LayerCount: 2
Back
SplineSet
918 988 m 5
 571 0 l 5
 411 0 l 5
 65 988 l 5
 235 988 l 5
 491 163 l 5
 748 988 l 5
 918 988 l 5
EndSplineSet
Fore
SplineSet
1126 988 m 1
 737 0 l 1
 472 0 l 1
 65 988 l 1
 349 988 l 1
 611 260 l 1
 868 988 l 1
 1126 988 l 1
EndSplineSet
Validated: 1
EndChar

StartChar: k
Encoding: 107 107 22
Width: 1237
VWidth: 2097
Flags: W
HStem: 0 21G<180 426 890.325 1212> 988 20G<877.266 1197> 1491 20G<180 426>
VStem: 180 246<0 492 591 1511> 900 297<711 1008> 910 302<0 302>
DStem2: 426 591 687 556 0.74838 0.66327<172.113 631.316> 687 556 426 492 0.686547 -0.727086<0 557.36>
LayerCount: 2
Fore
SplineSet
426 591 m 1xf4
 900 1008 l 1
 1197 1008 l 1xf8
 687 556 l 1
 1212 0 l 1
 910 0 l 1
 426 492 l 1
 426 0 l 1
 180 0 l 1
 180 1511 l 1
 426 1511 l 1
 426 591 l 1xf4
EndSplineSet
Validated: 1
EndChar

StartChar: j
Encoding: 106 106 23
Width: 606
VWidth: 2097
Flags: W
HStem: 968 20G<194 440> 1150 271<179 455>
VStem: 179 276<1150 1421> 194 246<-255.331 988>
LayerCount: 2
Fore
SplineSet
179 1421 m 1xe0
 455 1421 l 1
 455 1150 l 1
 179 1150 l 1
 179 1421 l 1xe0
194 988 m 1xd0
 440 988 l 1
 440 -96 l 2
 440 -223 430 -430 149 -532 c 1
 115 -544 l 1
 18 -350 l 1
 56 -332 l 2
 189 -269 194 -166 194 -113 c 2
 194 988 l 1xd0
EndSplineSet
Validated: 1
EndChar

StartChar: x
Encoding: 120 120 24
Width: 1220
VWidth: 2097
Flags: W
HStem: 0 21G<77 368.941 892.235 1200> 968 20G<65 372.565 927.044 1220>
VStem: 77 276<0 276 712 988> 909 291<0 291> 943 277<711 988>
DStem2: 655 627 469 486 0.649523 -0.760342<-468.691 -13.603> 77 0 353 0 0.627815 0.778363<173.277 608.058> 655 627 812 485 0.629953 0.776633<0 461.791>
LayerCount: 2
Fore
SplineSet
65 988 m 1xf0
 356 988 l 1
 655 627 l 1
 943 988 l 1
 1220 988 l 1xe8
 812 485 l 1
 1200 0 l 1
 909 0 l 1
 624 340 l 1
 353 0 l 1
 77 0 l 1
 469 486 l 1
 65 988 l 1xf0
EndSplineSet
Validated: 1
EndChar

StartChar: z
Encoding: 122 122 25
Width: 1242
VWidth: 2097
Flags: W
HStem: 0 211<502 1092> 777 211<150 707>
DStem2: 150 127 502 211 0.656035 0.754731<294.322 855.986>
LayerCount: 2
Fore
SplineSet
150 988 m 1
 1067 988 l 1
 1067 861 l 1
 502 211 l 1
 1092 211 l 1
 1092 0 l 1
 150 0 l 1
 150 127 l 1
 707 777 l 1
 150 777 l 1
 150 988 l 1
EndSplineSet
Validated: 1
EndChar

StartChar: y
Encoding: 121 121 26
Width: 1224
VWidth: 2097
Flags: W
HStem: 968 20G<50 340.564 945.2 1212>
VStem: 50 282<706 988> 270 300<-531 -231> 953 259<729 988>
DStem2: 332 988 50 988 0.422287 -0.906462<0 825.248> 270 -531 570 -531 0.389304 0.921109<116.791 576.73> 657 229 570 -531 0.389304 0.921109<0 814.356>
LayerCount: 2
Back
SplineSet
50 988 m 5
 220 988 l 5
 536 150 l 5
 830 988 l 5
 1000 988 l 5
 430 -531 l 5
 255 -531 l 5
 458 -38 l 5
 50 988 l 5
EndSplineSet
Fore
SplineSet
50 988 m 1xd0
 332 988 l 1xd0
 657 229 l 1
 953 988 l 1
 1212 988 l 1
 570 -531 l 1
 270 -531 l 1xb0
 514 -8 l 1
 50 988 l 1xd0
EndSplineSet
Validated: 1
EndChar

StartChar: f
Encoding: 102 102 27
Width: 984
VWidth: 2097
Flags: W
HStem: 0 21G<298 544> 777 211<135 298 544 939> 1210 219<606.139 982.516>
VStem: 298 246<0 777 988 1153.52>
LayerCount: 2
Back
SplineSet
662.157 1291.8 m 4
 431.356 1291.8 443.949 1109.72 444 1082 c 6
 444.174 988 l 5
 775 988 l 5
 775 859 l 5
 444.412 859 l 5
 446 0 l 5
 280 0 l 5
 278.421 859 l 5
 135 859 l 5
 135 988 l 5
 278.184 988 l 5
 278 1088 l 6
 277.996 1090.19 277.993 1092.38 277.993 1094.57 c 4
 277.993 1152.47 279.945 1221.25 316.561 1285.61 c 4
 369.047 1377.87 474.406 1428.95 607.663 1428.95 c 4
 695.469 1428.95 784.548 1408.42 845 1390 c 5
 820 1268 l 5
 789.45 1276.44 725.294 1291.8 662.157 1291.8 c 4
EndSplineSet
Fore
SplineSet
298 1047 m 6
 298 1196 302 1429 718 1429 c 4
 775 1429 860 1424 980 1388 c 6
 1016 1377 l 5
 975 1177 l 5
 933 1187 l 6
 904 1194 844 1210 785 1210 c 4
 615 1210 544 1148 544 1054 c 6
 544 988 l 5
 939 988 l 5
 939 777 l 5
 544 777 l 5
 544 0 l 5
 298 0 l 5
 298 777 l 5
 135 777 l 5
 135 988 l 5
 298 988 l 5
 298 1047 l 6
EndSplineSet
Validated: 1
EndChar

StartChar: G
Encoding: 71 71 28
Width: 1755
VWidth: 2097
Flags: W
HStem: -20 233<812.246 1285.56> 569 222<913 1358> 1200 232<785.862 1290.04>
VStem: 215 253<521.759 912.519> 1358 247<270.145 569>
DStem2: 1519 1306 1413 1107 0.884385 -0.466759<-249.902 39.8464>
LayerCount: 2
Fore
SplineSet
1605 206 m 1
 1552 148 1390 -20 1013 -20 c 0
 447 -20 215 359 215 709 c 0
 215 1081 479 1432 1010 1432 c 0
 1220 1432 1399 1373 1519 1306 c 1
 1554 1286 l 1
 1449 1088 l 1
 1413 1107 l 1
 1334 1147 1179 1200 1020 1200 c 0
 739 1200 468 1023 468 719 c 0
 468 424 717 213 1057 213 c 0
 1191 213 1289 247 1358 296 c 1
 1358 569 l 1
 913 569 l 1
 913 791 l 1
 1605 791 l 1
 1605 206 l 1
EndSplineSet
Validated: 1
EndChar

StartChar: H
Encoding: 72 72 29
Width: 1764
VWidth: 2097
Flags: W
HStem: 0 21G<290 542 1302 1554> 617 232<542 1302> 1401 20G<290 542 1302 1554>
VStem: 290 252<0 617 849 1421> 1302 252<0 617 849 1421>
LayerCount: 2
Fore
SplineSet
1302 1421 m 1
 1554 1421 l 1
 1554 0 l 1
 1302 0 l 1
 1302 617 l 1
 542 617 l 1
 542 0 l 1
 290 0 l 1
 290 1421 l 1
 542 1421 l 1
 542 849 l 1
 1302 849 l 1
 1302 1421 l 1
EndSplineSet
Validated: 1
EndChar

StartChar: g
Encoding: 103 103 30
Width: 1340
VWidth: 2097
Flags: W
HStem: -541 219<305.043 769.907> -20 217<526.446 911.036> 793 215<512.027 908.523> 968 20G<968.023 1160>
VStem: 128 254<343.323 659.667> 914 246<-187.092 25 219.359 766.39>
DStem2: 308 -279 229 -474 0.939123 -0.343582<-43.6578 246.022>
LayerCount: 2
Back
SplineSet
587.127 1007.7 m 4xec
 641.624 1007.7 722.789 998.642 859.614 929.078 c 5
 881 988 l 5
 996 988 l 5xdc
 996 -48 l 6
 996 -128.017 1007.4 -430.092 668 -521 c 4
 616.294 -534.849 563.01 -541.189 509.54 -541.189 c 4
 402.576 -541.189 295.375 -515.422 204 -477 c 5
 250 -358 l 5
 334.061 -389.288 416.378 -404.158 487.891 -404.343 c 6
 489.226 -404.345 l 6
 587.574 -404.345 799.75 -373.583 827.486 -118.497 c 4
 831.707 -79.6752 832.008 -40.5671 832.008 -1.49561 c 6
 832 47.6156 l 5
 762.253 10.4786 670.297 -19.5908 570.654 -19.5908 c 4
 365.337 -19.5908 128.208 113.006 128.208 491.3 c 4
 128.208 892.231 419.898 1007.7 587.127 1007.7 c 4xec
597.112 874.842 m 4xec
 411.619 874.842 287.956 729.858 287.956 509.664 c 4
 287.956 294.207 396.676 115.331 617.254 115.331 c 4
 703.153 115.331 779.649 143.936 832 171.839 c 5
 832 819.298 l 5
 699.685 873.617 620.251 874.842 597.112 874.842 c 4xec
EndSplineSet
Fore
SplineSet
679 1008 m 0xec
 724 1008 814 1006 960 945 c 1
 975 988 l 1
 1160 988 l 1xdc
 1160 -21 l 2
 1160 -255 1055 -541 591 -541 c 0
 489 -541 357 -524 229 -474 c 1
 192 -458 l 1
 267 -264 l 1
 308 -279 l 1
 369 -299 463 -322 566 -322 c 0
 870 -322 914 -142 914 16 c 2
 914 25 l 1
 841 -1 755 -20 661 -20 c 0
 405 -20 128 115 128 491 c 0
 128 883 460 1008 679 1008 c 0xec
691 793 m 0xec
 506 793 382 683 382 508 c 0
 382 336 491 197 714 197 c 0
 791 197 861 214 914 233 c 1
 914 755 l 1
 811 785 737 793 691 793 c 0xec
EndSplineSet
Validated: 1
EndChar

StartChar: O
Encoding: 79 79 31
Width: 1850
VWidth: 2097
Flags: W
HStem: -15 231<759.312 1181.63> 1205 231<746.106 1167.49>
VStem: 215 258<509.785 941.057> 1457 258<489.506 921.065>
LayerCount: 2
Fore
SplineSet
966 1436 m 4
 1400 1436 1715 1165 1715 726 c 4
 1715 285 1408 -15 958 -15 c 4
 572 -15 215 223 215 707 c 4
 215 1152 526 1436 966 1436 c 4
956 1205 m 4
 723 1205 473 1061 473 727 c 4
 473 411 695 216 973 216 c 4
 1202 216 1457 361 1457 709 c 4
 1457 1061 1188 1205 956 1205 c 4
EndSplineSet
Validated: 1
EndChar

StartChar: A
Encoding: 65 65 32
Width: 1547
VWidth: 2097
Flags: W
HStem: 0 21G<130 382.548 1263.45 1531> 372 231<620 1025> 1401 20G<685.076 976.91>
VStem: 130 244<0 244> 1272 259<0 259>
DStem2: 130 0 374 0 0.368343 0.92969<89.8757 494.287 741.091 1305.81> 969 1421 823 1130 0.367777 -0.929914<216.909 781.265 1028.44 1432.84>
LayerCount: 2
Fore
SplineSet
693 1421 m 1
 969 1421 l 1
 1531 0 l 1
 1272 0 l 1
 1113 372 l 1
 533 372 l 1
 374 0 l 1
 130 0 l 1
 693 1421 l 1
1025 603 m 1
 823 1130 l 1
 620 603 l 1
 1025 603 l 1
EndSplineSet
Validated: 1
EndChar

StartChar: L
Encoding: 76 76 33
Width: 1297
VWidth: 2097
Flags: W
HStem: 0 231<542 1262> 1401 20G<290 542>
VStem: 290 252<231 1421>
LayerCount: 2
Fore
SplineSet
290 1421 m 1
 542 1421 l 1
 542 231 l 1
 1262 231 l 1
 1262 0 l 1
 290 0 l 1
 290 1421 l 1
EndSplineSet
Validated: 1
EndChar

StartChar: E
Encoding: 69 69 34
Width: 1447
VWidth: 2097
Flags: W
HStem: 0 232<543 1287> 616 232<543 1232> 1189 232<543 1287>
VStem: 290 253<232 616 848 1189>
LayerCount: 2
Fore
SplineSet
290 0 m 1
 290 1421 l 1
 1287 1421 l 1
 1287 1189 l 1
 543 1189 l 1
 543 848 l 1
 1232 848 l 1
 1232 616 l 1
 543 616 l 1
 543 232 l 1
 1287 232 l 1
 1287 0 l 1
 290 0 l 1
EndSplineSet
Validated: 1
EndChar

StartChar: F
Encoding: 70 70 35
Width: 1412
VWidth: 2097
Flags: W
HStem: 0 21G<290 543> 616 232<543 1217> 1189 232<543 1277>
VStem: 290 253<0 616 848 1189>
LayerCount: 2
Fore
SplineSet
543 1189 m 1
 543 848 l 1
 1217 848 l 1
 1217 616 l 1
 543 616 l 1
 543 0 l 1
 290 0 l 1
 290 1421 l 1
 1277 1421 l 1
 1277 1189 l 1
 543 1189 l 1
EndSplineSet
Validated: 1
EndChar

StartChar: N
Encoding: 78 78 36
Width: 1823
VWidth: 2097
Flags: W
HStem: 0 21G<290 542 1317.56 1613> 1401 20G<290 582.524 1361 1613>
VStem: 290 252<0 1094> 1361 252<329 1421>
DStem2: 568 1421 542 1094 0.587599 -0.809152<249.315 1349.56>
LayerCount: 2
Fore
SplineSet
290 1421 m 1
 568 1421 l 1
 1361 329 l 1
 1361 1421 l 1
 1613 1421 l 1
 1613 0 l 1
 1332 0 l 1
 542 1094 l 1
 542 0 l 1
 290 0 l 1
 290 1421 l 1
EndSplineSet
Validated: 1
EndChar

StartChar: V
Encoding: 86 86 37
Width: 1565
VWidth: 2097
Flags: W
HStem: 0 21G<681.273 995.741> 1401 20G<140 436.27 1256.75 1538>
VStem: 140 289<1132 1421> 1264 274<1147 1421>
DStem2: 429 1421 140 1421 0.360386 -0.932803<0 1223.37> 847 271 988 0 0.360957 0.932582<0 1222.99>
LayerCount: 2
Fore
SplineSet
140 1421 m 1
 429 1421 l 1
 847 271 l 1
 1264 1421 l 1
 1538 1421 l 1
 988 0 l 1
 689 0 l 1
 140 1421 l 1
EndSplineSet
Validated: 1
EndChar

StartChar: Z
Encoding: 90 90 38
Width: 1522
VWidth: 2097
Flags: W
HStem: 0 232<517 1462> 1189 232<185 1052>
DStem2: 155 155 517 232 0.663197 0.748445<297.708 1368.78>
LayerCount: 2
Fore
SplineSet
185 1421 m 1
 1435 1421 l 1
 1435 1268 l 1
 517 232 l 1
 1462 232 l 1
 1462 0 l 1
 155 0 l 1
 155 155 l 1
 1052 1189 l 1
 185 1189 l 1
 185 1421 l 1
EndSplineSet
Validated: 1
EndChar

StartChar: T
Encoding: 84 84 39
Width: 1374
VWidth: 2097
Flags: W
HStem: 0 21G<601 853> 1189 232<85 601 853 1369>
VStem: 601 252<0 1189>
LayerCount: 2
Fore
SplineSet
85 1421 m 5
 1369 1421 l 5
 1369 1189 l 5
 853 1189 l 5
 853 0 l 5
 601 0 l 5
 601 1189 l 5
 85 1189 l 5
 85 1421 l 5
EndSplineSet
Validated: 1
EndChar

StartChar: I
Encoding: 73 73 40
Width: 812
VWidth: 2097
Flags: W
HStem: 0 21G<320 572> 1401 20G<320 572>
VStem: 320 252<0 1421>
LayerCount: 2
Fore
SplineSet
320 1421 m 1
 572 1421 l 1
 572 0 l 1
 320 0 l 1
 320 1421 l 1
EndSplineSet
Validated: 1
EndChar

StartChar: X
Encoding: 88 88 41
Width: 1532
VWidth: 2097
Flags: W
HStem: 0 21G<110 434.77 1241.23 1575> 1401 20G<172 491.179 1210.34 1520>
VStem: 110 310<0 310> 172 304<1117 1421> 1225 295<1126 1421> 1256 319<0 319>
DStem2: 110 0 420 0 0.604974 0.796245<187.542 891.096> 857 919 1020 744 0.59409 0.804398<0 622.433>
LayerCount: 2
Fore
SplineSet
1225 1421 m 1xd8
 1520 1421 l 1xd8
 1020 744 l 1
 1575 0 l 1
 1256 0 l 1
 838 566 l 1
 420 0 l 1
 110 0 l 1xe4
 673 741 l 1
 172 1421 l 1
 476 1421 l 1
 857 919 l 1
 1225 1421 l 1xd8
EndSplineSet
Validated: 1
EndChar

StartChar: Y
Encoding: 89 89 42
Width: 1427
VWidth: 2097
Flags: W
HStem: 0 21G<626 909> 1401 20G<100 411.793 1151.92 1454>
VStem: 100 298<1123 1421> 626 283<0 664> 1166 288<1133 1421>
DStem2: 398 1421 100 1421 0.570619 -0.821215<0 669.325> 778 870 909 664 0.584276 0.811555<0 673.866>
LayerCount: 2
Fore
SplineSet
100 1421 m 1
 398 1421 l 1
 778 870 l 1
 1166 1421 l 1
 1454 1421 l 1
 909 664 l 1
 909 0 l 1
 626 0 l 1
 626 664 l 1
 100 1421 l 1
EndSplineSet
Validated: 1
EndChar

StartChar: K
Encoding: 75 75 43
Width: 1581
VWidth: 2097
Flags: W
HStem: 0 21G<290 542 1202.23 1549> 1401 20G<290 542 1170.09 1513>
VStem: 290 252<0 688 770 1421> 1190 323<1098 1421> 1222 327<0 327>
DStem2: 542 770 830 741 0.708661 0.705549<183.634 918.525> 830 741 542 688 0.696373 -0.71768<0 804.779>
LayerCount: 2
Fore
SplineSet
542 770 m 1xe8
 1190 1421 l 1
 1513 1421 l 1xf0
 830 741 l 1
 1549 0 l 1
 1222 0 l 1
 542 688 l 1
 542 0 l 1
 290 0 l 1
 290 1421 l 1
 542 1421 l 1
 542 770 l 1xe8
EndSplineSet
Validated: 1
EndChar

StartChar: M
Encoding: 77 77 44
Width: 2048
VWidth: 2097
Flags: W
HStem: 0 21G<290 542 1586 1838> 1401 20G<290 607.569 1535.26 1838>
VStem: 290 252<0 1063> 1586 252<0 1063>
DStem2: 1068 605 1182 407 0.506235 0.862396<0 657.207>
LayerCount: 2
Fore
SplineSet
290 1421 m 1
 596 1421 l 1
 1068 605 l 1
 1547 1421 l 1
 1838 1421 l 1
 1838 0 l 1
 1586 0 l 1
 1586 1063 l 1
 1182 407 l 1
 944 407 l 1
 542 1063 l 1
 542 0 l 1
 290 0 l 1
 290 1421 l 1
EndSplineSet
Validated: 1
EndChar

StartChar: hyphen
Encoding: 45 45 45
Width: 1210
VWidth: 2097
Flags: W
HStem: 548 221<134 1076>
LayerCount: 2
Fore
SplineSet
134 769 m 1
 1076 769 l 1
 1076 548 l 1
 134 548 l 1
 134 769 l 1
EndSplineSet
Validated: 1
EndChar

StartChar: J
Encoding: 74 74 46
Width: 1117
VWidth: 2097
Flags: W
HStem: -17 232<145.875 526.665> 18 222<149.288 323.936> 1401 20G<662 914>
VStem: 662 252<336.598 1421>
LayerCount: 2
Fore
SplineSet
662 1421 m 1xb0
 914 1421 l 1
 914 511 l 2
 914 288 856 -17 354 -17 c 0xb0
 285 -17 215 -9 148 8 c 2
 110 18 l 1
 152 240 l 1x70
 194 230 l 2
 236 220 282 215 326 215 c 0
 648 215 662 424 662 513 c 2
 662 1421 l 1xb0
EndSplineSet
Validated: 1
EndChar

StartChar: R
Encoding: 82 82 47
Width: 1601
VWidth: 2097
Flags: W
HStem: 0 21G<290 542 1166.55 1509> 551 232<542 783> 1190 231<542 1035.27>
VStem: 290 252<0 551 783 1190> 1128 263<867.493 1112.46> 1181 328<0 328>
DStem2: 1080 594 783 551 0.585491 -0.810679<0 540.678>
LayerCount: 2
Fore
SplineSet
1391 1014 m 0xf8
 1391 840 1311 664 1080 594 c 1
 1509 0 l 1
 1181 0 l 5xf4
 783 551 l 1
 542 551 l 1
 542 0 l 1
 290 0 l 1
 290 1421 l 1
 895 1421 l 2
 1068 1421 1391 1395 1391 1014 c 0xf8
542 1190 m 1
 542 783 l 1
 774 783 l 2
 952 783 1128 807 1128 991 c 0xf8
 1128 1125 1025 1190 821 1190 c 2
 542 1190 l 1
EndSplineSet
Validated: 1
EndChar

StartChar: D
Encoding: 68 68 48
Width: 1770
VWidth: 0
Flags: W
HStem: -0 232<550 1070.96> 1189 232<550 1069.92>
VStem: 298 252<232 1189> 1357 253<500.54 927.818>
LayerCount: 2
Back
SplineSet
290 1421 m 5
 687 1421 l 6
 796.369 1421 1446.05 1452.36 1446.05 753.511 c 4
 1446.05 -41.9381 783.275 0 598 0 c 6
 290 0 l 5
 290 1421 l 5
460 1271 m 5
 460 150 l 5
 667 150 l 6
 898.567 150 1275.42 187.855 1275.42 719.535 c 4
 1275.42 955.503 1167.54 1271 736 1271 c 6
 460 1271 l 5
EndSplineSet
Fore
SplineSet
809 1189 m 2
 550 1189 l 1
 550 232 l 1
 733 232 l 2
 908 232 1159 237 1289 452 c 0
 1317 499 1357 586 1357 719 c 0
 1357 1022 1136 1155 947 1182 c 0
 904 1188 857 1189 809 1189 c 2
802 1421 m 2
 1446 1421 1610 1065 1610 752 c 0
 1610 463 1495 125 1071 31 c 1
 936 0 799 0 666 -0 c 2
 298 0 l 5
 298 1421 l 5
 802 1421 l 2
EndSplineSet
Validated: 1
EndChar

StartChar: P
Encoding: 80 80 49
Width: 1503
VWidth: 2097
Flags: W
HStem: 0 21G<290 542> 548 231<542 1017.08> 1189 232<542 1041.49>
VStem: 290 252<0 552 781.511 1189> 1139 257<874.337 1109.22>
LayerCount: 2
Fore
SplineSet
290 1421 m 1
 800 1421 l 2
 1005 1421 1396 1413 1396 1021 c 0
 1396 588 1008 548 665 548 c 0
 623 548 583 550 542 552 c 1
 542 0 l 1
 290 0 l 1
 290 1421 l 1
542 1189 m 1
 542 784 l 1
 589 781 636 779 683 779 c 0
 922 779 1139 798 1139 994 c 0
 1139 1169 952 1189 749 1189 c 2
 542 1189 l 1
EndSplineSet
Validated: 1
EndChar

StartChar: B
Encoding: 66 66 50
Width: 1588
VWidth: 2097
Flags: W
HStem: 0 232<542 1088.36> 655 160<542 928.668> 1209 212<542 980.127>
VStem: 290 252<232 644 815 1209> 1068 278<914.137 1138.52> 1211 252<326.119 543.325>
LayerCount: 2
Fore
SplineSet
775 1209 m 2xf8
 542 1209 l 1
 542 815 l 1
 773 820 1068 820 1068 1030 c 0
 1068 1102 1029 1209 775 1209 c 2xf8
791 655 m 0
 766 655 739 653 542 644 c 1
 542 232 l 1
 766 232 l 2
 902 232 1211 235 1211 434 c 0xf4
 1211 572 1047 655 791 655 c 0
290 1421 m 1
 832 1421 l 2
 1271 1421 1346 1180 1346 1059 c 0xf8
 1346 964 1287 864 1216 803 c 1
 1365 742 1463 601 1463 446 c 0
 1463 311 1371 0 793 0 c 2
 290 0 l 1
 290 1421 l 1
EndSplineSet
Validated: 1
EndChar

StartChar: U
Encoding: 85 85 51
Width: 1737
VWidth: 2097
Flags: W
HStem: -20 229<686.019 1129.31> 1401 20G<290 542 1275 1525>
VStem: 290 252<339.438 1421> 1275 252<344.158 1421>
LayerCount: 2
Back
SplineSet
290 1421 m 5
 460 1421 l 5
 460 500 l 6
 460 406.32 466.12 318.109 535 240 c 4
 567.144 203.55 653 127 830 127 c 4
 1016.35 127 1150.68 211.395 1188.01 362.124 c 4
 1199.13 407.024 1200 453.742 1200 500 c 6
 1200 1421 l 5
 1370 1421 l 5
 1370 620 l 6
 1370 575.023 1371.6 529.728 1371.6 484.603 c 4
 1371.6 320.874 1355.71 -21 830 -21 c 4
 417.595 -21 330.029 200.326 306 300 c 4
 291.452 360.349 288.395 422.305 288.395 484.585 c 4
 288.395 529.716 290 575.017 290 620 c 6
 290 1421 l 5
EndSplineSet
Fore
SplineSet
909 -20 m 4
 298 -20 290 327 290 485 c 0
 290 490 290 494 290 498 c 6
 290 1421 l 5
 542 1421 l 5
 542 520 l 6
 542 433 551 363 615 302 c 4
 642 276 726 209 909 209 c 4
 1097 209 1227 278 1262 400 c 4
 1273 437 1275 478 1275 520 c 6
 1275 1421 l 5
 1525 1421 l 5
 1525 511 1527 603 1527 511 c 4
 1527 338 1503 -20 909 -20 c 4
EndSplineSet
Validated: 1
EndChar

StartChar: Q
Encoding: 81 81 52
Width: 1870
VWidth: 2097
Flags: W
HStem: -15 231<773.274 1207.06> 1205 231<746.003 1166.82>
VStem: 215 258<504.064 941.103> 1453 262<457.784 925.618>
DStem2: 1069 693 892 538 0.778817 -0.627251<0 388.229>
LayerCount: 2
Fore
SplineSet
966 1436 m 0
 1420 1436 1715 1150 1715 709 c 0
 1715 521 1664 366 1578 248 c 1
 1762 75 l 1
 1615 -73 l 1
 1415 109 l 1
 1273 17 1111 -15 968 -15 c 0
 541 -15 215 248 215 705 c 0
 215 1154 525 1436 966 1436 c 0
951 1205 m 0
 727 1205 473 1066 473 723 c 0
 473 389 715 216 990 216 c 0
 1095 216 1174 243 1226 269 c 1
 892 538 l 1
 1069 693 l 1
 1391 422 l 1
 1432 492 1453 579 1453 687 c 0
 1453 1100 1152 1205 951 1205 c 0
EndSplineSet
Validated: 1
EndChar

StartChar: W
Encoding: 87 87 53
Width: 2411
VWidth: 2097
Flags: W
HStem: 0 21G<602.399 857.396 1587.71 1842.67> 1401 20G<140 411.989 1136.47 1382.19 2106.67 2380>
VStem: 140 266<1155 1421> 2114 266<1155 1421>
DStem2: 733 329 850 0 0.35225 0.935906<0 892.234> 1376 1421 1252 1087 0.295684 -0.955286<282.401 1143.11> 1714 329 1835 0 0.358098 0.933684<0 1162.82>
LayerCount: 2
Fore
SplineSet
140 1421 m 1
 406 1421 l 1
 733 329 l 1
 1144 1421 l 1
 1376 1421 l 1
 1714 329 l 1
 2114 1421 l 1
 2380 1421 l 1
 1835 0 l 1
 1594 0 l 1
 1252 1087 l 1
 850 0 l 1
 609 0 l 1
 140 1421 l 1
EndSplineSet
Validated: 1
EndChar

StartChar: C
Encoding: 67 67 54
Width: 1615
VWidth: 2097
Flags: W
HStem: -20 238<864.335 1388.87> 1199 232<844.508 1363.22>
VStem: 275 253<524.006 898.98>
DStem2: 1510 1352 1430 1134 0.946164 -0.323688<-334.411 35.033> 1448 276 1530 73 0.94346 0.331486<-296.098 39.2173>
LayerCount: 2
Fore
SplineSet
1085 1431 m 0
 1208 1431 1360 1411 1510 1352 c 1
 1547 1337 l 1
 1468 1121 l 1
 1430 1134 l 1
 1266 1189 1150 1199 1079 1199 c 0
 737 1199 528 965 528 710 c 0
 528 445 752 218 1120 218 c 0
 1221 218 1338 237 1448 276 c 2
 1485 289 l 1
 1567 89 l 1
 1530 73 l 2
 1381 9 1217 -20 1072 -20 c 0
 561 -20 275 306 275 709 c 0
 275 1119 573 1431 1085 1431 c 0
EndSplineSet
Validated: 1
EndChar

StartChar: S
Encoding: 83 83 55
Width: 1525
VWidth: 2097
Flags: W
HStem: -20 250<510.42 1024.71> 1142 233<1120 1284.32> 1192 242<669.231 1221.28>
VStem: 280 275<946.732 1105.69> 1126 270<314.43 487.47>
DStem2: 325 335 240 93 0.933346 -0.358979<7.53856 396.783>
LayerCount: 2
Fore
SplineSet
927 1434 m 0xb8
 1093 1434 1241 1399 1320 1375 c 2
 1361 1363 l 1
 1279 1131 l 1
 1241 1142 l 1xd8
 1096 1182 980 1192 911 1192 c 0
 721 1192 555 1124 555 1021 c 0
 555 777 1396 866 1396 409 c 0
 1396 217 1230 -20 757 -20 c 0
 556 -20 415 25 277 79 c 1
 240 93 l 1
 325 335 l 1
 364 320 l 1
 555 252 694 230 781 230 c 0
 986 230 1126 298 1126 401 c 0
 1126 672 280 558 280 1010 c 0
 280 1242 523 1434 927 1434 c 0xb8
EndSplineSet
Validated: 1
EndChar

StartChar: at
Encoding: 64 64 56
Width: 2100
VWidth: 2097
Flags: W
HStem: -468 224<789.026 1248.15> -156 217<1495.72 1644.71> -61 211<929.051 1237.82> 799 204<921.933 1237.74> 1197 243<831.535 1389.58>
VStem: 140 250<177.796 725.935> 560 234<285.531 662.574> 1240 237<169.422 781.512> 1754 250<215.65 824.785>
LayerCount: 2
Fore
SplineSet
1276 959 m 1xbf80
 1294 1009 l 1
 1477 1009 l 1
 1477 252 l 2
 1477 127 1489 61 1565 61 c 0
 1618 61 1754 143 1754 510 c 0
 1754 883 1623 1197 1100 1197 c 0
 527 1197 390 736 390 438 c 0
 390 -13 697 -244 1017 -244 c 0
 1125 -244 1218 -217 1291 -181 c 1
 1327 -164 l 1
 1428 -354 l 1
 1391 -373 l 2
 1285 -428 1152 -468 992 -468 c 0
 716 -468 140 -338 140 404 c 0
 140 880 350 1440 1142 1440 c 0
 1875 1440 2004 950 2004 530 c 0
 2004 -44 1701 -156 1545 -156 c 0xdf80
 1427 -156 1329 -95 1279 -1 c 1
 1192 -44 1105 -61 1029 -61 c 0
 762 -61 560 135 560 452 c 0
 560 774 758 1003 1054 1003 c 0
 1140 1003 1216 983 1276 959 c 1xbf80
1077 799 m 0
 913 799 794 686 794 475 c 0
 794 260 921 150 1082 150 c 0xbf80
 1130 150 1184 160 1240 186 c 1
 1240 767 l 1
 1197 783 1139 799 1077 799 c 0
EndSplineSet
Validated: 1
EndChar

StartChar: question
Encoding: 63 63 57
Width: 1046
VWidth: 2097
Flags: W
HStem: -41 282<270 552> 1253 225<167.565 590.886>
VStem: 270 282<-41 241> 285 252<351 553.466> 670 247<943.996 1178.04>
LayerCount: 2
Fore
SplineSet
270 241 m 1xe8
 552 241 l 1
 552 -41 l 1
 270 -41 l 1
 270 241 l 1xe8
917 1097 m 0
 917 672 537 728 537 392 c 2
 537 351 l 1
 285 351 l 1
 285 392 l 2xd8
 285 834 670 821 670 1069 c 0
 670 1138 630 1253 396 1253 c 0
 321 1253 222 1232 168 1209 c 2
 130 1193 l 1
 47 1389 l 1
 82 1406 l 2
 189 1459 308 1478 423 1478 c 0
 721 1478 917 1353 917 1097 c 0
EndSplineSet
Validated: 1
EndChar

StartChar: eight
Encoding: 56 56 58
Width: 1464
VWidth: 2097
Flags: W
HStem: -20 232<544.804 934.537> 1215 225<568.015 903.047>
VStem: 150 257<333.829 569.428> 230 261<964.124 1143.76> 977 257<959.096 1146.44> 1055 259<319.798 564.414>
LayerCount: 2
Fore
SplineSet
724 1215 m 0xd8
 585 1215 491 1134 491 1056 c 0
 491 939 662 888 780 856 c 1
 916 932 977 979 977 1047 c 0
 977 1159 858 1215 724 1215 c 0xd8
1055 438 m 0xe4
 1055 601 891 675 698 724 c 1
 513 672 407 556 407 446 c 0
 407 328 532 212 747 212 c 0
 941 212 1055 317 1055 438 c 0xe4
724 1440 m 0
 1074 1440 1234 1297 1234 1073 c 0xd8
 1234 960 1174 875 1069 794 c 1
 1240 702 1314 569 1314 425 c 0
 1314 203 1121 -20 738 -20 c 0
 401 -20 150 154 150 407 c 0xe4
 150 557 247 700 393 788 c 1
 257 880 230 1005 230 1077 c 0xd0
 230 1275 406 1440 724 1440 c 0
EndSplineSet
Validated: 1
EndChar

StartChar: nine
Encoding: 57 57 59
Width: 1464
VWidth: 2097
Flags: W
HStem: -15 231<283.541 743.238> 483 222<565.673 913.889> 1219 222<564.145 885.205>
VStem: 171 246<830.901 1077.42> 1044 249<496.478 1063.67>
LayerCount: 2
Fore
SplineSet
750 1441 m 0
 982 1441 1293 1341 1293 828 c 0
 1293 172 895 -15 435 -15 c 0
 388 -15 347 -13 305 -9 c 2
 265 -5 l 1
 284 225 l 1
 326 221 l 2
 360 217 394 216 431 216 c 0
 856 216 960 382 1000 557 c 1
 906 506 797 483 694 483 c 0
 383 483 171 676 171 939 c 0
 171 1211 400 1441 750 1441 c 0
725 1219 m 0
 561 1219 417 1087 417 955 c 0
 417 814 570 705 737 705 c 0
 907 705 1044 814 1044 944 c 0
 1044 1071 902 1219 725 1219 c 0
EndSplineSet
Validated: 1
EndChar

StartChar: six
Encoding: 54 54 60
Width: 1464
VWidth: 2097
Flags: W
HStem: -25 222<576.193 891.414> 751 222<546.988 900.958> 1201 231<737.142 1178.37>
VStem: 169 249<352.255 623.549> 1045 246<344.442 624.606>
LayerCount: 2
Fore
SplineSet
1027 1432 m 0
 1074 1432 1115 1429 1157 1425 c 2
 1197 1421 l 1
 1178 1191 l 1
 1136 1195 l 2
 1101 1199 1068 1201 1032 1201 c 0
 640 1201 511 1052 462 898 c 1
 546 945 652 973 770 973 c 0
 1087 973 1291 777 1291 501 c 0
 1291 216 1075 -25 715 -25 c 0
 482 -25 169 75 169 584 c 0
 169 1245 566 1432 1027 1432 c 0
725 751 m 0
 555 751 418 647 418 495 c 0
 418 348 552 197 737 197 c 0
 904 197 1045 328 1045 484 c 0
 1045 650 890 751 725 751 c 0
EndSplineSet
Validated: 1
EndChar

StartChar: seven
Encoding: 55 55 61
Width: 1464
VWidth: 0
Flags: W
HStem: 0 21G<282 583.965> 1179 242<131 1006>
VStem: 282 290<0 290>
DStem2: 282 0 572 0 0.513404 0.858147<148.887 1383.46>
LayerCount: 2
Fore
SplineSet
131 1421 m 1
 1333 1421 l 1
 1333 1272 l 1
 572 0 l 1
 282 0 l 1
 1006 1179 l 1
 131 1179 l 1
 131 1421 l 1
EndSplineSet
Validated: 1
EndChar

StartChar: five
Encoding: 53 53 62
Width: 1464
VWidth: 2097
Flags: W
HStem: -20 236<213.508 876.8> 703 234<501.221 878.552> 1189 232<498 1263>
VStem: 243 255<929 1189> 1048 262<344.536 576.069>
DStem2: 262 247 173 24 0.981491 -0.19151<-40.9832 328.988>
LayerCount: 2
Fore
SplineSet
243 1421 m 1
 1263 1421 l 1
 1263 1189 l 1
 498 1189 l 1
 498 929 l 1
 549 933 616 937 683 937 c 0
 1196 937 1310 659 1310 474 c 0
 1310 278 1184 -20 612 -20 c 0
 460 -20 330 -6 214 16 c 2
 173 24 l 1
 222 256 l 1
 262 247 l 1
 353 228 472 216 597 216 c 0
 967 216 1048 361 1048 458 c 0
 1048 551 964 703 619 703 c 0
 551 703 445 697 289 679 c 1
 243 674 l 1
 243 1421 l 1
EndSplineSet
Validated: 1
EndChar

StartChar: two
Encoding: 50 50 63
Width: 1464
VWidth: 0
Flags: W
HStem: 0 232<560 1307> 1202 229<416.822 901.191>
VStem: 1022 259<919.338 1099.86>
DStem2: 188 1315 265 1109 0.946164 0.323688<6.17497 417.483>
LayerCount: 2
Back
SplineSet
198 1319 m 5
 319.275 1379.23 478.892 1431.04 642.162 1431.04 c 4
 928.274 1431.04 1106.15 1263.63 1106.15 1065.06 c 4
 1106.15 707.484 594.973 631.805 431.873 150 c 5
 1132 150 l 5
 1132 0 l 5
 225 0 l 5
 225 93 l 5
 379.879 577.282 779.574 774.777 881.258 906.367 c 4
 904.567 936.531 928.699 978.695 928.699 1035.06 c 4
 928.699 1169.71 786.056 1284.22 609.645 1284.22 c 4
 525.318 1284.22 439.587 1256.78 398.827 1244.22 c 6
 237 1192 l 5
 198 1319 l 5
EndSplineSet
Fore
SplineSet
236 131 m 1
 433 706 1022 813 1022 1007 c 0
 1022 1108 884 1202 700 1202 c 0
 596 1202 478 1182 303 1122 c 2
 265 1109 l 1
 188 1315 l 1
 224 1331 l 1
 358 1388 539 1431 737 1431 c 0
 1080 1431 1281 1261 1281 1050 c 0
 1281 704 770 627 560 232 c 1
 1307 232 l 1
 1307 0 l 1
 236 0 l 1
 236 131 l 1
EndSplineSet
Validated: 1
EndChar

StartChar: three
Encoding: 51 51 64
Width: 1464
VWidth: 2097
Flags: W
HStem: -45 240<333.243 863.768> 643 228<492 825.214> 1202 236<419.602 869.839>
VStem: 945 265<963.431 1136.97> 1016 256<315.232 524.941>
LayerCount: 2
Fore
SplineSet
238 1332 m 2xf0
 333 1379 502 1438 696 1438 c 0
 1003 1438 1210 1289 1210 1080 c 0xf0
 1210 956 1150 847 1052 781 c 1
 1210 712 1272 587 1272 450 c 0
 1272 153 1018 -45 626 -45 c 0
 488 -45 347 -21 212 35 c 2
 176 50 l 1
 249 261 l 1
 286 251 l 2
 460 205 555 195 628 195 c 0
 837 195 1016 284 1016 419 c 0xe8
 1016 508 937 643 539 643 c 2
 492 643 l 1
 492 871 l 1
 539 871 l 2
 864 871 945 980 945 1052 c 0
 945 1137 836 1202 671 1202 c 0
 600 1202 479 1189 329 1123 c 1
 290 1105 l 1
 204 1315 l 1
 238 1332 l 2xf0
EndSplineSet
Validated: 1
EndChar

StartChar: one
Encoding: 49 49 65
Width: 1464
VWidth: 0
Flags: W
HStem: 0 231<305 664 953 1297> 1401 20G<609.295 953>
VStem: 664 289<231 1173>
DStem2: 250 1272 347 1065 0.941176 0.337916<21.3454 356.193>
LayerCount: 2
Fore
SplineSet
665 1421 m 1
 953 1421 l 1
 953 231 l 1
 1297 231 l 1
 1297 0 l 1
 305 0 l 1
 305 231 l 1
 664 231 l 1
 664 1173 l 1
 347 1065 l 1
 250 1272 l 1
 665 1421 l 1
EndSplineSet
Validated: 1
EndChar

StartChar: zero
Encoding: 48 48 66
Width: 1464
VWidth: 2097
Flags: W
HStem: -20 232<575.825 890.856> 1205 235<570.28 892.493>
VStem: 111 251<465.422 973.336> 1102 251<462.331 961.294>
LayerCount: 2
Fore
SplineSet
731 1205 m 0
 583 1205 362 1096 362 728 c 0
 362 327 585 212 734 212 c 0
 881 212 1102 325 1102 721 c 0
 1102 1096 880 1205 731 1205 c 0
731 1440 m 0
 995 1440 1353 1277 1353 725 c 0
 1353 148 999 -20 734 -20 c 0
 468 -20 111 152 111 727 c 0
 111 1277 468 1440 731 1440 c 0
EndSplineSet
Validated: 1
EndChar

StartChar: four
Encoding: 52 52 67
Width: 1546
VWidth: 0
Flags: W
HStem: 0 21G<850 1096> 303 232<437 819 1096 1344> 1401 20G<741.771 1096>
VStem: 819 277<535 1109> 850 246<0 303>
DStem2: 120 461 437 535 0.551689 0.83405<236.605 926.095>
LayerCount: 2
Fore
SplineSet
755 1421 m 1xe8
 1096 1421 l 1xe8
 1096 535 l 1xf0
 1344 535 l 1
 1344 303 l 1
 1096 303 l 1
 1096 0 l 1
 850 0 l 1
 850 303 l 1
 120 303 l 1
 120 461 l 1
 755 1421 l 1xe8
819 535 m 1xf0
 819 1109 l 1
 437 535 l 1
 819 535 l 1xf0
EndSplineSet
Validated: 1
EndChar

StartChar: period
Encoding: 46 46 68
Width: 570
VWidth: 2097
Flags: W
HStem: -41 292<139 431>
VStem: 139 292<-41 251>
LayerCount: 2
Fore
SplineSet
139 251 m 1
 431 251 l 1
 431 -41 l 1
 139 -41 l 1
 139 251 l 1
EndSplineSet
Validated: 1
EndChar

StartChar: comma
Encoding: 44 44 69
Width: 570
VWidth: 2097
Flags: W
HStem: -261 472<172 250>
VStem: -19 269<-261 8> 172 269<-58 211>
DStem2: -19 -261 250 -261 0.375112 0.926979<100.905 509.181>
LayerCount: 2
Fore
SplineSet
172 211 m 1xa0
 441 211 l 1xa0
 250 -261 l 1
 -19 -261 l 1xc0
 172 211 l 1xa0
EndSplineSet
Validated: 1
EndChar

StartChar: bracketleft
Encoding: 91 91 70
Width: 788
VWidth: 2097
Flags: W
HStem: -451 231<455 749> 1321 231<455 749>
VStem: 209 540<-451 -220 1321 1552> 209 246<-220 1321>
LayerCount: 2
Fore
SplineSet
209 1552 m 1xe0
 749 1552 l 1
 749 1321 l 1xe0
 455 1321 l 1
 455 -220 l 1xd0
 749 -220 l 1
 749 -451 l 1
 209 -451 l 1
 209 1552 l 1xe0
EndSplineSet
Validated: 1
EndChar

StartChar: bracketright
Encoding: 93 93 71
Width: 778
VWidth: 2097
Flags: W
HStem: -451 231<39 333> 1321 231<39 333>
VStem: 39 540<-451 -220 1321 1552> 333 246<-220 1321>
LayerCount: 2
Fore
SplineSet
39 1552 m 5xe0
 579 1552 l 5
 579 -451 l 5
 39 -451 l 5
 39 -220 l 5xe0
 333 -220 l 5
 333 1321 l 5xd0
 39 1321 l 5
 39 1552 l 5xe0
EndSplineSet
Validated: 1
EndChar

StartChar: parenleft
Encoding: 40 40 72
Width: 742
VWidth: 2097
Flags: W
VStem: 179 257<227.553 921.348>
DStem2: 495 1569 697 1458 0.511075 0.859536<-404.291 38.5862> 697 -303 498 -429 0.52145 -0.853282<-393.795 39.962>
LayerCount: 2
Fore
SplineSet
515 1602 m 1
 719 1495 l 1
 697 1458 l 2
 568 1243 436 928 436 574 c 0
 436 223 568 -91 697 -303 c 1
 718 -337 l 1
 520 -465 l 1
 498 -429 l 2
 362 -206 179 174 179 576 c 0
 179 973 359 1346 495 1569 c 2
 515 1602 l 1
EndSplineSet
Validated: 1
EndChar

StartChar: parenright
Encoding: 41 41 73
Width: 742
VWidth: 2097
Flags: W
VStem: 306 257<226.242 921.58>
DStem2: 227 1602 23 1495 0.511075 -0.859536<0 441.818> 24 -337 222 -465 0.52145 0.853282<0 434.381>
LayerCount: 2
Fore
SplineSet
563 576 m 0
 563 171 376 -213 244 -429 c 2
 222 -465 l 1
 24 -337 l 1
 45 -303 l 1
 174 -91 306 223 306 574 c 0
 306 928 172 1245 45 1458 c 2
 23 1495 l 1
 227 1602 l 1
 247 1569 l 2
 383 1346 563 973 563 576 c 0
EndSplineSet
Validated: 1
EndChar

StartChar: slash
Encoding: 47 47 74
Width: 726
VWidth: 2097
Flags: W
VStem: -17 257<-131 126> 506 257<1205 1462>
DStem2: -17 -131 240 -131 0.31193 0.950105<80.1661 1676.66>
LayerCount: 2
Fore
SplineSet
506 1462 m 1
 763 1462 l 1
 240 -131 l 1
 -17 -131 l 1
 506 1462 l 1
EndSplineSet
Validated: 1
EndChar

StartChar: backslash
Encoding: 92 92 75
Width: 726
VWidth: 2097
Flags: W
VStem: -37 257<1205 1462> 486 257<-131 126>
DStem2: 220 1462 -37 1462 0.31193 -0.950105<0 1596.49>
LayerCount: 2
Fore
SplineSet
-37 1462 m 1
 220 1462 l 1
 743 -131 l 1
 486 -131 l 1
 -37 1462 l 1
EndSplineSet
Validated: 1
EndChar

StartChar: plus
Encoding: 43 43 76
Width: 1400
VWidth: 2097
Flags: W
HStem: 548 220<84 585 815 1316>
VStem: 585 230<42 548 768 1274>
LayerCount: 2
Fore
SplineSet
585 1274 m 1
 815 1274 l 1
 815 768 l 1
 1316 768 l 1
 1316 548 l 1
 815 548 l 1
 815 42 l 1
 585 42 l 1
 585 548 l 1
 84 548 l 1
 84 768 l 1
 585 768 l 1
 585 1274 l 1
EndSplineSet
Validated: 1
EndChar

StartChar: asterisk
Encoding: 42 42 77
Width: 1196
VWidth: 2097
Flags: W
LayerCount: 2
Fore
SplineSet
470 1462 m 1
 726 1462 l 1
 711 1181 l 1
 945 1335 l 1
 1073 1112 l 1
 823 987 l 1
 1073 860 l 1
 945 637 l 1
 711 791 l 1
 726 511 l 1
 470 511 l 1
 485 791 l 1
 251 637 l 1
 123 860 l 1
 374 987 l 1
 123 1112 l 1
 251 1335 l 1
 485 1181 l 1
 470 1462 l 1
EndSplineSet
Validated: 1
EndChar

StartChar: numbersign
Encoding: 35 35 78
Width: 1402
VWidth: 2097
Flags: W
HStem: 337 232<6 322 564 840 1082 1398> 839 232<4 322 564 840 1082 1398>
VStem: 322 242<-71 337 569 839 1071 1462> 840 242<-71 337 569 839 1071 1462>
LayerCount: 2
Fore
SplineSet
322 1462 m 1
 564 1462 l 1
 564 1071 l 1
 840 1071 l 1
 840 1462 l 1
 1082 1462 l 1
 1082 1071 l 1
 1398 1071 l 1
 1398 839 l 1
 1082 839 l 1
 1082 569 l 1
 1398 569 l 1
 1398 337 l 1
 1082 337 l 1
 1082 -71 l 1
 840 -71 l 1
 840 337 l 1
 564 337 l 1
 564 -71 l 1
 322 -71 l 1
 322 337 l 1
 6 337 l 1
 6 569 l 1
 322 569 l 1
 322 839 l 1
 4 839 l 1
 4 1071 l 1
 322 1071 l 1
 322 1462 l 1
564 839 m 1
 564 569 l 1
 840 569 l 1
 840 839 l 1
 564 839 l 1
EndSplineSet
Validated: 1
EndChar

StartChar: dollar
Encoding: 36 36 79
Width: 1364
VWidth: 2097
Flags: W
HStem: 212 199<392.18 583 832 868.766> 1064 199<832 1056.41>
VStem: 262 261<917.951 1022.19> 583 249<-65 215.137 1263 1511> 904 264<449.638 571.536>
DStem2: 302 490 227 299 0.933346 -0.358979<0 333.958> 1084 1224 1019 1030 0.965843 -0.259129<-248.388 26.5253>
LayerCount: 2
Fore
SplineSet
523 968 m 0
 523 844 1168 864 1168 543 c 0
 1168 429 1103 269 832 223 c 1
 832 -65 l 1
 583 -65 l 1
 583 212 l 1
 488 217 383 239 264 285 c 2
 227 299 l 1
 302 490 l 1
 341 475 l 1
 466 425 536 411 634 411 c 0
 837 411 904 451 904 525 c 1
 894 655 262 609 262 948 c 0
 262 1051 333 1197 583 1246 c 1
 583 1511 l 1
 832 1511 l 1
 832 1263 l 1
 945 1260 996 1248 1084 1224 c 2
 1125 1213 l 1
 1057 1021 l 1
 1019 1030 l 1
 954 1047 882 1064 766 1064 c 0
 592 1064 523 1009 523 968 c 0
EndSplineSet
Validated: 1
EndChar

StartChar: semicolon
Encoding: 59 59 80
Width: 570
VWidth: 2097
Flags: W
HStem: 742 292<139 431>
VStem: -19 269<-261 8> 139 292<742 1034> 172 269<-58 211>
DStem2: -19 -261 250 -261 0.375112 0.926979<100.905 509.181>
LayerCount: 2
Fore
SplineSet
172 211 m 1x90
 441 211 l 1x90
 250 -261 l 1
 -19 -261 l 1xc0
 172 211 l 1x90
139 1034 m 1xa0
 431 1034 l 1
 431 742 l 1
 139 742 l 1
 139 1034 l 1xa0
EndSplineSet
Validated: 1
EndChar

StartChar: colon
Encoding: 58 58 81
Width: 570
VWidth: 2097
Flags: W
HStem: -41 292<139 431> 742 292<139 431>
VStem: 139 292<-41 251 742 1034>
LayerCount: 2
Fore
SplineSet
139 251 m 1
 431 251 l 1
 431 -41 l 1
 139 -41 l 1
 139 251 l 1
139 1034 m 1
 431 1034 l 1
 431 742 l 1
 139 742 l 1
 139 1034 l 1
EndSplineSet
Validated: 1
EndChar

StartChar: equal
Encoding: 61 61 82
Width: 1400
VWidth: 2097
Flags: W
HStem: 310 232<179 1221> 763 232<179 1221>
LayerCount: 2
Fore
SplineSet
179 542 m 1
 1221 542 l 1
 1221 310 l 1
 179 310 l 1
 179 542 l 1
179 995 m 1
 1221 995 l 1
 1221 763 l 1
 179 763 l 1
 179 995 l 1
EndSplineSet
Validated: 1
EndChar

StartChar: quotedbl
Encoding: 34 34 83
Width: 795
VWidth: 2097
Flags: W
HStem: 1042 510<69 336 459 726>
VStem: 69 267<1042 1552> 459 267<1042 1552>
LayerCount: 2
Fore
SplineSet
459 1552 m 1
 726 1552 l 1
 726 1042 l 1
 459 1042 l 1
 459 1552 l 1
69 1552 m 1
 336 1552 l 1
 336 1042 l 1
 69 1042 l 1
 69 1552 l 1
EndSplineSet
Validated: 1
EndChar

StartChar: quotesingle
Encoding: 39 39 84
Width: 405
VWidth: 2097
Flags: W
HStem: 1042 510<69 336>
VStem: 69 267<1042 1552>
LayerCount: 2
Fore
SplineSet
69 1552 m 1
 336 1552 l 1
 336 1042 l 1
 69 1042 l 1
 69 1552 l 1
EndSplineSet
Validated: 1
EndChar

StartChar: underscore
Encoding: 95 95 85
Width: 1160
VWidth: 2097
Flags: W
HStem: -41 232<109 1051>
LayerCount: 2
Fore
SplineSet
109 191 m 1
 1051 191 l 1
 1051 -41 l 1
 109 -41 l 1
 109 191 l 1
EndSplineSet
Validated: 1
EndChar

StartChar: percent
Encoding: 37 37 86
Width: 1493
VWidth: 2097
Flags: W
HStem: 0 21G<85 372.538> 25 175<1061 1213.7> 486 178<1058.74 1214.65> 765 176<338.262 487.527> 1227 177<332.889 490.823> 1401 20G<1174.45 1461>
VStem: 85 272<0 272> 135 180<959.735 1209.78> 510 198<960.86 1209.31> 841 197<219.679 468.063> 1190 271<1150 1421> 1234 180<218.873 467.64>
DStem2: 85 0 357 0 0.613864 0.789412<166.971 1800.07>
LayerCount: 2
Fore
SplineSet
411 1227 m 0xf9c0
 333 1227 315 1161 315 1094 c 0
 315 1018 333 941 412 941 c 0
 490 941 510 1014 510 1089 c 0
 510 1213 451 1227 411 1227 c 0xf9c0
412 1404 m 0
 534 1404 708 1346 708 1092 c 0
 708 890 578 765 411 765 c 0
 271 765 135 845 135 1093 c 0
 135 1301 269 1404 412 1404 c 0
1136 486 m 0
 1058 486 1038 420 1038 353 c 0
 1038 277 1058 200 1137 200 c 0
 1215 200 1234 273 1234 348 c 0xf0d0
 1234 472 1176 486 1136 486 c 0
1137 664 m 0
 1260 664 1414 601 1414 351 c 0
 1414 148 1295 25 1136 25 c 0
 990 25 841 104 841 352 c 0
 841 560 988 664 1137 664 c 0
1190 1421 m 1xf6e0
 1461 1421 l 1
 357 0 l 1
 85 0 l 1
 1190 1421 l 1xf6e0
EndSplineSet
Validated: 1
EndChar

StartChar: braceright
Encoding: 125 125 87
Width: 828
VWidth: 2097
Flags: HW
LayerCount: 2
Fore
SplineSet
522 1084 m 4
 527 1028 529 972 536 921 c 4
 558 748 648 674 745 658 c 5
 779 653 l 5
 779 445 l 5
 745 440 l 6
 710 434 677 420 648 399 c 4
 522 307 536 142 522 2 c 4
 483 -380 214 -446 119 -453 c 5
 84 -456 l 5
 36 -248 l 5
 81 -242 l 6
 148 -233 205 -191 238 -141 c 4
 349 29 230 356 457 549 c 5
 231 742 351 1068 238 1240 c 4
 205 1290 148 1332 81 1341 c 6
 36 1347 l 5
 84 1555 l 5
 119 1552 l 6
 230 1543 486 1472 522 1084 c 4
EndSplineSet
Validated: 1
EndChar

StartChar: asciitilde
Encoding: 126 126 88
Width: 1400
VWidth: 2097
Flags: W
HStem: 1198 203<815.13 910.875> 1381 203<528.95 625.112>
VStem: 307 190<1219.04 1367.45> 936 188<1408.66 1562.88>
LayerCount: 2
Fore
SplineSet
876 1401 m 0xb0
 912 1401 923 1482 936 1553 c 2
 943 1592 l 1
 1133 1562 l 1
 1124 1520 l 1
 1101 1407 1081 1198 882 1198 c 1xb0
 698 1206 617 1381 564 1381 c 0
 528 1381 516 1301 504 1234 c 2
 497 1195 l 1
 307 1221 l 1
 316 1264 l 2
 339 1377 359 1584 558 1584 c 1x70
 742 1576 824 1401 876 1401 c 0xb0
EndSplineSet
Validated: 1
EndChar

StartChar: grave
Encoding: 96 96 89
Width: 1122
VWidth: 2097
Flags: W
HStem: 1112 531
LayerCount: 2
Fore
SplineSet
331 1643 m 1
 905 1290 l 1
 801 1112 l 1
 218 1448 l 1
 331 1643 l 1
EndSplineSet
Validated: 1
EndChar

StartChar: asciicircum
Encoding: 94 94 90
Width: 1479
VWidth: 2097
Flags: W
HStem: 1108 493
VStem: 384 654
DStem2: 384 1244 534 1109 0.691774 0.722115<6.28057 268.784>
LayerCount: 2
Fore
SplineSet
726 1601 m 1
 1038 1253 l 1
 886 1108 l 1
 712 1302 l 1
 534 1109 l 1
 384 1244 l 1
 726 1601 l 1
EndSplineSet
Validated: 1
EndChar

StartChar: ampersand
Encoding: 38 38 91
Width: 1589
VWidth: 2097
Flags: W
HStem: -88 229<458.286 748.641> 1256 225<563.301 801.043>
VStem: 139 249<212.816 455.197> 261 249<1016.95 1202.21> 833 248<1049.15 1224.18>
DStem2: 639 926 442 775 0.684918 -0.72862<-223.064 -24.9072 217.175 636.25> 1076 461 1226 302 0.667704 0.744427<0 464.042>
LayerCount: 2
Fore
SplineSet
1081 1175 m 0xd8
 1081 995 920 872 788 768 c 1
 1076 461 l 1
 1398 813 l 1
 1548 661 l 1
 1226 302 l 1
 1548 -41 l 1
 1233 -41 l 1
 1055 143 l 1
 949 42 790 -88 536 -88 c 0
 284 -88 139 75 139 282 c 0xe8
 139 534 337 695 442 775 c 1
 352 868 261 973 261 1123 c 0
 261 1338 463 1481 707 1481 c 0
 932 1481 1081 1349 1081 1175 c 0xd8
690 1256 m 0
 588 1256 510 1186 510 1114 c 0xd8
 510 1048 565 1002 639 926 c 1
 762 1020 833 1069 833 1143 c 0
 833 1197 783 1256 690 1256 c 0
597 616 m 1
 485 527 388 446 388 327 c 0xe8
 388 227 472 141 593 141 c 0
 718 141 822 225 902 300 c 1
 597 616 l 1
EndSplineSet
Validated: 1
EndChar

StartChar: less
Encoding: 60 60 92
Width: 1073
VWidth: 2097
Flags: W
HStem: 55 256<758 1014> 948 246<768 1014>
DStem2: 59 724 367 622 0.897228 0.441568<231.306 955.764> 367 622 59 507 0.903873 -0.427802<0 717.852>
LayerCount: 2
Fore
SplineSet
1014 1194 m 1
 1014 948 l 1
 367 622 l 1
 1014 311 l 1
 1014 55 l 1
 59 507 l 1
 59 724 l 1
 1014 1194 l 1
EndSplineSet
Validated: 1
EndChar

StartChar: greater
Encoding: 62 62 93
Width: 1073
VWidth: 2097
Flags: W
HStem: 55 256<59 315> 948 246<59 305>
DStem2: 59 1194 59 948 0.897228 -0.441568<108.626 833.083> 59 311 59 55 0.903873 0.427802<0 717.852>
LayerCount: 2
Fore
SplineSet
59 1194 m 1
 1014 724 l 1
 1014 507 l 1
 59 55 l 1
 59 311 l 1
 706 622 l 1
 59 948 l 1
 59 1194 l 1
EndSplineSet
Validated: 1
EndChar

StartChar: braceleft
Encoding: 123 123 94
Width: 828
VWidth: 2097
Flags: W
LayerCount: 2
Back
SplineSet
90 619 m 5
 204.179 638.202 308.002 725.451 333.354 917.293 c 4
 340.528 971.587 341.964 1026.47 347 1081 c 4
 381.05 1449.63 623.185 1505.27 712 1512 c 5
 742 1383 l 5
 666.611 1372.59 597.735 1326.64 556 1263 c 4
 426.47 1065.48 570.432 724.538 301.727 550.09 c 5
 570.345 376.373 429.108 33.1994 556 -162 c 4
 597.506 -225.849 666.514 -271.942 742 -282 c 5
 712 -411 l 5
 634.734 -404.6 383.387 -353.22 347 7 c 4
 333.433 141.308 348.454 328.573 204.364 433.387 c 4
 170.661 457.903 131.154 474.416 90 481 c 5
 90 619 l 5
  Spiro
    90 619 v
    198.105 662.169 o
    284.438 759.088 o
    333.354 917.293 o
    338.957 971.694 o
    342.822 1026.44 o
    347 1081 o
    436.894 1354.89 o
    585.615 1479.25 o
    712 1512 v
    742 1383 v
    669.615 1361.44 o
    605.96 1320.03 o
    556 1263 o
    492.244 1029.41 o
    458.22 768.307 o
    301.727 550.09 v
    458.766 331.896 o
    493.397 70.5089 o
    556 -162 o
    605.837 -219.203 o
    669.521 -260.639 o
    742 -282 v
    712 -411 v
    591.266 -379.9 o
    440.495 -259.862 o
    347 7 o
    336.026 153.791 o
    302.31 306.249 o
    204.364 433.387 o
    168.917 455.145 o
    130.411 471.191 o
    90 481 v
    0 0 z
  EndSpiro
EndSplineSet
Fore
SplineSet
292 921 m 0
 299 972 301 1028 306 1084 c 0
 342 1474 600 1543 709 1552 c 2
 744 1555 l 1
 792 1347 l 1
 747 1341 l 2
 680 1332 623 1290 590 1240 c 0
 477 1068 597 742 371 549 c 1
 598 356 479 29 590 -141 c 0
 623 -191 680 -233 747 -242 c 2
 792 -248 l 1
 744 -456 l 1
 709 -453 l 1
 614 -446 345 -380 306 2 c 0
 292 142 306 307 180 399 c 0
 151 420 118 434 83 440 c 2
 49 445 l 1
 49 653 l 1
 83 658 l 1
 180 674 269 748 292 921 c 0
EndSplineSet
Validated: 1
EndChar

StartChar: sterling
Encoding: 163 163 95
Width: 1300
VWidth: 2097
Flags: W
HStem: -41 217<111 355 601 1189> 621 217<179 355 601 1131> 1254 218<720.031 1107.64>
VStem: 355 246<176 621 838 1127.36>
LayerCount: 2
Fore
SplineSet
355 176 m 1
 355 621 l 1
 179 621 l 1
 179 838 l 1
 355 838 l 1
 355 938 l 2
 355 1355 635 1472 882 1472 c 0
 969 1472 1053 1456 1129 1432 c 2
 1171 1419 l 1
 1094 1222 l 1
 1058 1231 l 2
 1009 1244 955 1254 904 1254 c 0
 651 1254 601 1100 601 911 c 2
 601 838 l 1
 1131 838 l 1
 1131 621 l 1
 601 621 l 1
 601 176 l 1
 1189 176 l 1
 1189 -41 l 1
 111 -41 l 1
 111 176 l 1
 355 176 l 1
EndSplineSet
Validated: 1
EndChar

StartChar: exclamdown
Encoding: 161 161 96
Width: 650
VWidth: 2097
Flags: W
HStem: 1080 282<184 466>
VStem: 184 282<1080 1362> 199 252<-451 904>
LayerCount: 2
Fore
SplineSet
199 904 m 1xa0
 451 904 l 1
 451 -451 l 1
 199 -451 l 1
 199 904 l 1xa0
184 1362 m 1xc0
 466 1362 l 1
 466 1080 l 1
 184 1080 l 1
 184 1362 l 1xc0
EndSplineSet
Validated: 1
EndChar

StartChar: cent
Encoding: 162 162 97
Width: 1021
VWidth: 2097
Flags: W
HStem: -106 507<506.104 704.327> 190 211<705 879.391> 1060 492<503.302 703.928>
VStem: 109 241<547.844 939.232> 502 203<-106 194 1274.16 1552>
LayerCount: 2
Fore
SplineSet
502 1270 m 1xb8
 502 1552 l 1
 705 1552 l 1
 705 1280 l 1
 792 1272 870 1243 922 1221 c 2
 957 1206 l 1
 892 1011 l 1
 853 1024 l 2
 787 1047 718 1060 649 1060 c 0
 447 1060 350 946 350 747 c 0
 350 459 528 401 669 401 c 0xb8
 727 401 785 412 841 432 c 1
 880 445 l 1
 947 256 l 1
 910 242 l 2
 846 217 777 196 705 190 c 1x78
 705 -106 l 1
 502 -106 l 1
 502 194 l 1
 284 233 109 391 109 713 c 0
 109 1006 248 1216 502 1270 c 1xb8
EndSplineSet
Validated: 1
EndChar

StartChar: currency
Encoding: 164 164 98
Width: 1300
Flags: W
HStem: 355 223<539.909 758.286> 905 223<541.473 758.185>
VStem: 263 228<628.84 853.926> 808 228<628.587 854.094>
DStem2: 310 1265 127 1082 0.707107 -0.707107<0 264.256 955.479 1217.64> 128 402 311 219 0.707107 0.707107<0 262.48 954.263 1217.64>
LayerCount: 2
Fore
SplineSet
816 1090 m 1
 989 1263 l 1
 1172 1080 l 1
 998 907 l 1
 1026 849 1036 792 1036 742 c 0
 1036 685 1024 628 999 576 c 1
 1171 404 l 1
 988 221 l 1
 816 393 l 1
 764 368 707 355 649 355 c 0
 599 355 541 364 484 392 c 1
 311 219 l 1
 128 402 l 1
 301 575 l 1
 273 633 263 691 263 741 c 0
 263 799 276 856 301 908 c 1
 127 1082 l 1
 310 1265 l 1
 485 1090 l 1
 543 1118 600 1128 650 1128 c 0
 707 1128 764 1115 816 1090 c 1
650 905 m 0
 565 905 491 834 491 741 c 0
 491 651 561 578 649 578 c 0
 736 578 808 651 808 741 c 0
 808 834 735 905 650 905 c 0
EndSplineSet
Validated: 1
EndChar

StartChar: yen
Encoding: 165 165 99
Width: 1300
VWidth: 2097
Flags: W
HStem: 208 207<247 522 764 1053> 533 207<247 485 802 1053>
VStem: 72 281<1181 1462> 522 242<-41 208 415 533> 958 271<1191 1462>
DStem2: 353 1462 72 1462 0.496527 -0.868021<0 632.321> 651 904 802 740 0.509051 0.860737<0 636.57>
LayerCount: 2
Fore
SplineSet
72 1462 m 1
 353 1462 l 1
 651 904 l 1
 958 1462 l 1
 1229 1462 l 1
 802 740 l 1
 1053 740 l 1
 1053 533 l 1
 764 533 l 1
 764 415 l 1
 1053 415 l 1
 1053 208 l 1
 764 208 l 1
 764 -41 l 1
 522 -41 l 1
 522 208 l 1
 247 208 l 1
 247 415 l 1
 522 415 l 1
 522 533 l 1
 247 533 l 1
 247 740 l 1
 485 740 l 1
 72 1462 l 1
EndSplineSet
Validated: 1
EndChar

StartChar: brokenbar
Encoding: 166 166 100
Width: 884
VWidth: 2097
Flags: W
VStem: 319 246<-349 501 796 1642>
LayerCount: 2
Fore
SplineSet
319 501 m 1
 565 501 l 1
 565 -349 l 1
 319 -349 l 1
 319 501 l 1
319 1642 m 1
 565 1642 l 1
 565 796 l 1
 319 796 l 1
 319 1642 l 1
EndSplineSet
Validated: 1
EndChar

StartChar: section
Encoding: 167 167 101
Width: 1136
VWidth: 2097
Flags: W
HStem: -61 211<261.787 701.497> 1221 209<657.511 908.213> 1258 217<457.75 911.458>
VStem: 154 261<713.06 822.188 1085.92 1218.08> 745 270<192.897 349.138 603.96 726.857>
DStem2: 182 221 108 22 0.946164 -0.323688<0 329.931>
LayerCount: 2
Fore
SplineSet
933 1430 m 2xd8
 975 1419 l 1
 903 1209 l 1
 865 1221 l 2xd8
 795 1243 706 1258 626 1258 c 0
 502 1258 415 1214 415 1148 c 0
 415 993 1016 1020 1016 682 c 0
 1016 620 999 544 948 477 c 1
 1012 408 1015 337 1015 306 c 0
 1015 158 917 -61 524 -61 c 2
 511 -61 l 2
 436 -61 311 -58 145 7 c 1
 108 22 l 1
 182 221 l 1
 220 208 l 1
 333 168 434 150 510 150 c 0
 686 150 745 204 745 286 c 0
 745 448 154 383 154 752 c 0
 154 807 173 878 225 942 c 1
 176 994 154 1057 154 1127 c 0
 154 1266 270 1475 651 1475 c 0xb8
 791 1475 860 1450 933 1430 c 2xd8
434 823 m 1
 416 801 415 779 415 771 c 0
 415 691 581 657 730 603 c 1
 738 616 745 635 745 662 c 0
 745 747 586 771 434 823 c 1
EndSplineSet
Validated: 1
EndChar

StartChar: copyright
Encoding: 169 169 102
Width: 1760
VWidth: 2097
Flags: W
HStem: -55 214<670.733 1089.44> 278 179<788.305 1107.46> 912 184<778.683 1109.5> 1207 214<669.318 1089.27>
VStem: 129 215<483.078 881.684> 519 197<531.764 845.208> 1416 215<483.255 882.745>
LayerCount: 2
Fore
SplineSet
1124 1049 m 2
 1158 1034 l 1
 1102 873 l 1
 1063 886 l 1
 1016 903 968 912 919 912 c 0
 757 912 716 808 716 694 c 0
 716 571 759 457 932 457 c 0
 973 457 1016 465 1056 479 c 2
 1094 492 l 1
 1151 334 l 1
 1114 320 l 2
 1045 293 970 278 895 278 c 0
 725 278 519 368 519 673 c 0
 519 990 725 1096 906 1096 c 0
 981 1096 1056 1079 1124 1049 c 2
880 1207 m 0
 579 1207 344 965 344 683 c 0
 344 401 579 159 880 159 c 0
 1181 159 1416 401 1416 683 c 0
 1416 965 1181 1207 880 1207 c 0
1631 683 m 0
 1631 285 1302 -55 880 -55 c 0
 459 -55 129 284 129 683 c 0
 129 1075 451 1421 880 1421 c 0
 1301 1421 1631 1081 1631 683 c 0
EndSplineSet
Validated: 1
EndChar

StartChar: guillemotleft
Encoding: 171 171 103
Width: 1078
VWidth: 2097
Flags: W
VStem: 25 267<489.5 756.5> 309 288<217 505 741 1029> 496 267<489.5 756.5> 780 288<217 505 741 1029>
DStem2: 292 623 25 623 0.60063 -0.799527<0 334.819> 763 623 496 623 0.60063 -0.799527<0 334.819>
LayerCount: 2
Fore
SplineSet
780 1029 m 5xb0
 1068 1029 l 5
 763 623 l 5
 1068 217 l 5
 780 217 l 5
 496 623 l 5
 780 1029 l 5xb0
309 1029 m 5xd0
 597 1029 l 5
 292 623 l 5
 597 217 l 5
 309 217 l 5
 25 623 l 5
 309 1029 l 5xd0
EndSplineSet
Validated: 1
EndChar

StartChar: guillemotright
Encoding: 187 187 104
Width: 1078
VWidth: 2097
Flags: W
VStem: 10 288<217 505 741 1029> 315 267<489.5 756.5> 481 288<217 505 741 1029> 786 267<489.5 756.5>
DStem2: 298 1029 10 1029 0.60063 -0.799527<0 334.819> 10 217 298 217 0.60063 0.799527<172.981 507.8> 769 1029 481 1029 0.60063 -0.799527<0 334.819> 481 217 769 217 0.60063 0.799527<172.981 507.8>
LayerCount: 2
Fore
SplineSet
10 1029 m 1xd0
 298 1029 l 1
 582 623 l 1
 298 217 l 1
 10 217 l 1
 315 623 l 1
 10 1029 l 1xd0
481 1029 m 1xb0
 769 1029 l 1
 1053 623 l 1
 769 217 l 1
 481 217 l 1
 786 623 l 1
 481 1029 l 1xb0
EndSplineSet
Validated: 1
EndChar

StartChar: registered
Encoding: 174 174 105
Width: 1232
VWidth: 2097
Flags: W
HStem: 500 161<437.163 794.937> 959 126<545 616> 1215 130<545 710.232> 1425 161<438.931 793.289>
VStem: 65 161<871.424 1216.37> 402 143<751 959 1086 1215> 713 138<1091.29 1208.82> 1006 161<866.771 1215.93>
DStem2: 755 985 616 959 0.453403 -0.891306<0 191.336>
LayerCount: 2
Fore
SplineSet
616 1215 m 2
 545 1215 l 1
 545 1086 l 1
 597 1086 581 1085 611 1085 c 0
 686 1085 713 1103 713 1147 c 0
 713 1200 682 1215 616 1215 c 2
649 1345 m 2
 811 1345 851 1247 851 1158 c 0
 851 1101 832 1024 755 985 c 1
 872 755 l 1
 955 826 1006 930 1006 1043 c 0
 1006 1248 835 1425 616 1425 c 0
 398 1425 226 1250 226 1043 c 0
 226 838 397 661 616 661 c 0
 712 661 800 695 867 751 c 1
 717 751 l 1
 616 959 l 1
 545 959 l 1
 545 751 l 1
 402 751 l 1
 402 1345 l 1
 649 1345 l 2
1167 1043 m 0
 1167 742 917 500 616 500 c 0
 307 500 65 749 65 1043 c 0
 65 1344 315 1586 616 1586 c 0
 917 1586 1167 1344 1167 1043 c 0
EndSplineSet
Validated: 1
EndChar

StartChar: paragraph
Encoding: 182 182 106
Width: 1326
VWidth: 2097
Flags: W
HStem: 1320 232<773 931>
VStem: 89 684<905.734 1310.51> 526 247<-41 651.114> 931 246<-41 1320>
LayerCount: 2
Fore
SplineSet
601 1552 m 6xd0
 1177 1552 l 5
 1177 -41 l 5
 931 -41 l 5
 931 1320 l 5
 773 1320 l 5
 773 -41 l 5
 526 -41 l 5
 526 646 l 5xb0
 339 660 89 770 89 1133 c 4
 89 1542 444 1552 601 1552 c 6xd0
EndSplineSet
Validated: 1
EndChar

StartChar: periodcentered
Encoding: 183 183 107
Width: 590
VWidth: 2097
Flags: W
HStem: 587 292<149 441>
VStem: 149 292<587 879>
LayerCount: 2
Fore
SplineSet
149 879 m 1
 441 879 l 1
 441 587 l 1
 149 587 l 1
 149 879 l 1
EndSplineSet
Validated: 1
EndChar

StartChar: questiondown
Encoding: 191 191 108
Width: 1047
VWidth: 2097
Flags: W
HStem: -182 223<252.618 623.014> 1179 283<298 580>
VStem: 298 282<1179 1462> 313 252<762.038 1029> 698 247<116.21 337.854>
DStem2: 158 122 75 -73 0.926739 -0.375705<0 312.578>
LayerCount: 2
Fore
SplineSet
313 1029 m 1xd8
 565 1029 l 1
 565 988 l 2
 565 512 945 628 945 241 c 0
 945 -6 686 -182 491 -182 c 0
 339 -182 231 -147 110 -90 c 1
 75 -73 l 1
 158 122 l 1
 195 107 l 2
 335 50 411 41 465 41 c 0
 623 41 698 133 698 225 c 0
 698 458 313 394 313 988 c 2
 313 1029 l 1xd8
298 1462 m 1xe8
 580 1462 l 1
 580 1179 l 1
 298 1179 l 1
 298 1462 l 1xe8
EndSplineSet
Validated: 1
EndChar

StartChar: uni00B5
Encoding: 181 181 109
Width: 1187
VWidth: 2097
Flags: W
HStem: -68 221<468.554 762.389>
VStem: 149 246<-451 -25 233.029 1029> 802 246<195.154 1029>
LayerCount: 2
Fore
SplineSet
149 1029 m 1
 395 1029 l 1
 395 430 l 2
 395 250 458 153 597 153 c 0
 640 153 691 162 802 215 c 1
 802 1029 l 1
 1048 1029 l 1
 1048 -41 l 1
 865 -41 l 1
 844 8 l 1
 767 -34 667 -68 570 -68 c 0
 514 -68 452 -55 395 -25 c 1
 395 -451 l 1
 149 -451 l 1
 149 1029 l 1
EndSplineSet
Validated: 1
EndChar

StartChar: uni00AD
Encoding: 173 173 110
Width: 1074
VWidth: 2097
Flags: W
HStem: 548 221<179 895>
LayerCount: 2
Fore
SplineSet
179 769 m 1
 895 769 l 1
 895 548 l 1
 179 548 l 1
 179 769 l 1
EndSplineSet
Validated: 1
EndChar

StartChar: plusminus
Encoding: 177 177 111
Width: 1400
VWidth: 2097
Flags: W
HStem: 109 219<179 1221> 831 219<179 586 814 1221>
VStem: 586 228<420 831 1050 1462>
LayerCount: 2
Fore
SplineSet
179 328 m 1
 1221 328 l 1
 1221 109 l 1
 179 109 l 1
 179 328 l 1
586 1462 m 1
 814 1462 l 1
 814 1050 l 1
 1221 1050 l 1
 1221 831 l 1
 814 831 l 1
 814 420 l 1
 586 420 l 1
 586 831 l 1
 179 831 l 1
 179 1050 l 1
 586 1050 l 1
 586 1462 l 1
EndSplineSet
Validated: 1
EndChar

StartChar: ae
Encoding: 230 230 112
Width: 1838
VWidth: 0
Flags: W
HStem: -20 213<417.674 713.67 1165.98 1580.42> 39 189<1455.1 1612.34> 395 206<1031 1467> 436 159<424.953 753> 755 191<240.368 395.105> 782 224<1118.93 1399.53> 804 202<261.759 687.837>
VStem: 123 245<240.958 386.272>
LayerCount: 2
Fore
SplineSet
368 315 m 0x91
 368 253 457 193 561 193 c 0
 636 193 704 222 753 265 c 1
 753 436 l 1
 400 431 368 372 368 315 c 0x91
1272 782 m 0x25
 1134 782 1047 700 1031 601 c 1
 1467 601 l 1
 1459 686 1416 782 1272 782 c 0x25
213 946 m 2x09
 344 991 484 1006 578 1006 c 0x03
 763 1006 868 936 926 860 c 1
 1023 947 1157 1006 1302 1006 c 0
 1656 1006 1707 691 1707 436 c 2x15
 1707 395 l 1
 1023 395 l 1
 1046 281 1184 194 1369 194 c 0
 1446 194 1527 215 1570 228 c 2
 1612 241 l 1
 1657 51 l 1
 1623 39 l 1x61
 1506 -4 1385 -20 1301 -20 c 0
 1158 -20 1010 19 904 111 c 1
 809 20 677 -20 526 -20 c 0
 314 -20 123 105 123 283 c 0
 123 439 259 561 532 586 c 0
 600 592 691 594 753 595 c 1
 753 604 l 2
 753 703 708 804 532 804 c 0x93
 480 804 412 798 279 765 c 1
 242 755 l 1
 175 933 l 1
 213 946 l 2x09
EndSplineSet
Validated: 1
EndChar

StartChar: germandbls
Encoding: 223 223 113
Width: 1422
VWidth: 2097
Flags: W
HStem: -26 214<562.863 1028.82> 0 21G<200 446> 1201 229<520.408 770.716>
VStem: 200 246<0 1130.31> 832 272<987.359 1141.14> 1046 256<211.07 358.493>
LayerCount: 2
Fore
SplineSet
664 1430 m 0x78
 961 1430 1104 1223 1104 1060 c 0x78
 1104 828 811 782 811 698 c 0
 811 573 1302 634 1302 279 c 0
 1302 158 1219 -26 910 -26 c 0
 818 -26 683 -12 545 23 c 1
 500 34 l 1
 560 226 l 1
 603 218 l 1
 701 201 796 188 871 188 c 0
 1009 188 1046 225 1046 289 c 0xb4
 1046 471 528 380 528 698 c 0
 528 916 832 943 832 1050 c 0
 832 1141 729 1201 644 1201 c 0
 601 1201 446 1182 446 981 c 2
 446 0 l 1
 200 0 l 1
 200 982 l 2
 200 1302 431 1430 664 1430 c 0x78
EndSplineSet
Validated: 1
EndChar

StartChar: multiply
Encoding: 215 215 114
Width: 1463
VWidth: 2097
Flags: W
DStem2: 182 328 346 165 0.770894 0.636964<22.6015 493.652 785.517 1255.8> 353 1134 190 971 0.760776 -0.649015<0 463.682 770.881 1234.45>
LayerCount: 2
Fore
SplineSet
346 165 m 1
 182 328 l 1
 553 654 l 1
 190 971 l 1
 353 1134 l 1
 756 802 l 1
 1150 1128 l 1
 1313 964 l 1
 944 639 l 1
 1306 321 l 1
 1143 158 l 1
 740 490 l 1
 346 165 l 1
EndSplineSet
Validated: 1
EndChar

StartChar: divide
Encoding: 247 247 115
Width: 1564
VWidth: 2097
Flags: W
HStem: 83 277<628 935> 547 221<125 1439> 956 277<628 935>
VStem: 628 307<83 360 956 1233>
LayerCount: 2
Fore
SplineSet
628 1233 m 1
 935 1233 l 1
 935 956 l 1
 628 956 l 1
 628 1233 l 1
628 360 m 1
 935 360 l 1
 935 83 l 1
 628 83 l 1
 628 360 l 1
125 768 m 1
 1439 768 l 1
 1439 547 l 1
 125 547 l 1
 125 768 l 1
EndSplineSet
Validated: 1
EndChar

StartChar: oslash
Encoding: 248 248 116
Width: 1375
VWidth: 2097
Flags: W
HStem: -20 222<551.152 868.866> 785 222<508.332 852.782>
VStem: 130 242<347.304 653.449> 1003 242<335.058 613.985>
DStem2: 122 64 230 -55 0.743225 0.669042<0.652249 153.539 429.013 1000.55 1254.64 1428.82>
LayerCount: 2
Back
SplineSet
1180 1012 m 1
 1297 907 l 1
 1183 798 l 1
 1234 721 1262 625 1262 513 c 0
 1262 184 1037 -20 693 -20 c 0
 557 -20 434 15 339 82 c 1
 227 -32 l 1
 110 73 l 1
 230 187 l 1
 176 267 147 367 147 483 c 0
 147 804 364 1007 711 1007 c 0
 849 1007 977 972 1074 903 c 1
 1180 1012 l 1
695 785 m 0
 549 785 394 682 394 470 c 0
 394 413 404 360 424 313 c 1
 880 726 l 1
 824 766 759 785 695 785 c 0
1016 522 m 0
 1016 580 1005 630 988 672 c 1
 531 259 l 1
 581 223 643 202 713 202 c 0
 880 202 1016 325 1016 522 c 0
EndSplineSet
Fore
SplineSet
1184 1020 m 1
 1291 901 l 1
 1168 790 l 1
 1217 715 1245 622 1245 512 c 0
 1245 183 1021 -20 675 -20 c 0
 550 -20 442 7 355 58 c 1
 230 -55 l 1
 122 64 l 1
 233 163 l 1
 167 245 130 354 130 484 c 0
 130 805 346 1007 694 1007 c 0
 837 1007 963 972 1057 905 c 1
 1184 1020 l 1
678 785 m 0
 530 785 372 695 372 509 c 0
 372 445 390 385 424 336 c 1
 866 733 l 1
 810 768 742 785 678 785 c 0
974 615 m 1
 548 232 l 1
 591 213 641 202 696 202 c 0
 866 202 1003 310 1003 483 c 0
 1003 534 992 577 974 615 c 1
EndSplineSet
Validated: 1
EndChar

StartChar: OE
Encoding: 338 338 118
Width: 2162
VWidth: 2097
Flags: W
HStem: 0 232<736.577 1090 1359 2002> 616 232<1359 1947> 1189 232<747.554 1090 1359 2002>
VStem: 215 252<492.269 920.986> 1090 269<232 616 848 1189>
LayerCount: 2
Fore
SplineSet
1090 232 m 1
 1090 1189 l 1
 1073 1189 l 2
 1006 1189 941 1188 879 1180 c 0
 617 1144 467 968 467 702 c 0
 467 439 627 321 742 273 c 0
 832 235 909 232 999 232 c 2
 1090 232 l 1
402 1223 m 1
 606 1415 904 1421 1146 1421 c 2
 2002 1421 l 1
 2002 1189 l 1
 1359 1189 l 1
 1359 848 l 1
 1947 848 l 1
 1947 616 l 1
 1359 616 l 1
 1359 232 l 1
 2002 232 l 1
 2002 0 l 1
 1051 0 l 2
 907 0 755 5 614 58 c 0
 374 150 215 361 215 703 c 0
 215 1015 342 1164 402 1223 c 1
EndSplineSet
Validated: 1
EndChar

StartChar: oe
Encoding: 339 339 119
Width: 1967
VWidth: 0
Flags: W
HStem: -23 196<1292.88 1713.42> -20 220<506.569 801.632> 366 206<1163 1597> 780 222<487.748 785.499> 814 183<1264.42 1520.79>
VStem: 130 242<334.921 661.984> 907 930<367.255 569.696> 1597 240<572 735.77>
LayerCount: 2
Fore
SplineSet
907 476 m 0x76
 907 697 761 780 636 780 c 0
 478 780 372 663 372 501 c 0
 372 335 485 200 654 200 c 0
 787 200 907 289 907 476 c 0x76
1397 814 m 0x2d
 1254 814 1177 698 1163 572 c 1
 1597 572 l 1
 1588 756 1510 814 1397 814 c 0x2d
1433 997 m 0
 1813 997 1837 692 1837 476 c 2x2e
 1837 366 l 1
 1161 366 l 1
 1183 275 1288 173 1497 173 c 0
 1539 173 1605 178 1700 203 c 2
 1742 214 l 1
 1787 46 l 1
 1753 35 l 1
 1669 4 1559 -23 1428 -23 c 0xad
 1217 -23 1092 52 1020 133 c 1
 926 34 792 -20 634 -20 c 0
 327 -20 130 177 130 486 c 0
 130 802 335 1002 654 1002 c 0x75
 827 1002 961 940 1048 835 c 1
 1178 979 1351 997 1433 997 c 0
EndSplineSet
Validated: 1
EndChar

StartChar: AE
Encoding: 198 198 120
Width: 2079
VWidth: 2097
Flags: W
HStem: 0 232<1295 1938> 373 230<647 1027> 616 232<1295 1883> 1189 232<905 1027 1295 1938>
VStem: 130 250<0 250> 1027 268<232 373 603 616 848 1189>
DStem2: 130 0 380 0 0.394466 0.918911<98.6164 508.824 758.042 758.042>
LayerCount: 2
Fore
SplineSet
905 1189 m 1
 647 603 l 1
 1027 603 l 1
 1027 1189 l 1
 905 1189 l 1
740 1421 m 1
 1938 1421 l 1
 1938 1189 l 1
 1295 1189 l 1
 1295 848 l 1
 1883 848 l 1
 1883 616 l 1
 1295 616 l 1
 1295 232 l 1
 1938 232 l 1
 1938 0 l 1
 1027 0 l 1
 1027 373 l 1
 551 373 l 1
 380 0 l 1
 130 0 l 1
 740 1421 l 1
EndSplineSet
Validated: 1
EndChar

StartChar: onequarter
Encoding: 188 188 121
Width: 1800
VWidth: 0
Flags: W
HStem: 170 160<1219 1390 1573 1680>
VStem: 295 183<593 1258> 316 233<-25 208> 1166 232<1214 1446> 1390 183<-25 170 330 601>
DStem2: 316 -25 549 -25 0.500317 0.865842<116.574 1698.92> 1000 292 1219 330 0.553348 0.83295<152.835 473.187>
LayerCount: 2
Fore
SplineSet
1166 1446 m 1xb0
 1398 1446 l 1
 549 -25 l 1
 316 -25 l 1
 1166 1446 l 1xb0
338 1446 m 1
 478 1446 l 1
 478 593 l 1
 295 593 l 1
 295 1258 l 1xc0
 162 1221 l 1
 120 1387 l 1
 338 1446 l 1
1378 861 m 1
 1573 861 l 1
 1573 330 l 1
 1680 330 l 1
 1680 170 l 1
 1573 170 l 1
 1573 -25 l 1
 1390 -25 l 1
 1390 170 l 1x88
 1000 170 l 1
 1000 292 l 1
 1378 861 l 1
1390 601 m 1
 1219 330 l 1
 1390 330 l 1
 1390 601 l 1
EndSplineSet
Validated: 1
EndChar

StartChar: onehalf
Encoding: 189 189 122
Width: 1897
VWidth: 0
Flags: W
HStem: -25 166<1398 1762> 703 164<1262.69 1543>
VStem: 295 183<583 1258> 316 233<-25 208> 1166 232<1214 1446> 1568 194<536.733 677.143>
DStem2: 316 -25 549 -25 0.500317 0.865842<116.574 1698.92> 1177 796 1239 650 0.931243 0.364399<-20.1634 203.773>
LayerCount: 2
Back
SplineSet
341 1421 m 5
 453 1421 l 5
 453 608 l 5
 320 608 l 5
 320 1291 l 5xf6
 180 1252 l 5
 150 1369 l 5
 341 1421 l 5
209.37 1384.94 m 1
 269.895 1414.56 354.763 1449.55 451.692 1449.55 c 0
 594.526 1449.55 703.593 1365.38 703.593 1248.25 c 0xf960
 703.593 1174.01 666.949 1109.79 609.707 1073.15 c 1
 704.028 1034.22 737.692 959.235 737.692 881.95 c 0
 737.692 713.489 600.513 602.601 418.745 601.45 c 1
 416.492 601.45 l 2
 327.678 601.45 256.558 625.139 194.458 650.363 c 1
 231.084 755.665 l 1
 330.122 728.346 372.918 721.35 419.793 721.35 c 0
 521.652 721.35 610.093 777.67 610.093 862.15 c 0xf8e0
 610.093 918.029 565.872 1001.85 388.992 1001.85 c 2
 361.492 1001.85 l 1
 361.492 1114.73 l 1
 545.224 1119.53 577.093 1185.6 577.093 1232.85 c 0
 577.093 1283.03 528.292 1331.85 439.593 1331.85 c 0xf960
 360.592 1331.85 288.647 1297.65 252.768 1281.1 c 1
 209.37 1384.94 l 1
EndSplineSet
Fore
SplineSet
1166 1446 m 1xdc
 1398 1446 l 1
 549 -25 l 1
 316 -25 l 1
 1166 1446 l 1xdc
338 1446 m 1
 478 1446 l 1
 478 583 l 1
 295 583 l 1
 295 1258 l 1xec
 162 1221 l 1
 120 1387 l 1
 338 1446 l 1
1181 76 m 5
 1284 407 1568 514 1568 608 c 4
 1568 650 1517 703 1434 703 c 4
 1396 703 1349 694 1239 650 c 6
 1216 641 l 5
 1156 785 l 5
 1177 796 l 5
 1242 827 1335 867 1452 867 c 4
 1616 867 1748 770 1748 624 c 4
 1748 418 1504 349 1398 141 c 5
 1762 141 l 5
 1762 -25 l 5
 1181 -25 l 5
 1181 76 l 5
EndSplineSet
Validated: 1
EndChar

StartChar: threequarters
Encoding: 190 190 123
Width: 1950
VWidth: 0
Flags: W
HStem: 170 160<1369 1540 1723 1830> 576 170<207.873 548.02> 636 150<210.03 290> 977 163<336 529.566> 1307 168<274.708 542.031>
VStem: 476 233<-25 208> 552 176<1167.3 1291.91> 585 178<783.542 941.994> 1326 232<1214 1446> 1540 183<-25 170 330 601>
DStem2: 476 -25 709 -25 0.500317 0.865842<116.574 1698.92> 1150 292 1369 330 0.553348 0.83295<152.835 473.187>
LayerCount: 2
Fore
SplineSet
1326 1446 m 1x9c80
 1558 1446 l 1
 709 -25 l 1
 476 -25 l 1
 1326 1446 l 1x9c80
1528 861 m 1
 1723 861 l 1
 1723 330 l 1
 1830 330 l 1
 1830 170 l 1
 1723 170 l 1
 1723 -25 l 1
 1540 -25 l 1
 1540 170 l 1x9840
 1150 170 l 1
 1150 292 l 1
 1528 861 l 1
1540 601 m 1
 1369 330 l 1
 1540 330 l 1
 1540 601 l 1
452 1475 m 0
 606 1475 728 1382 728 1248 c 0xda
 728 1180 700 1120 656 1078 c 1
 732 1032 763 958 763 882 c 0
 763 698 612 576 416 576 c 0xd9
 323 576 250 601 185 627 c 2
 163 636 l 1
 215 786 l 1xb9
 238 780 l 1
 337 753 376 746 420 746 c 0
 507 746 585 792 585 862 c 0xd9
 585 938 521 977 361 977 c 2
 336 977 l 1
 336 1140 l 1
 361 1140 l 2
 450 1140 552 1159 552 1233 c 0xda
 552 1266 519 1307 440 1307 c 0
 369 1307 305 1277 264 1258 c 2
 240 1247 l 1
 177 1397 l 1
 198 1407 l 2
 261 1438 350 1475 452 1475 c 0
EndSplineSet
Validated: 1
EndChar

StartChar: degree
Encoding: 176 176 124
Width: 589
Flags: W
HStem: 969 173<221.687 366.772> 1327 173<220.744 366.259>
VStem: 34 172<1154.6 1314.15> 381 174<1154.78 1314.97>
LayerCount: 2
Fore
SplineSet
295 1327 m 0
 244 1327 206 1285 206 1235 c 0
 206 1186 242 1142 295 1142 c 0
 343 1142 381 1186 381 1235 c 0
 381 1284 344 1327 295 1327 c 0
555 1235 m 0
 555 1088 438 969 295 969 c 0
 153 969 34 1087 34 1235 c 0
 34 1381 151 1500 294 1500 c 0
 436 1500 555 1383 555 1235 c 0
EndSplineSet
Validated: 1
EndChar

StartChar: ccedilla
Encoding: 231 231 125
Width: 1165
VWidth: 2097
Flags: W
HStem: -498 177<454.471 746.448> -434 170<399.109 526.984> 776 223<516.144 981.731>
VStem: 130 256<330.742 651.99> 752 191<-316.413 -247.752>
LayerCount: 2
Back
SplineSet
679 -335 m 0
 679 -262 596 -250 450 -205 c 1
 501 -14 l 1
 319 14 130 134 130 471 c 0
 130 875 380 1006 609 1006 c 0
 704 1006 799 985 886 947 c 1
 846 827 l 1
 776 851 703 865 629 865 c 0
 467 865 289 793 289 506 c 0
 289 193 474 115 647 115 c 0
 711 115 775 127 835 148 c 1
 875 35 l 1
 785 0 699 -15 627 -19 c 1
 595 -145 l 1
 641 -159 779 -188.136 779 -324.136 c 0
 779 -410.136 708 -507.136 575 -507.136 c 0
 501 -507.136 401 -472.136 347 -456.136 c 1
 373 -365.136 l 1
 493 -401.136 538 -412.136 579 -412.136 c 0
 643 -412.136 679 -375 679 -335 c 0
EndSplineSet
Fore
SplineSet
681 -321 m 0xb8
 726 -320 752 -303 752 -284 c 0
 752 -248 675 -236 514 -194 c 1
 469 -183 l 1
 524 -11 l 1
 311 29 130 157 130 466 c 0
 130 867 428 999 717 999 c 0
 833 999 933 977 1025 937 c 2
 1060 922 l 1
 995 727 l 1
 956 740 l 2
 890 763 821 776 741 776 c 0
 563 776 386 720 386 497 c 0
 386 275 537 190 762 190 c 0
 829 190 888 201 944 221 c 1
 983 234 l 1
 1050 45 l 1
 1013 31 l 2
 929 -1 849 -18 772 -24 c 1
 759 -67 l 1
 832 -88 943 -138 943 -274 c 0
 943 -382 854 -498 677 -498 c 0xb8
 588 -498 496 -471 393 -445 c 1
 346 -434 l 1
 404 -264 l 1x78
 451 -276 l 2
 589 -311 640 -321 678 -321 c 0
 679 -321 680 -321 681 -321 c 0xb8
EndSplineSet
Validated: 1
EndChar

StartChar: cedilla
Encoding: 184 184 126
Width: 1101
VWidth: 0
Flags: W
HStem: -538 177<424.992 676.384>
VStem: 677 182<-359.97 -283.653>
DStem2: 424 -316 374 -485 0.957826 -0.287348<-39.8456 197.161>
LayerCount: 2
Fore
SplineSet
618 -361 m 0
 665 -361 677 -339 677 -324 c 0
 677 -288 615 -276 477 -234 c 1
 439 -223 l 1
 516 63 l 1
 727 63 l 1
 684 -107 l 1
 748 -128 859 -178 859 -314 c 0
 859 -422 770 -538 614 -538 c 0
 539 -538 461 -511 374 -485 c 1
 335 -474 l 1
 384 -304 l 1
 424 -316 l 2
 529 -348 583 -361 618 -361 c 0
EndSplineSet
Validated: 1
EndChar

StartChar: Ccedilla
Encoding: 199 199 127
Width: 1615
VWidth: 0
Flags: W
HStem: -506 189<774.842 1039.11> -440 183<712.378 826.908> -20 238<1079 1388.42> 1199 232<848.97 1363.58>
VStem: 275 260<518.21 899.447>
DStem2: 1510 1352 1430 1134 0.946164 -0.323688<-333.214 35.033> 1448 276 1530 73 0.94346 0.331486<-299.335 39.2173>
LayerCount: 2
Back
SplineSet
1097.58 -315.784 m 0
 1097.58 -412.912 1016.21 -505.817 885.608 -505.817 c 0
 832.05 -505.817 797.986 -496.673 682.5 -462.706 c 2
 648.5 -452.706 l 1
 678.5 -348.706 l 1
 708.5 -357.706 l 2
 817.019 -389.693 856.083 -398.76 892.979 -398.76 c 0
 952.768 -398.76 985.135 -364.591 985.135 -328.141 c 0
 985.135 -265.58 905.118 -246.979 887.5 -241.706 c 2
 750.5 -200.706 l 1
 804.979 -2.12062 l 1
 471.326 71.2018 275 361.47 275 709 c 0
 275 1118 548 1431 986 1431 c 0
 1092 1431 1228 1412 1372 1355 c 1
 1320 1214 l 1
 1158 1270 1049 1281 981 1281 c 0
 650 1281 445 1007 445 710 c 0
 445 399 666 136 1018 136 c 0
 1114 136 1225 155 1339 196 c 1
 1391 70 l 1
 1247 8 1100 -20 975 -20 c 0
 965.479 -20 956.04 -19.8445 946.683 -19.5362 c 1
 917.516 -134.911 l 1
 937.638 -140.947 1097.58 -171.085 1097.58 -315.784 c 0
EndSplineSet
Fore
SplineSet
983 -317 m 0xb8
 1032 -317 1041 -296 1041 -286 c 0
 1041 -255 964 -238 814 -199 c 2
 771 -188 l 1
 831 9 l 1
 468 96 275 378 275 710 c 0
 275 1120 580 1431 1087 1431 c 0
 1209 1431 1360 1411 1510 1352 c 1
 1547 1337 l 1
 1468 1121 l 1
 1430 1134 l 2
 1267 1189 1152 1199 1082 1199 c 0
 744 1199 535 965 535 710 c 0
 535 445 758 218 1122 218 c 0
 1222 218 1338 237 1448 276 c 2
 1485 289 l 1
 1567 89 l 1
 1530 73 l 2
 1382 9 1221 -19 1079 -20 c 1
 1067 -66 l 1
 1135 -87 1256 -140 1256 -275 c 0
 1256 -395 1145 -506 977 -506 c 0xb8
 922 -506 902 -505 701 -451 c 1
 658 -440 l 1
 717 -257 l 1x78
 760 -269 l 2
 861 -297 935 -317 983 -317 c 0xb8
EndSplineSet
Validated: 1
EndChar

StartChar: dieresis
Encoding: 168 168 128
Width: 1200
VWidth: 0
Flags: W
HStem: 1194 268<242 509 691 958>
VStem: 242 267<1194 1462> 691 267<1194 1462>
LayerCount: 2
Fore
SplineSet
242 1462 m 1
 509 1462 l 1
 509 1194 l 1
 242 1194 l 1
 242 1462 l 1
691 1462 m 1
 958 1462 l 1
 958 1194 l 1
 691 1194 l 1
 691 1462 l 1
EndSplineSet
Validated: 1
EndChar

StartChar: Adieresis
Encoding: 196 196 129
Width: 1547
VWidth: 0
Flags: W
HStem: 0 21G<130 382.548 1263.45 1531> 372 231<620 1025> 1401 20G<685.076 976.91> 1630 267<439 733 932 1226>
VStem: 130 244<0 244> 439 294<1630 1897> 932 294<1630 1897> 1272 259<0 259>
DStem2: 130 0 374 0 0.368343 0.92969<89.8757 494.287 741.091 1305.81> 969 1421 823 1130 0.367777 -0.929914<216.909 781.265 1028.44 1432.84>
LayerCount: 2
Fore
SplineSet
693 1421 m 1
 969 1421 l 1
 1531 0 l 1
 1272 0 l 1
 1113 372 l 1
 533 372 l 1
 374 0 l 1
 130 0 l 1
 693 1421 l 1
1025 603 m 1
 823 1130 l 1
 620 603 l 1
 1025 603 l 1
439 1897 m 1
 733 1897 l 1
 733 1630 l 1
 439 1630 l 1
 439 1897 l 1
932 1897 m 1
 1226 1897 l 1
 1226 1630 l 1
 932 1630 l 1
 932 1897 l 1
EndSplineSet
Validated: 1
EndChar

StartChar: Edieresis
Encoding: 203 203 130
Width: 1447
VWidth: 2097
Flags: W
HStem: 0 232<543 1287> 616 232<543 1232> 1189 232<543 1287> 1631 267<390 680 897 1187>
VStem: 290 253<232 616 848 1189> 390 290<1631 1898> 897 290<1631 1898>
LayerCount: 2
Fore
SplineSet
290 1421 m 1xfa
 1287 1421 l 1
 1287 1189 l 1
 543 1189 l 1
 543 848 l 1
 1232 848 l 1
 1232 616 l 1
 543 616 l 1
 543 232 l 1
 1287 232 l 1
 1287 0 l 1
 290 0 l 1
 290 1421 l 1xfa
390 1898 m 1xf6
 680 1898 l 1
 680 1631 l 1
 390 1631 l 1
 390 1898 l 1xf6
897 1898 m 1
 1187 1898 l 1
 1187 1631 l 1
 897 1631 l 1
 897 1898 l 1
EndSplineSet
Validated: 1
EndChar

StartChar: Idieresis
Encoding: 207 207 131
Width: 752
VWidth: 0
Flags: W
HStem: 0 21G<290 542> 1401 20G<290 542> 1557 267<88 355 477 744>
VStem: 88 267<1557 1824> 290 252<0 1421> 477 267<1557 1824>
LayerCount: 2
Fore
SplineSet
290 1421 m 1xe8
 542 1421 l 1
 542 0 l 1
 290 0 l 1
 290 1421 l 1xe8
88 1824 m 1xf0
 355 1824 l 1
 355 1557 l 1
 88 1557 l 1
 88 1824 l 1xf0
477 1824 m 1xe4
 744 1824 l 1
 744 1557 l 1
 477 1557 l 1
 477 1824 l 1xe4
EndSplineSet
Validated: 1
EndChar

StartChar: Odieresis
Encoding: 214 214 132
Width: 1850
VWidth: 0
Flags: W
HStem: -15 231<759.312 1181.63> 1205 231<746.505 1167.44> 1631 267<586 877 1075 1366>
VStem: 215 258<509.785 941.479> 586 291<1631 1898> 1075 291<1631 1898> 1457 258<489.506 920.859>
LayerCount: 2
Fore
SplineSet
966 1436 m 0
 1400 1436 1715 1165 1715 726 c 0
 1715 285 1408 -15 958 -15 c 0
 572 -15 215 223 215 707 c 0
 215 1152 526 1436 966 1436 c 0
1457 709 m 0
 1457 1060 1190 1205 953 1205 c 0
 727 1205 473 1063 473 727 c 0
 473 411 695 216 973 216 c 0
 1202 216 1457 361 1457 709 c 0
586 1898 m 1
 877 1898 l 1
 877 1631 l 1
 586 1631 l 1
 586 1898 l 1
1075 1898 m 1
 1366 1898 l 1
 1366 1631 l 1
 1075 1631 l 1
 1075 1898 l 1
EndSplineSet
Validated: 1
EndChar

StartChar: Udieresis
Encoding: 220 220 133
Width: 1744
VWidth: 0
Flags: W
HStem: -20 229<683.415 1138.43> 1401 20G<290 542 1282 1534> 1631 267<513 810 1014 1311>
VStem: 290 252<342.979 1421> 513 297<1631 1898> 1014 297<1631 1898> 1282 252<342.119 1421>
LayerCount: 2
Fore
SplineSet
290 1421 m 1xf2
 542 1421 l 1
 542 520 l 2
 542 366 594 209 912 209 c 0
 1208 209 1282 345 1282 520 c 2
 1282 1421 l 1
 1534 1421 l 1
 1534 495 l 2
 1534 348 1528 -20 904 -20 c 0
 296 -20 290 350 290 495 c 2
 290 1421 l 1xf2
513 1898 m 1xe8
 810 1898 l 1
 810 1631 l 1
 513 1631 l 1
 513 1898 l 1xe8
1014 1898 m 1xe4
 1311 1898 l 1
 1311 1631 l 1
 1014 1631 l 1
 1014 1898 l 1xe4
EndSplineSet
Validated: 1
EndChar

StartChar: adieresis
Encoding: 228 228 134
Width: 1233
VWidth: 0
Flags: W
HStem: -20 211<408.727 761.005> 0 21G<860.385 1053> 396 185<414.336 805> 789 217<266.606 750.402> 1153 268<259 562 785 1057>
VStem: 123 246<235.501 349.442> 259 303<1153 1421> 785 272<1153 1421> 805 248<229.777 396 581 732.158>
LayerCount: 2
Fore
SplineSet
785 1421 m 1x39
 1057 1421 l 1
 1057 1153 l 1
 785 1153 l 1
 785 1421 l 1x39
259 1421 m 1x3a
 562 1421 l 1
 562 1153 l 1
 259 1153 l 1
 259 1421 l 1x3a
805 255 m 1xbc80
 805 396 l 1
 780 396 l 2
 511 396 369 369 369 291 c 0
 369 245 456 191 581 191 c 0
 603 191 710 192 805 255 c 1xbc80
589 1006 m 0
 970 1006 1053 837 1053 644 c 2
 1053 0 l 1
 869 0 l 1x7c80
 841 65 l 1
 761 15 650 -20 527 -20 c 0
 282 -20 123 122 123 273 c 0
 123 526 435 577 805 581 c 1
 805 616 l 2
 805 698 789 789 557 789 c 0
 495 789 397 779 269 745 c 1
 229 734 l 1
 178 931 l 1
 213 943 l 1
 339 990 476 1006 589 1006 c 0
EndSplineSet
Validated: 1
EndChar

StartChar: edieresis
Encoding: 235 235 135
Width: 1266
VWidth: 0
Flags: W
HStem: -20 213<525.361 1015.47> 37 190<868.866 1041.64> 376 206<382 894> 783 224<489.651 821.21> 1153 268<295 597 814 1093>
VStem: 295 302<1153 1421> 814 279<1153 1421>
LayerCount: 2
Fore
SplineSet
697 1007 m 0xbe
 1117 1007 1136 696 1136 488 c 2
 1136 376 l 1
 382 376 l 1
 407 288 532 193 767 193 c 0xbe
 861 193 945 211 1000 227 c 2
 1041 239 l 1
 1090 49 l 1
 1054 37 l 2x7e
 966 7 845 -20 694 -20 c 0
 243 -20 130 235 130 464 c 0
 130 843 398 1007 697 1007 c 0xbe
656 783 m 0
 489 783 396 688 380 582 c 1
 894 582 l 1
 883 734 791 783 656 783 c 0
295 1421 m 1
 597 1421 l 1
 597 1153 l 1
 295 1153 l 1
 295 1421 l 1
814 1421 m 1
 1093 1421 l 1
 1093 1153 l 1
 814 1153 l 1
 814 1421 l 1
EndSplineSet
Validated: 1
EndChar

StartChar: idieresis
Encoding: 239 239 136
Width: 606
VWidth: 0
Flags: W
HStem: 0 21G<180 426> 968 20G<180 426> 1154 267<-15 252 354 621>
VStem: -15 267<1154 1421> 180 246<0 988> 354 267<1154 1421>
LayerCount: 2
Fore
SplineSet
180 988 m 1xe8
 426 988 l 1
 426 0 l 1
 180 0 l 1
 180 988 l 1xe8
-15 1421 m 1xf0
 252 1421 l 1
 252 1154 l 1
 -15 1154 l 1
 -15 1421 l 1xf0
354 1421 m 1xe4
 621 1421 l 1
 621 1154 l 1
 354 1154 l 1
 354 1421 l 1xe4
EndSplineSet
Validated: 1
EndChar

StartChar: odieresis
Encoding: 246 246 137
Width: 1375
VWidth: 0
Flags: W
HStem: -20 222<525.323 868.866> 785 222<508.332 849.803> 1153 268<319 618 827 1117>
VStem: 130 242<354.029 653.449> 319 299<1153 1421> 827 290<1153 1421> 1003 242<335.058 640.5>
LayerCount: 2
Fore
SplineSet
694 1007 m 0xf2
 1016 1007 1245 831 1245 512 c 0
 1245 183 1021 -20 675 -20 c 0
 347 -20 130 168 130 484 c 0
 130 805 346 1007 694 1007 c 0xf2
678 785 m 0
 530 785 372 695 372 509 c 0
 372 339 501 202 696 202 c 0
 866 202 1003 310 1003 483 c 0
 1003 686 832 785 678 785 c 0
319 1421 m 1xe8
 618 1421 l 1
 618 1153 l 1
 319 1153 l 1
 319 1421 l 1xe8
827 1421 m 1xe4
 1117 1421 l 1
 1117 1153 l 1
 827 1153 l 1
 827 1421 l 1xe4
EndSplineSet
Validated: 1
EndChar

StartChar: udieresis
Encoding: 252 252 138
Width: 1341
VWidth: 0
Flags: W
HStem: -20 229<488.364 833.26> 0 21G<969.343 1161> 968 20G<180 426 915 1161> 1153 268<276 567 784 1073>
VStem: 180 246<271.5 988> 276 291<1153 1421> 784 289<1153 1421> 915 246<249.214 988>
LayerCount: 2
Fore
SplineSet
915 988 m 1xb9
 1161 988 l 1
 1161 0 l 1
 978 0 l 1x79
 949 67 l 1
 787 -3 652 -20 562 -20 c 0
 227 -20 180 203 180 404 c 2
 180 988 l 1
 426 988 l 1
 426 406 l 2
 426 341 435 209 647 209 c 0
 748 209 853 241 915 264 c 1
 915 988 l 1xb9
276 1421 m 1x34
 567 1421 l 1
 567 1153 l 1
 276 1153 l 1
 276 1421 l 1x34
784 1421 m 1x32
 1073 1421 l 1
 1073 1153 l 1
 784 1153 l 1
 784 1421 l 1x32
EndSplineSet
Validated: 1
EndChar

StartChar: ydieresis
Encoding: 255 255 139
Width: 1214
VWidth: 0
Flags: W
HStem: 968 20G<50 317.669 934.963 1202> 1153 268<240 537 746 1038>
VStem: 50 259<729 988> 240 297<1153 1421> 746 292<1153 1421> 943 259<729 988>
DStem2: 309 988 50 988 0.414777 -0.909923<0 827.093> 254 -531 550 -531 0.39443 0.918926<116.751 587.342> 638 229 550 -531 0.39443 0.918926<0 817.766>
LayerCount: 2
Fore
SplineSet
50 988 m 1xe4
 309 988 l 1
 638 229 l 1
 943 988 l 1
 1202 988 l 1
 550 -531 l 1
 254 -531 l 1
 499 3 l 1
 50 988 l 1xe4
240 1421 m 1xd0
 537 1421 l 1
 537 1153 l 1
 240 1153 l 1
 240 1421 l 1xd0
746 1421 m 1xc8
 1038 1421 l 1
 1038 1153 l 1
 746 1153 l 1
 746 1421 l 1xc8
EndSplineSet
Validated: 1
EndChar

StartChar: dotlessi
Encoding: 305 305 140
Width: 606
VWidth: 2097
Flags: W
HStem: 0 21G<180 426> 968 20G<180 426>
VStem: 180 246<0 988>
LayerCount: 2
Fore
SplineSet
180 988 m 1
 426 988 l 1
 426 0 l 1
 180 0 l 1
 180 988 l 1
EndSplineSet
Validated: 1
EndChar

StartChar: Agrave
Encoding: 192 192 141
Width: 1547
VWidth: 0
Flags: W
HStem: 0 21G<130 382.548 1263.45 1531> 372 231<620 1025> 1401 20G<685.076 976.91>
VStem: 130 244<0 244> 1272 259<0 259>
DStem2: 130 0 374 0 0.368343 0.92969<89.8757 494.287 741.091 1305.81> 589 1945 467 1750 0.873047 -0.487636<0 712.046> 969 1421 823 1130 0.367777 -0.929914<216.909 781.265 1028.44 1432.84>
LayerCount: 2
Fore
SplineSet
693 1421 m 1
 969 1421 l 1
 1531 0 l 1
 1272 0 l 1
 1113 372 l 1
 533 372 l 1
 374 0 l 1
 130 0 l 1
 693 1421 l 1
1025 603 m 1
 823 1130 l 1
 620 603 l 1
 1025 603 l 1
589 1945 m 1
 1221 1592 l 1
 1108 1414 l 1
 467 1750 l 1
 589 1945 l 1
EndSplineSet
Validated: 1
EndChar

StartChar: Aacute
Encoding: 193 193 142
Width: 1547
VWidth: 0
Flags: W
HStem: 0 21G<130 382.548 1263.45 1531> 372 231<620 1025> 1401 20G<685.076 976.91>
VStem: 130 244<0 244> 1272 259<0 259>
DStem2: 130 0 374 0 0.368343 0.92969<89.8757 494.287 741.091 1305.81> 969 1421 823 1130 0.367777 -0.929914<216.909 781.265 1028.44 1432.84>
LayerCount: 2
Fore
SplineSet
693 1421 m 1
 969 1421 l 1
 1531 0 l 1
 1272 0 l 1
 1113 372 l 1
 533 372 l 1
 374 0 l 1
 130 0 l 1
 693 1421 l 1
1025 603 m 1
 823 1130 l 1
 620 603 l 1
 1025 603 l 1
1070 1945 m 1
 1193 1750 l 1
 551 1414 l 1
 439 1592 l 1
 1070 1945 l 1
EndSplineSet
Validated: 1
EndChar

StartChar: Acircumflex
Encoding: 194 194 143
Width: 1547
VWidth: 0
Flags: W
HStem: 0 21G<130 382.548 1263.45 1531> 372 231<620 1025> 1401 20G<685.076 976.91>
VStem: 130 244<0 244> 1272 259<0 259>
DStem2: 130 0 374 0 0.368343 0.92969<89.8757 494.287 741.091 1305.81> 969 1421 823 1130 0.367777 -0.929914<216.909 781.265 1028.44 1432.84>
LayerCount: 2
Fore
SplineSet
693 1421 m 1
 969 1421 l 1
 1531 0 l 1
 1272 0 l 1
 1113 372 l 1
 533 372 l 1
 374 0 l 1
 130 0 l 1
 693 1421 l 1
1025 603 m 1
 823 1130 l 1
 620 603 l 1
 1025 603 l 1
854 1943 m 1
 1197 1595 l 1
 1030 1450 l 1
 838 1644 l 1
 642 1453 l 1
 477 1586 l 1
 854 1943 l 1
EndSplineSet
Validated: 1
EndChar

StartChar: Atilde
Encoding: 195 195 144
Width: 1547
VWidth: 0
Flags: W
HStem: 0 21G<130 382.548 1263.45 1531> 372 231<620 1025> 1401 20G<685.076 976.91> 1492 203<959.123 1064.19> 1674 202<643.767 749.868>
VStem: 130 244<0 244> 400 208<1511.21 1653.67> 1091 205<1706.41 1854.82> 1272 259<0 259>
DStem2: 130 0 374 0 0.368343 0.92969<89.8757 494.287 741.091 1305.81> 969 1421 823 1130 0.367777 -0.929914<216.909 781.265 1028.44 1432.84>
LayerCount: 2
Fore
SplineSet
1100 1884 m 1xf7
 1305 1854 l 1
 1296 1812 l 2
 1273 1696 1252 1492 1033 1492 c 1xf7
 830 1500 741 1674 683 1674 c 0
 643 1674 631 1597 616 1525 c 2
 608 1487 l 1
 400 1513 l 1
 409 1556 l 2
 434 1669 457 1876 676 1876 c 1xef
 878 1868 969 1695 1026 1695 c 0
 1065 1695 1074 1766 1091 1845 c 2
 1100 1884 l 1xf7
1025 603 m 1
 823 1130 l 1
 620 603 l 1
 1025 603 l 1
693 1421 m 1
 969 1421 l 1
 1531 0 l 1
 1272 0 l 1xe680
 1113 372 l 1
 533 372 l 1
 374 0 l 1
 130 0 l 1
 693 1421 l 1
EndSplineSet
Validated: 1
EndChar

StartChar: Aring
Encoding: 197 197 145
Width: 1547
VWidth: 0
Flags: W
HStem: 0 21G<130 382.548 1263.45 1531> 372 231<620 1025> 1687 186<734.044 931.859>
VStem: 130 244<0 244> 498 210<1490.59 1659.78> 957 213<1492.81 1660.83> 1272 259<0 259>
DStem2: 130 0 374 0 0.365502 0.930811<89.1824 493.559 740.375 1305.11> 1008 1335 823 1130 0.364767 -0.931099<123.393 687.765 934.949 1339.32>
LayerCount: 2
Fore
SplineSet
833 1873 m 0
 1014 1873 1170 1744 1170 1577 c 0
 1170 1474 1104 1384 1008 1335 c 1
 1531 0 l 1
 1272 0 l 1
 1113 372 l 1
 533 372 l 1
 374 0 l 1
 130 0 l 1
 655 1337 l 1
 562 1387 498 1475 498 1577 c 0
 498 1742 651 1873 833 1873 c 0
835 1687 m 0
 760 1687 708 1635 708 1577 c 0
 708 1521 755 1465 835 1465 c 0
 906 1465 957 1519 957 1577 c 0
 957 1634 907 1687 835 1687 c 0
1025 603 m 1
 823 1130 l 1
 620 603 l 1
 1025 603 l 1
EndSplineSet
Validated: 1
EndChar

StartChar: uni00B2
Encoding: 178 178 146
Width: 800
VWidth: 0
Flags: W
HStem: 733 155<325 654> 1396 153<189.298 456.676>
VStem: 473 181<1243.67 1374.64>
DStem2: 98 1473 153 1338 0.931243 0.364399<2.02444 208.846>
LayerCount: 2
Fore
SplineSet
122 827 m 1
 216 1131 473 1226 473 1311 c 0
 473 1348 428 1396 354 1396 c 0
 320 1396 276 1387 176 1347 c 2
 153 1338 l 1
 98 1473 l 1
 119 1483 l 1
 178 1513 263 1549 370 1549 c 0
 520 1549 641 1459 641 1325 c 0
 641 1137 421 1074 325 888 c 1
 654 888 l 1
 654 733 l 1
 122 733 l 1
 122 827 l 1
EndSplineSet
Validated: 1
EndChar

StartChar: uni00B3
Encoding: 179 179 147
Width: 800
VWidth: 2097
Flags: W
HStem: 725 159<130.565 452.104> 1089 153<252 433.95> 1389 157<186.026 441.899>
VStem: 448 165<1263.14 1377.91> 478 166<914.763 1062.56>
LayerCount: 2
Fore
SplineSet
359 1546 m 0xf0
 500 1546 613 1461 613 1338 c 0xf0
 613 1278 589 1223 549 1184 c 1
 617 1142 644 1074 644 1005 c 0
 644 837 507 725 327 725 c 0
 242 725 175 747 116 771 c 2
 94 780 l 1
 142 920 l 1
 165 914 l 1
 255 889 290 884 330 884 c 0
 408 884 478 926 478 988 c 0xe8
 478 1077 374 1089 277 1089 c 2
 252 1089 l 1
 252 1242 l 1
 277 1242 l 2
 358 1242 448 1258 448 1324 c 0
 448 1353 419 1389 348 1389 c 0
 284 1389 225 1362 188 1345 c 2
 165 1334 l 1
 107 1474 l 1
 128 1485 l 1
 183 1511 261 1546 359 1546 c 0xf0
EndSplineSet
Validated: 1
EndChar

StartChar: acute
Encoding: 180 180 148
Width: 1122
VWidth: 2097
Flags: W
HStem: 1111 531
LayerCount: 2
Fore
SplineSet
793 1642 m 1
 904 1447 l 1
 321 1111 l 1
 219 1289 l 1
 793 1642 l 1
EndSplineSet
Validated: 1
EndChar

StartChar: uni00B9
Encoding: 185 185 149
Width: 543
VWidth: 0
Flags: W
VStem: 205 163<735 1370>
LayerCount: 2
Fore
SplineSet
248 1536 m 1
 368 1536 l 1
 368 735 l 1
 205 735 l 1
 205 1370 l 1
 67 1331 l 1
 30 1477 l 1
 248 1536 l 1
EndSplineSet
Validated: 1
EndChar

StartChar: ordmasculine
Encoding: 186 186 150
Width: 762
VWidth: 2097
Flags: W
HStem: 727 150<276.445 490.938> 1391 153<269.483 493.008>
VStem: 42 164<953.27 1322.85> 556 164<949.283 1326.02>
LayerCount: 2
Fore
SplineSet
380 1391 m 0
 310 1391 206 1355 206 1149 c 0
 206 916 312 877 382 877 c 0
 452 877 556 915 556 1142 c 0
 556 1359 450 1391 380 1391 c 0
720 1145 m 0
 720 882 570 727 380 727 c 0
 211 727 42 826 42 1146 c 0
 42 1413 212 1544 382 1544 c 0
 517 1544 720 1477 720 1145 c 0
EndSplineSet
Validated: 1
EndChar

StartChar: Egrave
Encoding: 200 200 151
Width: 1447
VWidth: 0
Flags: W
HStem: 0 232<543 1287> 616 232<543 1232> 1189 232<543 1287> 1434 21G<1018.42 1069.69>
VStem: 290 253<232 616 848 1189>
DStem2: 506 1965 393 1770 0.89254 -0.450968<0 732.146>
LayerCount: 2
Fore
SplineSet
290 1421 m 1
 1287 1421 l 1
 1287 1189 l 1
 543 1189 l 1
 543 848 l 1
 1232 848 l 1
 1232 616 l 1
 543 616 l 1
 543 232 l 1
 1287 232 l 1
 1287 0 l 1
 290 0 l 1
 290 1421 l 1
506 1965 m 1
 1162 1612 l 1
 1058 1434 l 1
 393 1770 l 1
 506 1965 l 1
EndSplineSet
Validated: 1
EndChar

StartChar: Eacute
Encoding: 201 201 152
Width: 1447
VWidth: 0
Flags: W
HStem: 0 232<543 1287> 616 232<543 1232> 1189 232<543 1287> 1434 21G<524.539 575.583>
VStem: 290 253<232 616 848 1189>
LayerCount: 2
Fore
SplineSet
290 1421 m 1
 1287 1421 l 1
 1287 1189 l 1
 543 1189 l 1
 543 848 l 1
 1232 848 l 1
 1232 616 l 1
 543 616 l 1
 543 232 l 1
 1287 232 l 1
 1287 0 l 1
 290 0 l 1
 290 1421 l 1
1090 1965 m 1
 1201 1770 l 1
 536 1434 l 1
 434 1612 l 1
 1090 1965 l 1
EndSplineSet
Validated: 1
EndChar

StartChar: Ecircumflex
Encoding: 202 202 153
Width: 1447
VWidth: 0
Flags: W
HStem: 0 232<543 1287> 616 232<543 1232> 1189 232<543 1287>
VStem: 290 253<232 616 848 1189>
DStem2: 420 1594 576 1461 0.734147 0.678991<24.2211 309.547>
LayerCount: 2
Fore
SplineSet
290 1421 m 1
 1287 1421 l 1
 1287 1189 l 1
 543 1189 l 1
 543 848 l 1
 1232 848 l 1
 1232 616 l 1
 543 616 l 1
 543 232 l 1
 1287 232 l 1
 1287 0 l 1
 290 0 l 1
 290 1421 l 1
806 1951 m 1
 1156 1602 l 1
 995 1458 l 1
 788 1652 l 1
 576 1461 l 1
 420 1594 l 1
 806 1951 l 1
EndSplineSet
Validated: 1
EndChar

StartChar: Icircumflex
Encoding: 206 206 154
Width: 812
VWidth: 0
Flags: W
HStem: 0 21G<338 590> 1401 20G<338 590>
VStem: 338 252<0 1421>
LayerCount: 2
Fore
SplineSet
338 1421 m 1
 590 1421 l 1
 590 0 l 1
 338 0 l 1
 338 1421 l 1
482 1943 m 5
 794 1594 l 5
 640 1450 l 5
 467 1644 l 5
 290 1453 l 5
 140 1586 l 5
 482 1943 l 5
EndSplineSet
Validated: 1
EndChar

StartChar: Igrave
Encoding: 204 204 155
Width: 812
VWidth: 0
Flags: W
HStem: 0 21G<335 587> 1401 20G<335 587>
VStem: 335 252<0 1421>
DStem2: 823 1590 719 1414 0.851811 -0.523849<-667.962 0>
LayerCount: 2
Fore
SplineSet
335 1421 m 1
 587 1421 l 1
 587 0 l 1
 335 0 l 1
 335 1421 l 1
249 1943 m 1
 823 1590 l 1
 719 1414 l 1
 136 1748 l 1
 249 1943 l 1
EndSplineSet
Validated: 1
EndChar

StartChar: Iacute
Encoding: 205 205 156
Width: 894
VWidth: 0
Flags: W
HStem: 0 21G<416 668> 1401 20G<416 668>
VStem: 416 252<0 1421>
LayerCount: 2
Fore
SplineSet
416 1421 m 1
 668 1421 l 1
 668 0 l 1
 416 0 l 1
 416 1421 l 1
783 1946 m 5
 894 1751 l 5
 229 1414 l 5
 127 1593 l 5
 783 1946 l 5
EndSplineSet
Validated: 1
EndChar

StartChar: Ntilde
Encoding: 209 209 157
Width: 1823
VWidth: 0
Flags: W
HStem: 0 21G<290 542 1317.56 1613> 1401 20G<290 582.524 1361 1613> 1492 203<1089.12 1194.19> 1674 202<773.767 879.868>
VStem: 290 252<0 1094> 530 208<1511.21 1653.67> 1221 205<1706.41 1854.82> 1361 252<329 1421>
DStem2: 568 1421 542 1094 0.587599 -0.809152<249.315 1349.56>
LayerCount: 2
Fore
SplineSet
1230 1884 m 1xe6
 1435 1854 l 1
 1426 1812 l 2
 1403 1696 1382 1492 1163 1492 c 1xe6
 960 1500 871 1674 813 1674 c 0
 773 1674 761 1597 746 1525 c 2
 738 1487 l 1
 530 1513 l 1
 539 1556 l 2
 564 1669 587 1876 806 1876 c 1xd6
 1008 1868 1099 1695 1156 1695 c 0
 1195 1695 1204 1766 1221 1845 c 2
 1230 1884 l 1xe6
290 1421 m 1xc9
 568 1421 l 1
 1361 329 l 1
 1361 1421 l 1
 1613 1421 l 1
 1613 0 l 1
 1332 0 l 1
 542 1094 l 1
 542 0 l 1
 290 0 l 1
 290 1421 l 1xc9
EndSplineSet
Validated: 1
EndChar

StartChar: Ograve
Encoding: 210 210 158
Width: 1850
VWidth: 0
Flags: W
HStem: -15 231<759.312 1181.63> 1205 231<746.505 1167.44>
VStem: 215 258<509.785 941.479> 1457 258<489.506 920.859>
DStem2: 790 1948 668 1753 0.870718 -0.491782<0 706.944>
LayerCount: 2
Fore
SplineSet
966 1436 m 0
 1400 1436 1715 1165 1715 726 c 0
 1715 285 1408 -15 958 -15 c 0
 572 -15 215 223 215 707 c 0
 215 1152 526 1436 966 1436 c 0
1457 709 m 0
 1457 1060 1190 1205 953 1205 c 0
 727 1205 473 1063 473 727 c 0
 473 411 695 216 973 216 c 0
 1202 216 1457 361 1457 709 c 0
790 1948 m 1
 1415 1595 l 1
 1302 1417 l 1
 668 1753 l 1
 790 1948 l 1
EndSplineSet
Validated: 1
EndChar

StartChar: Oacute
Encoding: 211 211 159
Width: 1850
VWidth: 0
Flags: W
HStem: -15 231<759.312 1181.63> 1205 231<746.505 1167.44>
VStem: 215 258<509.785 941.479> 1457 258<489.506 920.859>
LayerCount: 2
Fore
SplineSet
966 1436 m 0
 1400 1436 1715 1165 1715 726 c 0
 1715 285 1408 -15 958 -15 c 0
 572 -15 215 223 215 707 c 0
 215 1152 526 1436 966 1436 c 0
1457 709 m 0
 1457 1060 1190 1205 953 1205 c 0
 727 1205 473 1063 473 727 c 0
 473 411 695 216 973 216 c 0
 1202 216 1457 361 1457 709 c 0
1225 1946 m 1
 1346 1751 l 1
 711 1414 l 1
 600 1593 l 1
 1225 1946 l 1
EndSplineSet
Validated: 1
EndChar

StartChar: Ocircumflex
Encoding: 212 212 160
Width: 1850
VWidth: 0
Flags: W
HStem: -15 231<759.312 1181.63> 1205 231<746.505 1167.44>
VStem: 215 258<509.785 941.479> 1457 258<489.506 920.859>
LayerCount: 2
Fore
SplineSet
966 1436 m 0
 1400 1436 1715 1165 1715 726 c 0
 1715 285 1408 -15 958 -15 c 0
 572 -15 215 223 215 707 c 0
 215 1152 526 1436 966 1436 c 0
1457 709 m 0
 1457 1060 1190 1205 953 1205 c 0
 727 1205 473 1063 473 727 c 0
 473 411 695 216 973 216 c 0
 1202 216 1457 361 1457 709 c 0
998 1943 m 1
 1337 1595 l 1
 1171 1450 l 1
 982 1644 l 1
 788 1453 l 1
 625 1586 l 1
 998 1943 l 1
EndSplineSet
Validated: 1
EndChar

StartChar: Otilde
Encoding: 213 213 161
Width: 1850
VWidth: 0
Flags: W
HStem: -15 231<759.312 1181.63> 1205 231<746.505 1168.11> 1492 203<1101.12 1206.19> 1674 202<785.767 891.868>
VStem: 215 258<509.785 941.479> 542 208<1511.21 1653.67> 1233 205<1706.41 1854.82> 1457 258<489.506 926.62>
LayerCount: 2
Fore
SplineSet
1242 1884 m 5xef
 1447 1854 l 5
 1438 1812 l 6
 1415 1696 1394 1492 1175 1492 c 5xef
 972 1500 883 1674 825 1674 c 4
 785 1674 773 1597 758 1525 c 6
 750 1487 l 5
 542 1513 l 5
 551 1556 l 6
 576 1669 599 1876 818 1876 c 5xdf
 1020 1868 1111 1695 1168 1695 c 4
 1207 1695 1216 1766 1233 1845 c 6
 1242 1884 l 5xef
1457 709 m 0
 1457 1059 1193 1205 953 1205 c 0
 727 1205 473 1063 473 727 c 0
 473 411 695 216 973 216 c 0
 1202 216 1457 361 1457 709 c 0
966 1436 m 0
 1400 1436 1715 1165 1715 726 c 0
 1715 285 1408 -15 958 -15 c 0
 572 -15 215 223 215 707 c 0
 215 1152 526 1436 966 1436 c 0
EndSplineSet
Validated: 1
EndChar

StartChar: Ugrave
Encoding: 217 217 162
Width: 1744
VWidth: 0
Flags: W
HStem: -20 229<683.415 1138.43> 1401 20G<290 542 1282 1534>
VStem: 290 252<342.979 1421> 1282 252<342.119 1421>
DStem2: 664 1973 538 1778 0.890863 -0.454272<0 711.576>
LayerCount: 2
Fore
SplineSet
290 1421 m 1
 542 1421 l 1
 542 520 l 2
 542 366 594 209 912 209 c 0
 1208 209 1282 345 1282 520 c 2
 1282 1421 l 1
 1534 1421 l 1
 1534 495 l 2
 1534 348 1528 -20 904 -20 c 0
 296 -20 290 350 290 495 c 2
 290 1421 l 1
664 1973 m 5
 1307 1620 l 5
 1193 1444 l 5
 538 1778 l 5
 664 1973 l 5
EndSplineSet
Validated: 1
EndChar

StartChar: Uacute
Encoding: 218 218 163
Width: 1744
VWidth: 0
Flags: W
HStem: -20 229<683.415 1138.43> 1401 20G<290 542 1282 1534>
VStem: 290 252<342.979 1421> 1282 252<342.119 1421>
LayerCount: 2
Fore
SplineSet
290 1421 m 1
 542 1421 l 1
 542 520 l 2
 542 366 594 209 912 209 c 0
 1208 209 1282 345 1282 520 c 2
 1282 1421 l 1
 1534 1421 l 1
 1534 495 l 2
 1534 348 1528 -20 904 -20 c 0
 296 -20 290 350 290 495 c 2
 290 1421 l 1
1192 1976 m 5
 1313 1781 l 5
 661 1444 l 5
 546 1623 l 5
 1192 1976 l 5
EndSplineSet
Validated: 1
EndChar

StartChar: Ucircumflex
Encoding: 219 219 164
Width: 1744
VWidth: 0
Flags: W
HStem: -20 229<683.415 1138.43> 1401 20G<290 542 1282 1534>
VStem: 290 252<342.979 1421> 1282 252<342.119 1421>
LayerCount: 2
Fore
SplineSet
290 1421 m 1
 542 1421 l 1
 542 520 l 2
 542 366 594 209 912 209 c 0
 1208 209 1282 345 1282 520 c 2
 1282 1421 l 1
 1534 1421 l 1
 1534 495 l 2
 1534 348 1528 -20 904 -20 c 0
 296 -20 290 350 290 495 c 2
 290 1421 l 1
929 1943 m 1
 1280 1594 l 1
 1107 1450 l 1
 912 1644 l 1
 713 1453 l 1
 544 1586 l 1
 929 1943 l 1
EndSplineSet
Validated: 1
EndChar

StartChar: Yacute
Encoding: 221 221 165
Width: 1427
VWidth: 0
Flags: W
HStem: 0 21G<626 909> 1401 20G<100 411.793 1151.92 1454>
VStem: 100 298<1123 1421> 626 283<0 664> 1166 288<1133 1421>
DStem2: 398 1421 100 1421 0.570619 -0.821215<0 669.325> 778 870 909 664 0.584276 0.811555<0 673.866>
LayerCount: 2
Fore
SplineSet
100 1421 m 1
 398 1421 l 1
 778 870 l 1
 1166 1421 l 1
 1454 1421 l 1
 909 664 l 1
 909 0 l 1
 626 0 l 1
 626 664 l 1
 100 1421 l 1
1027 1976 m 5
 1151 1781 l 5
 499 1444 l 5
 386 1623 l 5
 1027 1976 l 5
EndSplineSet
Validated: 1
EndChar

StartChar: agrave
Encoding: 224 224 166
Width: 1233
VWidth: 0
Flags: W
HStem: -20 211<409.044 761.831> 0 21G<860.385 1053> 396 185<414.588 806> 789 217<266.606 750.439>
VStem: 123 246<235.501 349.442> 806 247<229.777 396 581 732.158>
LayerCount: 2
Fore
SplineSet
589 1006 m 0xbc
 969 1006 1053 837 1053 644 c 2
 1053 0 l 1
 869 0 l 1x7c
 841 65 l 1
 762 15 651 -20 528 -20 c 0
 282 -20 123 122 123 273 c 0
 123 526 435 577 806 581 c 1
 806 616 l 2
 806 698 789 789 557 789 c 0
 495 789 397 779 269 745 c 1
 229 734 l 1
 178 931 l 1
 213 943 l 1
 339 990 476 1006 589 1006 c 0xbc
806 255 m 1
 806 396 l 1
 781 396 l 2
 512 396 369 369 369 291 c 0
 369 245 456 191 582 191 c 0xbc
 604 191 711 192 806 255 c 1
508 1557 m 1
 988 1179 l 1
 858 1016 l 1
 336 1384 l 1
 508 1557 l 1
EndSplineSet
Validated: 1
EndChar

StartChar: aacute
Encoding: 225 225 167
Width: 1233
VWidth: 0
Flags: W
HStem: -20 211<409.044 761.831> 0 21G<860.385 1053> 396 185<414.588 806> 789 217<266.606 750.439>
VStem: 123 246<235.501 349.442> 806 247<229.777 396 581 732.158>
DStem2: 297 1189 441 1026 0.80057 0.599239<17.6062 630.8>
LayerCount: 2
Fore
SplineSet
802 1567 m 1x3c
 949 1394 l 1
 441 1026 l 1
 297 1189 l 1
 802 1567 l 1x3c
806 255 m 1
 806 396 l 1
 781 396 l 2
 512 396 369 369 369 291 c 0
 369 245 456 191 582 191 c 0xbc
 604 191 711 192 806 255 c 1
589 1006 m 0
 969 1006 1053 837 1053 644 c 2
 1053 0 l 1
 869 0 l 1x7c
 841 65 l 1
 762 15 651 -20 528 -20 c 0
 282 -20 123 122 123 273 c 0
 123 526 435 577 806 581 c 1
 806 616 l 2
 806 698 789 789 557 789 c 0
 495 789 397 779 269 745 c 1
 229 734 l 1
 178 931 l 1
 213 943 l 1
 339 990 476 1006 589 1006 c 0
EndSplineSet
Validated: 1
EndChar

StartChar: acircumflex
Encoding: 226 226 168
Width: 1233
VWidth: 0
Flags: W
HStem: -20 211<409.044 761.831> 0 21G<860.385 1053> 396 185<414.588 806> 789 217<266.606 750.439>
VStem: 123 246<235.501 349.442> 806 247<229.777 396 581 732.158>
DStem2: 244 1152 399 1019 0.739342 0.67333<25.0452 316.307> 636 1509 619 1210 0.703008 -0.711182<200.692 485.59>
LayerCount: 2
Fore
SplineSet
636 1509 m 1x3c
 980 1161 l 1
 828 1016 l 1
 619 1210 l 1
 399 1019 l 1
 244 1152 l 1
 636 1509 l 1x3c
806 255 m 1
 806 396 l 1
 781 396 l 2
 512 396 369 369 369 291 c 0
 369 245 456 191 582 191 c 0xbc
 604 191 711 192 806 255 c 1
589 1006 m 0
 969 1006 1053 837 1053 644 c 2
 1053 0 l 1
 869 0 l 1x7c
 841 65 l 1
 762 15 651 -20 528 -20 c 0
 282 -20 123 122 123 273 c 0
 123 526 435 577 806 581 c 1
 806 616 l 2
 806 698 789 789 557 789 c 0
 495 789 397 779 269 745 c 1
 229 734 l 1
 178 931 l 1
 213 943 l 1
 339 990 476 1006 589 1006 c 0
EndSplineSet
Validated: 1
EndChar

StartChar: atilde
Encoding: 227 227 169
Width: 1233
VWidth: 0
Flags: W
HStem: -20 211<408.406 757.378> 0 21G<860.385 1053> 396 185<424.953 800> 789 217<266.551 747.101> 1058 202<748.85 859.147> 1239 203<399.823 522.582>
VStem: 123 246<235.501 350.563> 800 253<229.777 396 581 739.314>
LayerCount: 2
Fore
SplineSet
892 1450 m 5x3b
 1082 1420 l 5
 1056 1293 l 6
 1049 1256 1019 1058 830 1058 c 5x3b
 606 1066 509 1239 445 1239 c 4
 402 1239 390 1169 384 1141 c 6
 364 1053 l 5
 174 1079 l 5
 200 1207 l 6
 208 1245 237 1442 437 1442 c 5x37
 657 1434 762 1260 822 1260 c 4
 863 1260 872 1346 875 1359 c 6
 892 1450 l 5x3b
800 255 m 1
 800 396 l 1
 775 396 l 2
 510 396 369 369 369 291 c 0
 369 245 455 191 579 191 c 0xb3
 601 191 706 192 800 255 c 1
586 1006 m 0
 969 1006 1053 837 1053 644 c 2
 1053 0 l 1
 869 0 l 1x73
 841 65 l 1
 756 15 647 -20 526 -20 c 0
 283 -20 123 122 123 273 c 0
 123 526 434 577 800 581 c 1
 800 616 l 2
 800 698 784 789 555 789 c 0
 494 789 397 779 269 745 c 1
 229 734 l 1
 178 931 l 1
 213 943 l 1
 339 990 474 1006 586 1006 c 0
EndSplineSet
Validated: 1
EndChar

StartChar: aring
Encoding: 229 229 170
Width: 1233
VWidth: 0
Flags: W
HStem: -20 211<409.044 761.831> 0 21G<860.385 1053> 396 185<414.588 806> 789 217<266.606 750.439> 1042 173<549.478 729.888> 1400 173<552.245 732.926>
VStem: 123 246<235.501 349.442> 331 203<1233.8 1381.61> 749 185<1233.98 1381.82> 806 247<229.777 396 581 732.158>
LayerCount: 2
Fore
SplineSet
643 1400 m 0x3d80
 580 1400 534 1358 534 1308 c 0
 534 1259 577 1215 643 1215 c 0
 702 1215 749 1259 749 1308 c 0
 749 1357 703 1400 643 1400 c 0x3d80
642 1573 m 0
 815 1573 934 1456 934 1308 c 0
 934 1161 817 1042 643 1042 c 0
 468 1042 331 1160 331 1308 c 0
 331 1454 466 1573 642 1573 c 0
806 255 m 1xbe40
 806 396 l 1
 781 396 l 2
 512 396 369 369 369 291 c 0
 369 245 456 191 582 191 c 0
 604 191 711 192 806 255 c 1xbe40
589 1006 m 0
 969 1006 1053 837 1053 644 c 2
 1053 0 l 1
 869 0 l 1x7e40
 841 65 l 1
 762 15 651 -20 528 -20 c 0
 282 -20 123 122 123 273 c 0
 123 526 435 577 806 581 c 1
 806 616 l 2
 806 698 789 789 557 789 c 0
 495 789 397 779 269 745 c 1
 229 734 l 1
 178 931 l 1
 213 943 l 1
 339 990 476 1006 589 1006 c 0
EndSplineSet
Validated: 1
EndChar

StartChar: egrave
Encoding: 232 232 171
Width: 1266
VWidth: 0
Flags: W
HStem: -20 213<525.131 1015.47> 37 190<868.866 1041.64> 376 206<382 894> 783 224<490.247 821.21>
LayerCount: 2
Fore
SplineSet
697 1007 m 0xb0
 1117 1007 1136 696 1136 488 c 2
 1136 376 l 1
 380 376 l 1
 406 288 532 193 767 193 c 0xb0
 861 193 945 211 1000 227 c 2
 1041 239 l 1
 1090 49 l 1
 1054 37 l 2x70
 966 7 845 -20 694 -20 c 0
 243 -20 130 235 130 464 c 0
 130 843 398 1007 697 1007 c 0xb0
656 783 m 0
 490 783 398 688 382 582 c 1
 894 582 l 1
 883 734 791 783 656 783 c 0
520 1567 m 1
 1003 1189 l 1
 870 1026 l 1
 351 1394 l 1
 520 1567 l 1
EndSplineSet
Validated: 1
EndChar

StartChar: eacute
Encoding: 233 233 172
Width: 1266
VWidth: 0
Flags: W
HStem: -20 213<525.131 1015.47> 37 190<868.866 1041.64> 376 206<382 894> 783 224<490.247 821.21>
DStem2: 401 1189 556 1026 0.798853 0.601527<25.7733 628.401>
LayerCount: 2
Fore
SplineSet
697 1007 m 0xb0
 1117 1007 1136 696 1136 488 c 2
 1136 376 l 1
 380 376 l 1
 406 288 532 193 767 193 c 0xb0
 861 193 945 211 1000 227 c 2
 1041 239 l 1
 1090 49 l 1
 1054 37 l 2x70
 966 7 845 -20 694 -20 c 0
 243 -20 130 235 130 464 c 0
 130 843 398 1007 697 1007 c 0xb0
656 783 m 0
 490 783 398 688 382 582 c 1
 894 582 l 1
 883 734 791 783 656 783 c 0
903 1567 m 1
 1049 1394 l 1
 556 1026 l 1
 401 1189 l 1
 903 1567 l 1
EndSplineSet
Validated: 1
EndChar

StartChar: ecircumflex
Encoding: 234 234 173
Width: 1266
VWidth: 0
Flags: W
HStem: -20 213<525.131 1015.47> 37 190<868.866 1041.64> 376 206<382 894> 783 224<490.247 821.21>
DStem2: 331 1152 501 1019 0.744409 0.667724<37.7423 322.348> 729 1509 712 1210 0.696725 -0.717338<202.64 483.239>
LayerCount: 2
Fore
SplineSet
697 1007 m 0xb0
 1117 1007 1136 696 1136 488 c 2
 1136 376 l 1
 380 376 l 1
 406 288 532 193 767 193 c 0xb0
 861 193 945 211 1000 227 c 2
 1041 239 l 1
 1090 49 l 1
 1054 37 l 2x70
 966 7 845 -20 694 -20 c 0
 243 -20 130 235 130 464 c 0
 130 843 398 1007 697 1007 c 0xb0
656 783 m 0
 490 783 398 688 382 582 c 1
 894 582 l 1
 883 734 791 783 656 783 c 0
729 1509 m 1
 1067 1161 l 1
 915 1016 l 1
 712 1210 l 1
 501 1019 l 1
 331 1152 l 1
 729 1509 l 1
EndSplineSet
Validated: 1
EndChar

StartChar: igrave
Encoding: 236 236 174
Width: 606
VWidth: 0
Flags: W
HStem: 0 21G<197 443> 968 20G<197 443>
VStem: 197 246<0 988>
DStem2: 570 1189 440 1026 0.767077 -0.641555<-567.748 0>
LayerCount: 2
Fore
SplineSet
197 988 m 1
 443 988 l 1
 443 0 l 1
 197 0 l 1
 197 988 l 1
146 1567 m 1
 570 1189 l 1
 440 1026 l 1
 0 1394 l 1
 146 1567 l 1
EndSplineSet
Validated: 1
EndChar

StartChar: iacute
Encoding: 237 237 175
Width: 606
VWidth: 0
Flags: W
HStem: 0 21G<195 441> 968 20G<195 441>
VStem: 195 246<0 988>
DStem2: 112 1189 242 1026 0.767077 0.641555<0 567.748>
LayerCount: 2
Fore
SplineSet
195 988 m 1
 441 988 l 1
 441 0 l 1
 195 0 l 1
 195 988 l 1
536 1567 m 1
 682 1394 l 1
 242 1026 l 1
 112 1189 l 1
 536 1567 l 1
EndSplineSet
Validated: 1
EndChar

StartChar: icircumflex
Encoding: 238 238 176
Width: 612
VWidth: 0
Flags: W
HStem: 0 21G<196 442> 968 20G<196 442>
VStem: 196 246<0 988>
LayerCount: 2
Fore
SplineSet
196 988 m 1
 442 988 l 1
 442 0 l 1
 196 0 l 1
 196 988 l 1
326 1514 m 1
 607 1159 l 1
 454 1014 l 1
 311 1195 l 1
 166 1017 l 1
 17 1150 l 1
 326 1514 l 1
EndSplineSet
Validated: 1
EndChar

StartChar: ograve
Encoding: 242 242 177
Width: 1375
VWidth: 0
Flags: W
HStem: -20 222<525.323 868.866> 785 222<508.332 849.803>
VStem: 130 242<354.029 653.449> 1003 242<335.058 640.5>
DStem2: 595 1567 427 1394 0.808736 -0.588172<0 591.554>
LayerCount: 2
Fore
SplineSet
595 1567 m 1
 1072 1189 l 1
 933 1026 l 1
 427 1394 l 1
 595 1567 l 1
678 785 m 0
 530 785 372 695 372 509 c 0
 372 339 501 202 696 202 c 0
 866 202 1003 310 1003 483 c 0
 1003 686 832 785 678 785 c 0
694 1007 m 0
 1016 1007 1245 831 1245 512 c 0
 1245 183 1021 -20 675 -20 c 0
 347 -20 130 168 130 484 c 0
 130 805 346 1007 694 1007 c 0
EndSplineSet
Validated: 1
EndChar

StartChar: oacute
Encoding: 243 243 178
Width: 1375
VWidth: 0
Flags: W
HStem: -20 222<525.323 868.866> 785 222<508.332 849.803>
VStem: 130 242<354.029 653.449> 1003 242<335.058 640.5>
LayerCount: 2
Fore
SplineSet
694 1007 m 0
 1016 1007 1245 831 1245 512 c 0
 1245 183 1021 -20 675 -20 c 0
 347 -20 130 168 130 484 c 0
 130 805 346 1007 694 1007 c 0
678 785 m 0
 530 785 372 695 372 509 c 0
 372 339 501 202 696 202 c 0
 866 202 1003 310 1003 483 c 0
 1003 686 832 785 678 785 c 0
808 1567 m 1
 976 1394 l 1
 470 1026 l 1
 327 1189 l 1
 808 1567 l 1
EndSplineSet
Validated: 1
EndChar

StartChar: ocircumflex
Encoding: 244 244 179
Width: 1375
VWidth: 0
Flags: W
HStem: -20 222<525.323 868.866> 785 222<508.332 849.803>
VStem: 130 242<354.029 653.449> 1003 242<335.058 640.5>
DStem2: 324 1152 489 1019 0.734147 0.678991<30.8285 311.016>
LayerCount: 2
Fore
SplineSet
694 1007 m 0
 1016 1007 1245 831 1245 512 c 0
 1245 183 1021 -20 675 -20 c 0
 347 -20 130 168 130 484 c 0
 130 805 346 1007 694 1007 c 0
678 785 m 0
 530 785 372 695 372 509 c 0
 372 339 501 202 696 202 c 0
 866 202 1003 310 1003 483 c 0
 1003 686 832 785 678 785 c 0
710 1509 m 1
 1060 1161 l 1
 895 1016 l 1
 694 1210 l 1
 489 1019 l 1
 324 1152 l 1
 710 1509 l 1
EndSplineSet
Validated: 1
EndChar

StartChar: otilde
Encoding: 245 245 180
Width: 1375
VWidth: 0
Flags: W
HStem: -20 222<525.323 868.866> 785 222<508.332 849.803> 1062 202<813.85 924.147> 1243 203<464.823 587.582>
VStem: 130 242<354.029 653.449> 1003 242<335.058 640.5>
LayerCount: 2
Fore
SplineSet
957 1454 m 1xec
 1147 1424 l 1
 1121 1297 l 2
 1114 1260 1084 1062 895 1062 c 1xec
 671 1070 574 1243 510 1243 c 0
 467 1243 455 1173 449 1145 c 2
 429 1057 l 1
 239 1083 l 1
 265 1211 l 2
 273 1249 302 1446 502 1446 c 1xdc
 722 1438 827 1264 887 1264 c 0
 928 1264 937 1350 940 1363 c 2
 957 1454 l 1xec
678 785 m 0
 530 785 372 695 372 509 c 0
 372 339 501 202 696 202 c 0
 866 202 1003 310 1003 483 c 0
 1003 686 832 785 678 785 c 0
694 1007 m 0
 1016 1007 1245 831 1245 512 c 0
 1245 183 1021 -20 675 -20 c 0
 347 -20 130 168 130 484 c 0
 130 805 346 1007 694 1007 c 0
EndSplineSet
Validated: 1
EndChar

StartChar: ugrave
Encoding: 249 249 181
Width: 1341
VWidth: 0
Flags: W
HStem: -20 229<488.364 833.26> 0 21G<969.343 1161> 968 20G<180 426 915 1161>
VStem: 180 246<271.5 988> 915 246<249.214 988>
DStem2: 532 1567 368 1394 0.814691 -0.579896<0 601.309>
LayerCount: 2
Fore
SplineSet
915 988 m 1xb8
 1161 988 l 1
 1161 0 l 1
 978 0 l 1x78
 949 67 l 1
 787 -3 652 -20 562 -20 c 0
 227 -20 180 203 180 404 c 2
 180 988 l 1
 426 988 l 1
 426 406 l 2
 426 341 435 209 647 209 c 0
 748 209 853 241 915 264 c 1
 915 988 l 1xb8
532 1567 m 1
 1020 1189 l 1
 885 1026 l 1
 368 1394 l 1
 532 1567 l 1
EndSplineSet
Validated: 1
EndChar

StartChar: uacute
Encoding: 250 250 182
Width: 1341
VWidth: 0
Flags: W
HStem: -20 229<488.364 833.26> 0 21G<969.343 1161> 968 20G<180 426 915 1161>
VStem: 180 246<271.5 988> 915 246<249.214 988>
DStem2: 387 1189 536 1026 0.798853 0.601527<20.9802 628.401>
LayerCount: 2
Fore
SplineSet
915 988 m 1xb8
 1161 988 l 1
 1161 0 l 1
 978 0 l 1x78
 949 67 l 1
 787 -3 652 -20 562 -20 c 0
 227 -20 180 203 180 404 c 2
 180 988 l 1
 426 988 l 1
 426 406 l 2
 426 341 435 209 647 209 c 0
 748 209 853 241 915 264 c 1
 915 988 l 1xb8
889 1567 m 1
 1039 1394 l 1
 536 1026 l 1
 387 1189 l 1
 889 1567 l 1
EndSplineSet
Validated: 1
EndChar

StartChar: ucircumflex
Encoding: 251 251 183
Width: 1341
VWidth: 0
Flags: W
HStem: -20 229<488.364 833.26> 0 21G<969.343 1161> 968 20G<180 426 915 1161>
VStem: 180 246<271.5 988> 915 246<249.214 988>
DStem2: 311 1152 468 1019 0.735893 0.677098<25.4812 311.552> 699 1509 681 1210 0.707107 -0.707107<198.697 484.368>
LayerCount: 2
Fore
SplineSet
915 988 m 1xb8
 1161 988 l 1
 1161 0 l 1
 978 0 l 1x78
 949 67 l 1
 787 -3 652 -20 562 -20 c 0
 227 -20 180 203 180 404 c 2
 180 988 l 1
 426 988 l 1
 426 406 l 2
 426 341 435 209 647 209 c 0
 748 209 853 241 915 264 c 1
 915 988 l 1xb8
699 1509 m 1
 1047 1161 l 1
 891 1016 l 1
 681 1210 l 1
 468 1019 l 1
 311 1152 l 1
 699 1509 l 1
EndSplineSet
Validated: 1
EndChar

StartChar: yacute
Encoding: 253 253 184
Width: 1214
VWidth: 0
Flags: W
HStem: 968 20G<50 317.669 934.963 1202>
VStem: 50 259<729 988> 254 296<-531 -235> 943 259<729 988>
DStem2: 309 988 50 988 0.414777 -0.909923<0 827.093> 254 -531 550 -531 0.39443 0.918926<116.751 587.342> 421 1189 570 1026 0.789963 0.613154<17.7604 616.484> 638 229 550 -531 0.39443 0.918926<0 817.766>
LayerCount: 2
Fore
SplineSet
50 988 m 1xd0
 309 988 l 1xd0
 638 229 l 1
 943 988 l 1
 1202 988 l 1
 550 -531 l 1
 254 -531 l 1xb0
 499 3 l 1
 50 988 l 1xd0
908 1567 m 1
 1058 1394 l 1
 570 1026 l 1
 421 1189 l 1
 908 1567 l 1
EndSplineSet
Validated: 1
EndChar

StartChar: ntilde
Encoding: 241 241 185
Width: 1341
VWidth: 0
Flags: W
HStem: 0 21G<180 426 914 1161> 778 230<507.74 854.346> 968 20G<180 371.529> 1062 203<835.202 944.13> 1243 203<489.719 607.717>
VStem: 180 246<0 737.786> 914 247<0 715.623>
LayerCount: 2
Fore
SplineSet
977 1455 m 1x96
 1167 1425 l 1
 1141 1298 l 2
 1134 1262 1104 1062 916 1062 c 1x96
 694 1070 599 1243 535 1243 c 0
 494 1243 480 1174 474 1146 c 2
 453 1057 l 1
 259 1085 l 1
 285 1212 l 2
 293 1251 322 1446 527 1446 c 1x8e
 747 1438 847 1265 906 1265 c 0
 946 1265 955 1345 960 1364 c 2
 977 1455 l 1x96
180 988 m 1xa6
 363 988 l 1xa6
 392 920 l 1
 554 990 689 1008 779 1008 c 0
 1114 1008 1161 784 1161 583 c 2
 1161 0 l 1
 914 0 l 1
 914 580 l 2
 914 650 905 778 694 778 c 0xc6
 593 778 488 746 426 723 c 1
 426 0 l 1
 180 0 l 1
 180 988 l 1xa6
EndSplineSet
Validated: 1
EndChar

StartChar: eth
Encoding: 240 240 186
Width: 1416
VWidth: 2097
Flags: W
HStem: -20 216<532.236 841.432> 807 144<501.932 875.654> 1413 20G<1091.75 1139.57>
VStem: 130 241<356.739 654.012> 996 240<365.743 724.76>
DStem2: 519 1119 628 953 0.888812 0.458271<20.8076 153.388 528.411 685.184>
LayerCount: 2
Fore
SplineSet
371 522 m 0
 371 331 519 196 688 196 c 0
 783 196 950 240 986 482 c 0
 995 548 996 617 996 670 c 2
 996 709 l 1
 839 791 736 807 669 807 c 0
 500 807 371 694 371 522 c 0
594 1457 m 2
 712 1429 825 1383 925 1321 c 1
 1128 1433 l 1
 1224 1267 l 1
 1080 1184 l 1
 1204 1040 1236 873 1236 680 c 0
 1236 328 1159 -20 670 -20 c 0
 340 -20 130 153 130 435 c 0
 130 714 322 951 645 951 c 0
 715 951 816 942 968 883 c 1
 946 948 907 1006 844 1061 c 1
 628 953 l 1
 519 1119 l 1
 656 1188 l 1
 605 1213 551 1233 495 1250 c 2
 444 1265 l 1
 556 1466 l 1
 594 1457 l 2
EndSplineSet
Validated: 1
EndChar

StartChar: thorn
Encoding: 254 254 187
Width: 1385
VWidth: 2097
Flags: W
HStem: -23 222<528.112 872.41> 780 223<534.096 860.951> 1401 20G<190 448>
VStem: 190 258<-531 43 277.436 693.265 933 1421> 1013 242<330.266 635.942>
LayerCount: 2
Back
SplineSet
611 862 m 4
 380 862 345 644 345 467 c 4
 345 361 359 117 615 117 c 4
 741 117 931 207 931 481 c 4
 931 732 765 862 611 862 c 4
639 1003 m 4
 884 1003 1091 821 1091 510 c 4
 1091 200 892 -23 630 -23 c 4
 531 -23 429 14 354 84 c 5
 354 -531 l 5
 190 -531 l 5
 190 1421 l 5
 354 1421 l 5
 354 885 l 5
 428 968 535 1003 639 1003 c 4
EndSplineSet
Fore
SplineSet
694 780 m 0
 536 780 437 704 437 470 c 0
 437 357 465 199 699 199 c 0
 823 199 1013 266 1013 482 c 0
 1013 682 843 780 694 780 c 0
726 1003 m 0
 1028 1003 1255 819 1255 509 c 0
 1255 203 1040 -23 716 -23 c 0
 623 -23 529 0 448 43 c 1
 448 -531 l 1
 190 -531 l 1
 190 1421 l 1
 448 1421 l 1
 448 933 l 1
 532 982 631 1003 726 1003 c 0
EndSplineSet
Validated: 1
EndChar

StartChar: Eth
Encoding: 208 208 188
Width: 1769
VWidth: 2097
Flags: W
HStem: 0 232<587 1086.99> 617 232<117 335 587 848> 1189 232<587 1098.36>
VStem: 335 252<232 617 849 1189> 1401 254<490.549 920.515>
LayerCount: 2
Fore
SplineSet
335 1421 m 1
 811 1421 l 2
 1031 1421 1655 1388 1655 752 c 0
 1655 43 1039 0 747 0 c 2
 335 0 l 1
 335 617 l 1
 117 617 l 1
 117 849 l 1
 335 849 l 1
 335 1421 l 1
824 1189 m 2
 587 1189 l 1
 587 849 l 1
 848 849 l 1
 848 617 l 1
 587 617 l 1
 587 232 l 1
 753 232 l 2
 1006 232 1401 263 1401 719 c 0
 1401 917 1295 1189 824 1189 c 2
EndSplineSet
Validated: 1
EndChar

StartChar: Oslash
Encoding: 216 216 189
Width: 1920
VWidth: 0
Flags: W
HStem: -15 231<776.456 1201.63> -1 21G<250.256 290.902> 1205 231<766.106 1193.73>
VStem: 235 258<501.281 941.057> 1477 258<489.506 931.691>
DStem2: 159 128 267 -1 0.76597 0.642876<0 256.744 518.934 1501.03 1759.03 2005.96>
LayerCount: 2
Back
SplineSet
1695.72 1417.23 m 29
 159.038 127.801 l 29
 267.026 -0.894531 l 29
 1803.71 1288.54 l 29
 1695.72 1417.23 l 29
986 1436 m 4
 1420 1436 1735 1165 1735 726 c 4
 1735 285 1428 -15 978 -15 c 4
 592 -15 235 223 235 707 c 4
 235 1152 546 1436 986 1436 c 4
976 1205 m 4
 743 1205 493 1061 493 727 c 4
 493 411 715 216 993 216 c 4
 1222 216 1477 361 1477 709 c 4
 1477 1061 1208 1205 976 1205 c 4
EndSplineSet
Fore
SplineSet
976 1205 m 0x38
 743 1205 493 1061 493 727 c 0
 493 625 516 535 557 461 c 1
 1309 1093 l 1
 1213 1170 1090 1205 976 1205 c 0x38
1696 1417 m 1
 1804 1289 l 1
 1619 1134 l 1
 1693 1024 1735 886 1735 726 c 0
 1735 285 1428 -15 978 -15 c 0xb8
 786 -15 600 44 463 163 c 1
 267 -1 l 1x78
 159 128 l 1
 352 289 l 1
 279 398 235 538 235 707 c 0
 235 1152 546 1436 986 1436 c 0
 1195 1436 1376 1373 1508 1259 c 1
 1696 1417 l 1
1417 964 m 1
 663 331 l 1
 751 257 866 216 993 216 c 0
 1222 216 1477 361 1477 709 c 0
 1477 811 1455 895 1417 964 c 1
EndSplineSet
Validated: 1
EndChar

StartChar: logicalnot
Encoding: 172 172 190
Width: 1400
VWidth: 2097
Flags: W
HStem: 542 231<84 1086>
VStem: 1086 230<241 542>
LayerCount: 2
Fore
SplineSet
84 773 m 1
 1316 773 l 1
 1316 241 l 1
 1086 241 l 1
 1086 542 l 1
 84 542 l 1
 84 773 l 1
EndSplineSet
Validated: 1
EndChar

StartChar: macron
Encoding: 175 175 191
Width: 1400
VWidth: 2097
Flags: W
HStem: 1450 231<244 1156>
LayerCount: 2
Fore
SplineSet
244 1681 m 1
 1156 1681 l 1
 1156 1450 l 1
 244 1450 l 1
 244 1681 l 1
EndSplineSet
Validated: 1
EndChar

StartChar: ordfeminine
Encoding: 170 170 192
Width: 766
VWidth: 2097
Flags: W
HStem: 717 130<304.317 482.846> 994 133<311.092 498> 1200 119<191.403 377.941> 1234 130<183.281 481.946>
VStem: 150 147<858.941 974.162> 498 148<865.574 994 1127 1216.08>
LayerCount: 2
Fore
SplineSet
498 994 m 1xcc
 495 994 l 2
 363 994 297 975 297 917 c 0
 297 889 328 847 394 847 c 0
 432 847 470 870 498 910 c 1
 498 994 l 1xcc
498 1127 m 1
 498 1165 490 1234 381 1234 c 0xdc
 316 1234 234 1213 218 1208 c 2
 193 1200 l 1
 163 1319 l 1xec
 184 1326 l 1
 250 1350 321 1364 392 1364 c 0xdc
 633 1364 646 1212 646 1131 c 2
 646 735 l 1
 534 735 l 1
 520 771 l 1
 481 739 433 717 379 717 c 0
 249 717 150 787 150 915 c 0
 150 1087 275 1125 498 1127 c 1
EndSplineSet
Validated: 1
EndChar

StartChar: Thorn
Encoding: 222 222 193
Width: 1490
VWidth: 2097
Flags: W
HStem: 0 21G<290 542> 285 230<542 1034.64> 967 202<542 1039.12> 1401 20G<290 542>
VStem: 290 252<0 288 521 962.684 1160 1421> 1144 256<610.86 872.259>
LayerCount: 2
Fore
SplineSet
751 967 m 0
 680 967 611 965 542 960 c 1
 542 521 l 1
 629 516 686 515 720 515 c 2
 752 515 l 2
 947 515 1144 534 1144 752 c 0
 1144 941 956 967 751 967 c 0
290 1421 m 1
 542 1421 l 1
 542 1160 l 1
 629 1166 715 1169 805 1169 c 0
 1143 1169 1400 1090 1400 773 c 0
 1400 613 1336 387 1076 317 c 1
 1002 299 879 285 684 285 c 0
 636 285 589 286 542 288 c 1
 542 0 l 1
 290 0 l 1
 290 1421 l 1
EndSplineSet
Validated: 1
EndChar

StartChar: quotedblleft
Encoding: 8220 8220 194
Width: 830
VWidth: 2097
Flags: W
HStem: 1037 515<134 266 514 646>
VStem: -15 281<1037 1318> 134 281<1271 1552> 365 281<1037 1318> 514 281<1271 1552>
DStem2: -15 1037 266 1037 0.277922 0.960604<78.0961 536.121> 365 1037 646 1037 0.277922 0.960604<78.0961 536.121>
LayerCount: 2
Fore
SplineSet
795 1552 m 1x88
 646 1037 l 1
 365 1037 l 1x90
 514 1552 l 1
 795 1552 l 1x88
415 1552 m 1xa0
 266 1037 l 1
 -15 1037 l 1xc0
 134 1552 l 1
 415 1552 l 1xa0
EndSplineSet
Validated: 1
EndChar

StartChar: quotedblright
Encoding: 8221 8221 195
Width: 830
VWidth: 2097
Flags: W
HStem: 1037 515<134 266 514 646>
VStem: -15 281<1037 1318> 134 281<1271 1552> 365 281<1037 1318> 514 281<1271 1552>
DStem2: -15 1037 266 1037 0.277922 0.960604<78.0961 536.121> 365 1037 646 1037 0.277922 0.960604<78.0961 536.121>
LayerCount: 2
Fore
SplineSet
514 1552 m 1x88
 795 1552 l 1x88
 646 1037 l 1
 365 1037 l 1x90
 514 1552 l 1x88
134 1552 m 1xa0
 415 1552 l 1xa0
 266 1037 l 1
 -15 1037 l 1xc0
 134 1552 l 1xa0
EndSplineSet
Validated: 1
EndChar

StartChar: Ydieresis
Encoding: 376 376 196
Width: 1427
VWidth: 0
Flags: W
HStem: 0 21G<626 909> 1401 20G<100 411.793 1151.92 1454> 1631 267<376 672 877 1175>
VStem: 100 298<1123 1421> 376 296<1631 1898> 626 283<0 664> 877 298<1631 1898> 1166 288<1133 1421>
DStem2: 398 1421 100 1421 0.570619 -0.821215<0 669.325> 778 870 909 664 0.584276 0.811555<0 673.866>
LayerCount: 2
Fore
SplineSet
100 1421 m 1xf5
 398 1421 l 1
 778 870 l 1
 1166 1421 l 1
 1454 1421 l 1
 909 664 l 1
 909 0 l 1
 626 0 l 1
 626 664 l 1
 100 1421 l 1xf5
877 1898 m 1xe2
 1175 1898 l 1
 1175 1631 l 1
 877 1631 l 1
 877 1898 l 1xe2
376 1898 m 1xe8
 672 1898 l 1
 672 1631 l 1
 376 1631 l 1
 376 1898 l 1xe8
EndSplineSet
Validated: 1
EndChar

StartChar: zcaron
Encoding: 382 382 197
Width: 1242
VWidth: 0
Flags: W
HStem: 0 211<502 1092> 777 211<150 707>
DStem2: 150 127 502 211 0.656035 0.754731<294.322 855.986> 400 1516 247 1371 0.707107 -0.707107<0 287.792> 613 1322 595 1023 0.733063 0.680161<0 288.985>
LayerCount: 2
Fore
SplineSet
150 988 m 1
 1067 988 l 1
 1067 861 l 1
 502 211 l 1
 1092 211 l 1
 1092 0 l 1
 150 0 l 1
 150 127 l 1
 707 777 l 1
 150 777 l 1
 150 988 l 1
595 1023 m 1
 247 1371 l 1
 400 1516 l 1
 613 1322 l 1
 830 1513 l 1
 983 1383 l 1
 595 1023 l 1
EndSplineSet
Validated: 1
EndChar

StartChar: Zcaron
Encoding: 381 381 198
Width: 1522
VWidth: 0
Flags: W
HStem: 0 232<517 1462> 1189 232<185 1052>
DStem2: 155 155 517 232 0.663197 0.748445<297.708 1368.78>
LayerCount: 2
Fore
SplineSet
185 1421 m 1
 1435 1421 l 1
 1435 1268 l 1
 517 232 l 1
 1462 232 l 1
 1462 0 l 1
 155 0 l 1
 155 155 l 1
 1052 1189 l 1
 185 1189 l 1
 185 1421 l 1
797 1457 m 1
 450 1805 l 1
 619 1950 l 1
 813 1756 l 1
 1011 1947 l 1
 1177 1814 l 1
 797 1457 l 1
EndSplineSet
Validated: 1
EndChar

StartChar: Scaron
Encoding: 352 352 199
Width: 1525
VWidth: 0
Flags: W
HStem: -20 250<510.42 1024.71> 1142 233<1120 1284.32> 1192 242<669.231 1221.28>
VStem: 280 275<946.732 1105.69> 1126 270<314.43 487.47>
DStem2: 325 335 240 93 0.933346 -0.358979<7.53856 396.783> 849 1756 833 1457 0.729716 0.68375<0 278.729>
LayerCount: 2
Fore
SplineSet
833 1457 m 1x98
 478 1805 l 1
 651 1950 l 1
 849 1756 l 1
 1052 1947 l 1
 1214 1814 l 1
 833 1457 l 1x98
927 1434 m 0xb8
 1093 1434 1241 1399 1320 1375 c 2
 1361 1363 l 1
 1279 1131 l 1
 1241 1142 l 1xd8
 1096 1182 980 1192 911 1192 c 0
 721 1192 555 1124 555 1021 c 0
 555 777 1396 866 1396 409 c 0
 1396 217 1230 -20 757 -20 c 0
 556 -20 415 25 277 79 c 1
 240 93 l 1
 325 335 l 1
 364 320 l 1
 555 252 694 230 781 230 c 0
 986 230 1126 298 1126 401 c 0
 1126 672 280 558 280 1010 c 0
 280 1242 523 1434 927 1434 c 0xb8
EndSplineSet
Validated: 1
EndChar

StartChar: scaron
Encoding: 353 353 200
Width: 1180
VWidth: 0
Flags: W
HStem: -20 211<307.371 775.504> 761 204<709.152 965.077> 797 210<463.723 973.023>
VStem: 165 261<653.253 755.418> 807 264<227.279 336.332>
DStem2: 204 273 130 73 0.930155 -0.367167<4.60182 332.179> 645 1322 627 1023 0.725047 0.688699<0 283.801>
LayerCount: 2
Fore
SplineSet
807 295 m 1xb8
 797 419 165 375 165 699 c 0
 165 820 275 1007 702 1007 c 0xb8
 856 1007 918 986 987 965 c 2
 1028 953 l 1
 960 751 l 1
 922 761 l 2xd8
 857 779 785 797 669 797 c 0
 450 797 426 720 426 696 c 0
 426 583 1071 598 1071 293 c 0
 1071 163 979 -20 550 -20 c 0
 452 -20 316 -3 167 58 c 2
 130 73 l 1
 204 273 l 1
 242 258 l 1
 373 209 463 191 559 191 c 0
 731 191 807 225 807 295 c 1xb8
1006 1383 m 1
 627 1023 l 1
 269 1371 l 1
 432 1516 l 1
 645 1322 l 1
 855 1513 l 1
 1006 1383 l 1
EndSplineSet
Validated: 1
EndChar

StartChar: Euro
Encoding: 8364 8364 201
Width: 1335
VWidth: 2097
Flags: W
HStem: -61 238<720.598 1148.33> 463 212<9 211 495 885> 807 212<73 215 523 949> 1240 232<702.876 1119.07>
VStem: 210 235<675 807>
DStem2: 1254 1393 1176 1176 0.928477 -0.371391<-273.014 38.0675>
LayerCount: 2
Fore
SplineSet
240 463 m 1
 9 463 l 1
 9 675 l 1
 211 675 l 1
 210 685 210 696 210 708 c 0
 210 741 212 774 215 807 c 1
 73 807 l 1
 73 1019 l 1
 260 1019 l 1
 357 1296 588 1472 890 1472 c 0
 1036 1472 1162 1433 1254 1393 c 2
 1289 1378 l 1
 1216 1160 l 1
 1176 1176 l 1
 1012 1239 916 1240 887 1240 c 0
 727 1240 599 1153 523 1019 c 1
 949 1019 l 1
 949 807 l 1
 452 807 l 1
 447 775 445 742 445 708 c 0
 445 697 445 686 446 675 c 1
 885 675 l 1
 885 463 l 1
 495 463 l 1
 566 299 711 177 918 177 c 0
 1000 177 1088 193 1193 234 c 2
 1232 249 l 1
 1306 49 l 1
 1273 33 l 2
 1175 -14 1037 -61 880 -61 c 0
 558 -61 320 151 240 463 c 1
EndSplineSet
Validated: 1
EndChar

StartChar: emdash
Encoding: 8212 8212 202
Width: 1466
VWidth: 2097
Flags: W
HStem: 548 221<0 1466>
LayerCount: 2
Fore
SplineSet
0 769 m 5
 1466 769 l 5
 1466 548 l 5
 0 548 l 5
 0 769 l 5
EndSplineSet
Validated: 1
EndChar

StartChar: endash
Encoding: 8211 8211 203
Width: 1241
VWidth: 2097
Flags: W
HStem: 548 221<0 1241>
LayerCount: 2
Fore
SplineSet
0 769 m 5
 1241 769 l 5
 1241 548 l 5
 0 548 l 5
 0 769 l 5
EndSplineSet
Validated: 1
EndChar

StartChar: afii00208
Encoding: 8213 8213 204
Width: 1682
VWidth: 2097
Flags: W
HStem: 548 221<0 1682>
LayerCount: 2
Fore
SplineSet
0 769 m 5
 1682 769 l 5
 1682 548 l 5
 0 548 l 5
 0 769 l 5
EndSplineSet
Validated: 1
EndChar

StartChar: ellipsis
Encoding: 8230 8230 205
Width: 1720
VWidth: 2097
Flags: W
HStem: -41 292<139 431 704 996 1269 1561>
VStem: 139 292<-41 251> 704 292<-41 251> 1269 292<-41 251>
CounterMasks: 1 70
LayerCount: 2
Fore
SplineSet
139 251 m 1
 431 251 l 1
 431 -41 l 1
 139 -41 l 1
 139 251 l 1
704 251 m 1
 996 251 l 1
 996 -41 l 1
 704 -41 l 1
 704 251 l 1
1269 251 m 1
 1561 251 l 1
 1561 -41 l 1
 1269 -41 l 1
 1269 251 l 1
EndSplineSet
Validated: 1
EndChar

StartChar: bullet
Encoding: 8226 8226 206
Width: 640
VWidth: 2097
Flags: W
HStem: 562 342<149 491>
VStem: 149 342<562 904>
LayerCount: 2
Fore
SplineSet
149 904 m 1
 491 904 l 1
 491 562 l 1
 149 562 l 1
 149 904 l 1
EndSplineSet
Validated: 1
EndChar

StartChar: interrobang
Encoding: 8253 8253 207
Width: 1046
VWidth: 2097
Flags: W
HStem: -41 282<270 552> 1253 225<165.58 589.967>
VStem: 270 282<-41 241> 295 232<351 545.778 843 1121> 670 247<944.114 1178.43>
LayerCount: 2
Fore
SplineSet
270 241 m 1xe8
 552 241 l 1
 552 -41 l 1
 270 -41 l 1
 270 241 l 1xe8
917 1094 m 0
 917 687 527 699 527 392 c 2
 527 351 l 1
 295 351 l 1
 295 1121 l 1
 527 1121 l 1
 527 843 l 1xd8
 598 903 670 974 670 1071 c 0
 670 1144 619 1253 407 1253 c 0
 347 1253 256 1245 167 1209 c 2
 130 1194 l 1
 47 1389 l 1
 82 1406 l 2
 177 1452 290 1478 423 1478 c 0
 654 1478 917 1401 917 1094 c 0
EndSplineSet
Validated: 1
EndChar

StartChar: quoteleft
Encoding: 8216 8216 208
Width: 450
VWidth: 2097
Flags: W
HStem: 1037 515<184 316>
VStem: 35 281<1271 1552> 184 281<1037 1318>
DStem2: 316 1552 35 1552 0.277922 -0.960604<0 458.025>
LayerCount: 2
Fore
SplineSet
35 1552 m 1xc0
 316 1552 l 1xc0
 465 1037 l 1
 184 1037 l 1xa0
 35 1552 l 1xc0
EndSplineSet
Validated: 1
EndChar

StartChar: quoteright
Encoding: 8217 8217 209
Width: 450
VWidth: 2097
Flags: W
HStem: 1037 515<134 266>
VStem: -15 281<1037 1318> 134 281<1271 1552>
DStem2: -15 1037 266 1037 0.277922 0.960604<78.0961 536.121>
LayerCount: 2
Fore
SplineSet
134 1552 m 1xa0
 415 1552 l 1xa0
 266 1037 l 1
 -15 1037 l 1xc0
 134 1552 l 1xa0
EndSplineSet
Validated: 1
EndChar

StartChar: fraction
Encoding: 8260 8260 210
Width: 1036
VWidth: 0
Flags: W
VStem: -51 271<-41 230> 817 270<1192 1462>
DStem2: -51 -41 220 -41 0.500105 0.865965<135.528 1735.64>
LayerCount: 2
Fore
SplineSet
817 1462 m 1
 1087 1462 l 1
 220 -41 l 1
 -51 -41 l 1
 817 1462 l 1
EndSplineSet
Validated: 1
EndChar

StartChar: florin
Encoding: 402 402 211
Width: 985
VWidth: 2097
Flags: W
HStem: -541 219<-85.5156 261.676> 777 211<115 307 591 946> 1210 219<635.363 989.516>
VStem: 307 284<-281.969 777 988 1163.61>
LayerCount: 2
Fore
SplineSet
115 988 m 1
 307 988 l 1
 307 1054 l 2
 307 1118 311 1194 358 1265 c 0
 428 1373 566 1429 732 1429 c 0
 832 1429 925 1407 987 1388 c 2
 1023 1377 l 1
 982 1177 l 1
 940 1187 l 1
 867 1206 822 1210 792 1210 c 0
 598 1210 591 1101 591 1041 c 2
 591 988 l 1
 946 988 l 1
 946 777 l 1
 591 777 l 1
 591 -176 l 2
 591 -292 564 -541 171 -541 c 0
 122 -541 37 -536 -83 -500 c 2
 -119 -489 l 1
 -78 -289 l 1
 -36 -299 l 2
 -7 -306 53 -322 112 -322 c 0
 301 -322 307 -224 307 -158 c 2
 307 777 l 1
 115 777 l 1
 115 988 l 1
EndSplineSet
Validated: 1
EndChar

StartChar: guilsinglleft
Encoding: 8249 8249 212
Width: 607
VWidth: 2097
Flags: W
VStem: 309 288<217 505 741 1029>
DStem2: 292 623 25 623 0.60063 -0.799527<0 334.819>
LayerCount: 2
Fore
SplineSet
308 1029 m 1
 597 1029 l 1
 292 623 l 1
 597 217 l 1
 309 217 l 1
 25 623 l 1
 308 1029 l 1
EndSplineSet
Validated: 1
EndChar

StartChar: guilsinglright
Encoding: 8250 8250 213
Width: 607
VWidth: 2097
Flags: W
VStem: 10 289<217 506 740 1029>
DStem2: 298 1029 10 1029 0.60063 -0.799527<0 334.819> 10 217 299 217 0.60063 0.799527<173.582 507.8>
LayerCount: 2
Fore
SplineSet
10 1029 m 5
 298 1029 l 5
 582 623 l 5
 299 217 l 5
 10 217 l 5
 315 623 l 5
 10 1029 l 5
EndSplineSet
Validated: 1
EndChar

StartChar: dagger
Encoding: 8224 8224 214
Width: 942
VWidth: 2097
Flags: W
HStem: 1123 196<129 358 583 813>
VStem: 358 225<107 1133 1309 1552>
LayerCount: 2
Fore
SplineSet
358 1133 m 1
 129 1123 l 1
 129 1319 l 1
 358 1309 l 1
 358 1552 l 1
 583 1552 l 1
 583 1309 l 1
 813 1319 l 1
 813 1123 l 1
 583 1133 l 1
 583 107 l 1
 358 107 l 1
 358 1133 l 1
EndSplineSet
Validated: 1
EndChar

StartChar: daggerdbl
Encoding: 8225 8225 215
Width: 942
VWidth: 2097
Flags: W
HStem: -48 196<129 358 583 813> 1123 196<129 358 583 813>
VStem: 358 225<-281 -38 138 1133 1309 1552>
LayerCount: 2
Fore
SplineSet
358 1133 m 1
 129 1123 l 1
 129 1319 l 1
 358 1309 l 1
 358 1552 l 1
 583 1552 l 1
 583 1309 l 1
 813 1319 l 1
 813 1123 l 1
 583 1133 l 1
 583 138 l 1
 813 148 l 1
 813 -48 l 1
 583 -38 l 1
 583 -281 l 1
 358 -281 l 1
 358 -38 l 1
 129 -48 l 1
 129 148 l 1
 358 138 l 1
 358 1133 l 1
EndSplineSet
Validated: 1
EndChar

StartChar: quotesinglbase
Encoding: 8218 8218 216
Width: 450
VWidth: 2097
Flags: W
HStem: -257 515<134 266>
VStem: -15 281<-257 24> 134 281<-23 258>
DStem2: -15 -257 266 -257 0.277922 0.960604<78.0961 536.121>
LayerCount: 2
Fore
SplineSet
134 258 m 1xa0
 415 258 l 1xa0
 266 -257 l 1
 -15 -257 l 1xc0
 134 258 l 1xa0
EndSplineSet
Validated: 1
EndChar

StartChar: quotedblbase
Encoding: 8222 8222 217
Width: 830
VWidth: 2097
Flags: W
HStem: -260 515<134 266 514 646>
VStem: -15 281<-260 21> 134 281<-26 255> 365 281<-260 21> 514 281<-26 255>
DStem2: -15 -260 266 -260 0.277922 0.960604<78.0961 536.121> 365 -260 646 -260 0.277922 0.960604<78.0961 536.121>
LayerCount: 2
Fore
SplineSet
514 255 m 1x88
 795 255 l 1x88
 646 -260 l 1
 365 -260 l 1x90
 514 255 l 1x88
134 255 m 1xa0
 415 255 l 1xa0
 266 -260 l 1
 -15 -260 l 1xc0
 134 255 l 1xa0
EndSplineSet
Validated: 1
EndChar

StartChar: perthousand
Encoding: 8240 8240 218
Width: 1920
VWidth: 2097
Flags: W
HStem: 25 175<905.966 1043.64 1512.97 1650.64> 486 178<903.724 1044.47 1510.72 1651.47> 765 176<257.927 395.609> 1227 177<255.862 398.333>
VStem: 7 270<-41 229> 57 180<958.885 1214.35> 416 179<955.404 1214.99> 706 179<217.938 473.409> 1032 270<1192 1462> 1064 180<214.272 473.294> 1313 179<217.938 473.409> 1671 180<214.272 473.294>
DStem2: 7 -41 277 -41 0.563422 0.826169<152.124 1819.24>
LayerCount: 2
Fore
SplineSet
1032 1462 m 1xfbb0
 1302 1462 l 1
 277 -41 l 1
 7 -41 l 1
 1032 1462 l 1xfbb0
1851 351 m 0
 1851 148 1733 25 1581 25 c 0
 1449 25 1313 104 1313 352 c 0
 1313 560 1446 664 1582 664 c 0
 1697 664 1851 601 1851 351 c 0
1581 486 m 0
 1510 486 1492 420 1492 353 c 0
 1492 277 1510 200 1582 200 c 0
 1653 200 1671 273 1671 348 c 0
 1671 472 1617 486 1581 486 c 0
1244 351 m 0xf370
 1244 148 1126 25 974 25 c 0
 842 25 706 104 706 352 c 0
 706 560 839 664 975 664 c 0
 1090 664 1244 601 1244 351 c 0xf370
974 486 m 0
 903 486 885 420 885 353 c 0
 885 277 903 200 975 200 c 0
 1046 200 1064 273 1064 348 c 0
 1064 472 1010 486 974 486 c 0
595 1092 m 0
 595 890 478 765 326 765 c 0
 194 765 57 845 57 1093 c 0xf730
 57 1301 192 1404 327 1404 c 0
 437 1404 595 1346 595 1092 c 0
326 1227 m 0
 255 1227 237 1161 237 1094 c 0
 237 1018 255 941 327 941 c 0
 398 941 416 1014 416 1089 c 0
 416 1213 362 1227 326 1227 c 0
EndSplineSet
Validated: 1
EndChar

StartChar: circumflex
Encoding: 710 710 219
Width: 1479
VWidth: 2097
Flags: W
HStem: 1108 493
VStem: 384 654
LayerCount: 2
Fore
SplineSet
726 1601 m 1
 1038 1253 l 1
 886 1108 l 1
 711 1302 l 1
 534 1111 l 1
 384 1244 l 1
 726 1601 l 1
EndSplineSet
Validated: 1
EndChar

StartChar: tilde
Encoding: 732 732 220
Width: 1400
VWidth: 2097
Flags: W
HStem: 1198 204<813.067 933.207> 1380 204<510.757 626.69>
LayerCount: 2
Fore
SplineSet
880 1402 m 0x80
 922 1402 950 1478 992 1561 c 1
 1010 1596 l 1
 1189 1516 l 1
 1171 1478 l 2
 1123 1379 1055 1198 880 1198 c 1x80
 693 1207 624 1380 560 1380 c 0
 518 1380 492 1306 448 1219 c 2
 430 1184 l 1
 251 1264 l 1
 269 1302 l 2
 317 1401 385 1584 560 1584 c 1x40
 747 1575 815 1402 880 1402 c 0x80
EndSplineSet
Validated: 1
EndChar

StartChar: ring
Encoding: 730 730 221
Width: 1084
VWidth: 0
Flags: W
HStem: 1083 173<507.687 652.772> 1441 173<506.744 652.259>
VStem: 320 172<1268.6 1428.15> 667 174<1268.78 1428.97>
LayerCount: 2
Fore
SplineSet
581 1441 m 0
 530 1441 492 1399 492 1349 c 0
 492 1300 528 1256 581 1256 c 0
 629 1256 667 1300 667 1349 c 0
 667 1398 630 1441 581 1441 c 0
841 1349 m 0
 841 1202 724 1083 581 1083 c 0
 439 1083 320 1201 320 1349 c 0
 320 1495 437 1614 580 1614 c 0
 722 1614 841 1497 841 1349 c 0
EndSplineSet
Validated: 1
EndChar

StartChar: breve
Encoding: 728 728 222
Width: 1078
VWidth: 0
Flags: W
HStem: 1082 220<403.187 650.969>
LayerCount: 2
Fore
SplineSet
96 1401 m 5
 288 1504 l 5
 307 1466 l 6
 324 1430 393 1302 522 1302 c 4
 627 1302 728 1397 785 1473 c 5
 809 1504 l 5
 989 1381 l 5
 963 1346 l 5
 857 1206 689 1082 506 1082 c 4
 297 1082 159 1230 108 1368 c 6
 96 1401 l 5
EndSplineSet
Validated: 1
EndChar

StartChar: caron
Encoding: 711 711 223
Width: 1078
VWidth: 0
Flags: W
HStem: 1064 493
VStem: 206 654
DStem2: 533 1363 518 1064 0.688749 0.724999<0 260.384>
LayerCount: 2
Fore
SplineSet
518 1064 m 1
 206 1412 l 1
 358 1557 l 1
 533 1363 l 1
 710 1554 l 1
 860 1424 l 1
 518 1064 l 1
EndSplineSet
Validated: 1
EndChar

StartChar: dotaccent
Encoding: 729 729 224
Width: 1200
VWidth: 0
Flags: W
HStem: 1191 292<444 736>
VStem: 444 292<1191 1483>
LayerCount: 2
Fore
SplineSet
444 1483 m 1
 736 1483 l 1
 736 1191 l 1
 444 1191 l 1
 444 1483 l 1
EndSplineSet
Validated: 1
EndChar

StartChar: trademark
Encoding: 8482 8482 225
Width: 1424
VWidth: 2097
Flags: W
HStem: 918 618<260 408 665 813 1141 1289> 1406 130<85 260 408 583>
VStem: 260 148<918 1406> 665 148<918 1288> 1141 148<918 1291>
LayerCount: 2
Fore
SplineSet
408 918 m 1xb8
 260 918 l 1xb8
 260 1406 l 1
 85 1406 l 1
 85 1536 l 1
 583 1536 l 1
 583 1406 l 1
 408 1406 l 1x78
 408 918 l 1xb8
665 1536 m 1
 821 1536 l 1
 978 1247 l 1
 1129 1536 l 1x78
 1289 1536 l 1
 1289 918 l 1
 1141 918 l 1
 1141 1291 l 1
 1021 1070 l 1
 923 1070 l 1
 813 1288 l 1
 813 918 l 1
 665 918 l 1
 665 1536 l 1
EndSplineSet
Validated: 1
EndChar

StartChar: Amacron
Encoding: 256 256 226
Width: 1547
VWidth: 0
Flags: W
HStem: 0 21G<130 382.548 1263.45 1531> 372 231<620 1025> 1401 20G<685.076 976.91> 1486 211<382 1285>
VStem: 130 244<0 244> 1272 259<0 259>
DStem2: 130 0 374 0 0.368343 0.92969<89.8757 494.287 741.091 1305.81> 969 1421 823 1130 0.367777 -0.929914<216.909 781.265 1028.44 1432.84>
LayerCount: 2
Fore
SplineSet
693 1421 m 1
 969 1421 l 1
 1531 0 l 1
 1272 0 l 1
 1113 372 l 1
 533 372 l 1
 374 0 l 1
 130 0 l 1
 693 1421 l 1
1025 603 m 1
 823 1130 l 1
 620 603 l 1
 1025 603 l 1
382 1697 m 1
 1285 1697 l 1
 1285 1486 l 1
 382 1486 l 1
 382 1697 l 1
EndSplineSet
Validated: 1
EndChar

StartChar: amacron
Encoding: 257 257 227
Width: 1233
VWidth: 0
Flags: W
HStem: -20 211<408.725 761.831> 0 21G<860.385 1053> 396 186<413.84 806> 789 218<275.054 753.843> 1122 211<265 961>
VStem: 123 245<235.713 349.459> 806 247<229.777 396 582 739.314>
LayerCount: 2
Fore
SplineSet
265 1333 m 1x3e
 961 1333 l 1
 961 1122 l 1
 265 1122 l 1
 265 1333 l 1x3e
806 255 m 1
 806 396 l 1
 781 396 l 2
 512 396 368 369 368 291 c 0
 368 246 456 191 582 191 c 0xbe
 604 191 711 192 806 255 c 1
589 1007 m 0
 950 1007 1053 857 1053 645 c 2
 1053 0 l 1
 869 0 l 1x7e
 841 65 l 1
 762 15 651 -20 528 -20 c 0
 282 -20 123 122 123 273 c 0
 123 526 435 578 806 582 c 1
 806 616 l 2
 806 698 789 789 557 789 c 0
 495 789 397 779 269 745 c 1
 229 734 l 1
 178 931 l 1
 213 943 l 1
 331 987 465 1007 589 1007 c 0
EndSplineSet
Validated: 1
EndChar

StartChar: Abreve
Encoding: 258 258 228
Width: 1547
VWidth: 0
Flags: W
HStem: 0 21G<130 382.548 1263.45 1531> 372 231<620 1025> 1401 20G<685.076 976.91> 1475 220<703.015 975.424>
VStem: 130 244<0 244> 1272 259<0 259>
DStem2: 130 0 374 0 0.368343 0.92969<89.8757 494.287 741.091 1305.81> 969 1421 823 1130 0.367777 -0.929914<216.909 781.265 1028.44 1432.84>
LayerCount: 2
Fore
SplineSet
365 1794 m 1
 577 1897 l 1
 597 1859 l 2
 616 1823 692 1695 834 1695 c 0
 949 1695 1060 1790 1123 1866 c 2
 1149 1897 l 1
 1341 1774 l 1
 1315 1739 l 1
 1203 1599 1017 1475 816 1475 c 0
 586 1475 434 1622 378 1761 c 1
 365 1794 l 1
1025 603 m 1
 823 1130 l 1
 620 603 l 1
 1025 603 l 1
693 1421 m 1
 969 1421 l 1
 1531 0 l 1
 1272 0 l 1
 1113 372 l 1
 533 372 l 1
 374 0 l 1
 130 0 l 1
 693 1421 l 1
EndSplineSet
Validated: 1
EndChar

StartChar: abreve
Encoding: 259 259 229
Width: 1233
VWidth: 0
Flags: W
HStem: -20 211<412.099 754.464> 0 21G<858.846 1053> 396 185<421.633 790> 789 217<266.493 741.341> 1041 220<489.403 783.731>
VStem: 123 246<234.53 350.563> 794 259<229.777 396 581 732.158>
LayerCount: 2
Fore
SplineSet
162 1360 m 1x3e
 354 1463 l 1
 374 1425 l 1
 395 1389 476 1261 629 1261 c 0
 753 1261 872 1356 932 1432 c 2
 956 1463 l 1
 1137 1340 l 1
 1111 1305 l 1
 1005 1165 827 1041 610 1041 c 0
 363 1041 225 1189 174 1327 c 2
 162 1360 l 1x3e
794 255 m 1
 794 396 l 1
 770 396 l 2
 508 396 369 369 369 291 c 0
 369 245 454 191 576 191 c 0xbe
 598 191 701 192 794 255 c 1
581 1006 m 0
 969 1006 1053 837 1053 644 c 2
 1053 0 l 1
 869 0 l 1x7e
 836 65 l 1
 751 15 643 -20 523 -20 c 0
 282 -20 123 122 123 273 c 0
 123 526 432 577 790 581 c 1
 790 616 l 2
 790 698 775 789 551 789 c 0
 491 789 396 779 269 745 c 2
 229 734 l 1
 178 931 l 1
 213 943 l 1
 339 990 472 1006 581 1006 c 0
EndSplineSet
Validated: 1
EndChar

StartChar: Cacute
Encoding: 262 262 230
Width: 1615
VWidth: 0
Flags: W
HStem: -20 238<864.335 1388.87> 1199 232<844.508 1363.22>
VStem: 275 253<524.006 898.98>
DStem2: 1510 1352 1430 1134 0.946164 -0.323688<-334.411 35.033> 1448 276 1530 73 0.94346 0.331486<-296.098 39.2173>
LayerCount: 2
Fore
SplineSet
1198 1992 m 1
 1322 1797 l 1
 672 1461 l 1
 559 1639 l 1
 1198 1992 l 1
275 709 m 0
 275 1119 573 1431 1085 1431 c 0
 1208 1431 1360 1411 1510 1352 c 1
 1547 1337 l 1
 1468 1121 l 1
 1430 1134 l 1
 1266 1189 1150 1199 1079 1199 c 0
 737 1199 528 965 528 710 c 0
 528 445 752 218 1120 218 c 0
 1221 218 1338 237 1448 276 c 2
 1485 289 l 1
 1567 89 l 1
 1530 73 l 2
 1381 9 1217 -20 1072 -20 c 0
 561 -20 275 306 275 709 c 0
EndSplineSet
Validated: 1
EndChar

StartChar: cacute
Encoding: 263 263 231
Width: 1165
VWidth: 0
Flags: W
HStem: -20 217<523.905 976.765> 783 223<506.653 981.723>
VStem: 130 241<337.996 659.167>
DStem2: 307 1189 451 1026 0.801139 0.598479<17.8119 631.601>
LayerCount: 2
Fore
SplineSet
130 473 m 0
 130 875 413 1006 713 1006 c 0
 833 1006 933 984 1025 944 c 2
 1060 929 l 1
 995 734 l 1
 956 747 l 2
 890 770 821 783 738 783 c 0
 553 783 371 727 371 504 c 0
 371 282 526 197 760 197 c 0
 829 197 888 208 944 228 c 1
 983 241 l 1
 1050 52 l 1
 1013 38 l 2
 902 -5 792 -20 690 -20 c 0
 409 -20 130 89 130 473 c 0
813 1567 m 1
 959 1394 l 1
 451 1026 l 1
 307 1189 l 1
 813 1567 l 1
EndSplineSet
Validated: 1
EndChar

StartChar: Ccircumflex
Encoding: 264 264 232
Width: 1615
VWidth: 0
Flags: W
HStem: -20 238<864.335 1388.87> 1199 232<844.508 1363.22>
VStem: 275 253<524.006 898.98>
DStem2: 1510 1352 1430 1134 0.946164 -0.323688<-334.411 35.033> 1448 276 1530 73 0.94346 0.331486<-296.098 39.2173>
LayerCount: 2
Fore
SplineSet
275 709 m 0
 275 1119 573 1431 1085 1431 c 0
 1208 1431 1360 1411 1510 1352 c 1
 1547 1337 l 1
 1468 1121 l 1
 1430 1134 l 1
 1266 1189 1150 1199 1079 1199 c 0
 737 1199 528 965 528 710 c 0
 528 445 752 218 1120 218 c 0
 1221 218 1338 237 1448 276 c 2
 1485 289 l 1
 1567 89 l 1
 1530 73 l 2
 1381 9 1217 -20 1072 -20 c 0
 561 -20 275 306 275 709 c 0
980 1951 m 5
 1328 1603 l 5
 1158 1458 l 5
 964 1652 l 5
 766 1461 l 5
 599 1594 l 5
 980 1951 l 5
EndSplineSet
Validated: 1
EndChar

StartChar: ccircumflex
Encoding: 265 265 233
Width: 1165
VWidth: 0
Flags: W
HStem: -20 217<523.905 976.765> 783 223<506.653 981.723>
VStem: 130 241<337.996 659.167>
DStem2: 267 1160 426 1027 0.742734 0.669586<29.0398 319.59> 663 1517 645 1218 0.698837 -0.715281<201.29 484.015>
LayerCount: 2
Fore
SplineSet
130 473 m 0
 130 875 413 1006 713 1006 c 0
 833 1006 933 984 1025 944 c 2
 1060 929 l 1
 995 734 l 1
 956 747 l 2
 890 770 821 783 738 783 c 0
 553 783 371 727 371 504 c 0
 371 282 526 197 760 197 c 0
 829 197 888 208 944 228 c 1
 983 241 l 1
 1050 52 l 1
 1013 38 l 2
 902 -5 792 -20 690 -20 c 0
 409 -20 130 89 130 473 c 0
663 1517 m 1
 1003 1169 l 1
 851 1024 l 1
 645 1218 l 1
 426 1027 l 1
 267 1160 l 1
 663 1517 l 1
EndSplineSet
Validated: 1
EndChar

StartChar: Cdotaccent
Encoding: 266 266 234
Width: 1615
VWidth: 0
Flags: W
HStem: -20 238<864.335 1388.87> 1199 232<844.508 1363.22> 1537 292<781 1106>
VStem: 275 253<524.006 898.98> 781 325<1537 1829>
DStem2: 1510 1352 1430 1134 0.946164 -0.323688<-334.411 35.033> 1448 276 1530 73 0.94346 0.331486<-296.098 39.2173>
LayerCount: 2
Fore
SplineSet
781 1829 m 1
 1106 1829 l 1
 1106 1537 l 1
 781 1537 l 1
 781 1829 l 1
275 709 m 0
 275 1119 573 1431 1085 1431 c 0
 1208 1431 1360 1411 1510 1352 c 1
 1547 1337 l 1
 1468 1121 l 1
 1430 1134 l 1
 1266 1189 1150 1199 1079 1199 c 0
 737 1199 528 965 528 710 c 0
 528 445 752 218 1120 218 c 0
 1221 218 1338 237 1448 276 c 2
 1485 289 l 1
 1567 89 l 1
 1530 73 l 2
 1381 9 1217 -20 1072 -20 c 0
 561 -20 275 306 275 709 c 0
EndSplineSet
Validated: 1
EndChar

StartChar: cdotaccent
Encoding: 267 267 235
Width: 1165
VWidth: 0
Flags: W
HStem: -20 217<523.905 976.765> 783 223<506.653 981.723> 1130 291<505 849>
VStem: 130 241<337.996 659.167> 505 344<1130 1421>
LayerCount: 2
Fore
SplineSet
130 473 m 0
 130 875 413 1006 713 1006 c 0
 833 1006 933 984 1025 944 c 2
 1060 929 l 1
 995 734 l 1
 956 747 l 2
 890 770 821 783 738 783 c 0
 553 783 371 727 371 504 c 0
 371 282 526 197 760 197 c 0
 829 197 888 208 944 228 c 1
 983 241 l 1
 1050 52 l 1
 1013 38 l 2
 902 -5 792 -20 690 -20 c 0
 409 -20 130 89 130 473 c 0
505 1421 m 5
 849 1421 l 5
 849 1130 l 5
 505 1130 l 5
 505 1421 l 5
EndSplineSet
Validated: 1
EndChar

StartChar: Ccaron
Encoding: 268 268 236
Width: 1615
VWidth: 0
Flags: W
HStem: -20 238<864.335 1388.87> 1199 232<844.508 1363.22>
VStem: 275 253<524.006 898.98>
DStem2: 993 1756 977 1457 0.726104 0.687584<0 275.097> 1510 1352 1430 1134 0.946164 -0.323688<-334.411 35.033> 1448 276 1530 73 0.94346 0.331486<-296.098 39.2173>
LayerCount: 2
Fore
SplineSet
275 709 m 0
 275 1119 573 1431 1085 1431 c 0
 1208 1431 1360 1411 1510 1352 c 1
 1547 1337 l 1
 1468 1121 l 1
 1430 1134 l 1
 1266 1189 1150 1199 1079 1199 c 0
 737 1199 528 965 528 710 c 0
 528 445 752 218 1120 218 c 0
 1221 218 1338 237 1448 276 c 2
 1485 289 l 1
 1567 89 l 1
 1530 73 l 2
 1381 9 1217 -20 1072 -20 c 0
 561 -20 275 306 275 709 c 0
977 1457 m 1
 629 1805 l 1
 799 1950 l 1
 993 1756 l 1
 1191 1947 l 1
 1354 1814 l 1
 977 1457 l 1
EndSplineSet
Validated: 1
EndChar

StartChar: ccaron
Encoding: 269 269 237
Width: 1165
VWidth: 0
Flags: W
HStem: -20 217<523.905 976.765> 783 223<506.653 981.723>
VStem: 130 241<337.996 659.167>
DStem2: 645 1322 628 1023 0.723225 0.690613<0 283.784>
LayerCount: 2
Fore
SplineSet
130 473 m 0
 130 875 413 1006 713 1006 c 0
 833 1006 933 984 1025 944 c 2
 1060 929 l 1
 995 734 l 1
 956 747 l 2
 890 770 821 783 738 783 c 0
 553 783 371 727 371 504 c 0
 371 282 526 197 760 197 c 0
 829 197 888 208 944 228 c 1
 983 241 l 1
 1050 52 l 1
 1013 38 l 2
 902 -5 792 -20 690 -20 c 0
 409 -20 130 89 130 473 c 0
628 1023 m 1
 269 1371 l 1
 432 1516 l 1
 645 1322 l 1
 855 1513 l 1
 1005 1383 l 1
 628 1023 l 1
EndSplineSet
Validated: 1
EndChar

StartChar: Dcaron
Encoding: 270 270 238
Width: 1762
VWidth: 0
Flags: W
HStem: 0 232<542 1062.96> 1189 232<542 1061.92>
VStem: 290 252<232 1189> 1349 253<500.71 927.818>
DStem2: 906 1757 891 1458 0.688749 0.724999<0 260.384>
LayerCount: 2
Back
SplineSet
772 1421 m 5xb8
 1447 1421 1610 1065 1610 752 c 4
 1610 463 1495 125 1054 31 c 4
 911 0 768 0 647 -0 c 4
 644 0 642 0 639 0 c 6
 290 0 l 5
 290 1421 l 5xb8
 772 1421 l 5xb8
778 1189 m 6xd8
 542 1189 l 5xb8
 542 232 l 5
 708 232 l 6
 883 232 1147 237 1284 452 c 4
 1314 499 1356 586 1356 719 c 4
 1356 1022 1123 1155 924 1182 c 4
 878 1188 829 1189 778 1189 c 6xd8
902 1457 m 5
 572 1805 l 5
 724 1950 l 5
 919 1756 l 5
 1125 1947 l 5
 1299 1814 l 5
 902 1457 l 5
EndSplineSet
Fore
SplineSet
891 1458 m 1
 579 1806 l 1
 731 1951 l 1
 906 1757 l 1
 1083 1948 l 1
 1233 1818 l 1
 891 1458 l 1
801 1189 m 2
 542 1189 l 1
 542 232 l 1
 725 232 l 2
 900 232 1151 237 1281 452 c 0
 1309 499 1349 586 1349 719 c 0
 1349 1022 1128 1155 939 1182 c 0
 896 1188 849 1189 801 1189 c 2
794 1421 m 2
 1438 1421 1602 1065 1602 752 c 0
 1602 463 1487 127 1063 31 c 0
 928 1 791 0 658 0 c 2
 290 0 l 1
 290 1421 l 1
 794 1421 l 2
EndSplineSet
Validated: 1
EndChar

StartChar: dcaron
Encoding: 271 271 239
Width: 1724
VWidth: 2097
Flags: W
HStem: -20 217<519.101 907.333> 0 21G<971.304 1162> 797 211<510.867 913.153> 1491 20G<916 1162 1379.97 1689>
VStem: 130 242<334.025 668.01> 916 246<218.516 778.016 974 1511> 1176 299<1039 1338> 1389 300<1211 1511>
DStem2: 1176 1039 1475 1039 0.41293 0.910763<123.466 517.834>
LayerCount: 2
Fore
SplineSet
1389 1511 m 1x3d
 1689 1511 l 1x3d
 1475 1039 l 1
 1176 1039 l 1x3e
 1389 1511 l 1x3d
130 478 m 0
 130 824 356 1008 683 1008 c 0
 772 1008 848 994 916 974 c 1
 916 1511 l 1
 1162 1511 l 1
 1162 0 l 1
 980 0 l 1x7c
 960 46 l 1
 857 -1 747 -20 650 -20 c 0xbc
 400 -20 130 104 130 478 c 0
713 197 m 0xbc
 791 197 862 213 916 232 c 1
 916 767 l 1
 863 782 789 797 711 797 c 0
 578 797 372 751 372 502 c 0
 372 250 576 197 713 197 c 0xbc
EndSplineSet
Validated: 1
EndChar

StartChar: Dcroat
Encoding: 272 272 240
Width: 1769
VWidth: 0
Flags: W
HStem: 0 232<587 1086.99> 617 232<117 335 587 848> 1189 232<587 1098.36>
VStem: 335 252<232 617 849 1189> 1401 254<490.549 920.515>
LayerCount: 2
Back
SplineSet
817 1421 m 5xdc
 1492 1421 1655 1065 1655 752 c 4
 1655 463 1540 125 1099 31 c 4
 956 0 813 0 692 -0 c 4
 689 0 687 0 684 0 c 6
 335 0 l 5
 335 617 l 5
 117 617 l 5
 117 849 l 5
 335 849 l 5
 335 1421 l 5xdc
 335 1421 484 1439 627 1439 c 4xec
 698 1439 768 1435 817 1421 c 5xdc
847 617 m 5
 587 617 l 5
 587 232 l 5
 753 232 l 6
 928 232 1192 237 1329 452 c 4
 1359 499 1401 586 1401 719 c 4
 1401 1022 1168 1155 969 1182 c 4
 923 1188 874 1189 823 1189 c 6xec
 587 1189 l 5
 587 849 l 5
 847 849 l 5
 847 617 l 5
EndSplineSet
Fore
SplineSet
824 1189 m 2
 587 1189 l 1
 587 849 l 1
 848 849 l 1
 848 617 l 1
 587 617 l 1
 587 232 l 1
 753 232 l 2
 1006 232 1401 263 1401 719 c 0
 1401 917 1295 1189 824 1189 c 2
335 1421 m 1
 811 1421 l 2
 1031 1421 1655 1388 1655 752 c 0
 1655 43 1039 0 747 0 c 2
 335 0 l 1
 335 617 l 1
 117 617 l 1
 117 849 l 1
 335 849 l 1
 335 1421 l 1
EndSplineSet
Validated: 1
EndChar

StartChar: Emacron
Encoding: 274 274 241
Width: 1447
VWidth: 0
Flags: W
HStem: 0 232<543 1287> 616 232<543 1232> 1189 232<543 1287> 1486 211<360 1257>
VStem: 290 253<232 616 848 1189>
LayerCount: 2
Fore
SplineSet
290 0 m 1
 290 1421 l 1
 1287 1421 l 1
 1287 1189 l 1
 543 1189 l 1
 543 848 l 1
 1232 848 l 1
 1232 616 l 1
 543 616 l 1
 543 232 l 1
 1287 232 l 1
 1287 0 l 1
 290 0 l 1
360 1697 m 1
 1257 1697 l 1
 1257 1486 l 1
 360 1486 l 1
 360 1697 l 1
EndSplineSet
Validated: 1
EndChar

StartChar: emacron
Encoding: 275 275 242
Width: 1266
VWidth: 0
Flags: W
HStem: -20 213<525.131 1015.47> 37 190<868.866 1041.64> 376 206<382 894> 783 224<490.247 821.21> 1102 231<266 1022>
LayerCount: 2
Fore
SplineSet
130 464 m 0xb8
 130 843 398 1007 697 1007 c 0
 1117 1007 1136 696 1136 488 c 2
 1136 376 l 1
 380 376 l 1
 406 288 532 193 767 193 c 0xb8
 861 193 945 211 1000 227 c 2
 1041 239 l 1
 1090 49 l 1
 1054 37 l 2x78
 966 7 845 -20 694 -20 c 0
 243 -20 130 235 130 464 c 0xb8
656 783 m 0
 490 783 398 688 382 582 c 1
 894 582 l 1
 883 734 791 783 656 783 c 0
266 1333 m 1
 1022 1333 l 1
 1022 1102 l 1
 266 1102 l 1
 266 1333 l 1
EndSplineSet
Validated: 1
EndChar

StartChar: Ebreve
Encoding: 276 276 243
Width: 1447
VWidth: 0
Flags: W
HStem: 0 232<543 1287> 616 232<543 1232> 1189 232<543 1287> 1477 218<645.49 945.931>
VStem: 290 253<232 616 848 1189>
LayerCount: 2
Fore
SplineSet
1117 1897 m 1
 1298 1774 l 1
 1272 1739 l 1
 1136 1559 952 1477 768 1477 c 0
 558 1477 398 1585 334 1761 c 2
 322 1794 l 1
 516 1897 l 1
 534 1859 l 1
 591 1757 686 1695 790 1695 c 0
 878 1695 987 1739 1093 1866 c 1
 1117 1897 l 1
290 0 m 1
 290 1421 l 1
 1287 1421 l 1
 1287 1189 l 1
 543 1189 l 1
 543 848 l 1
 1232 848 l 1
 1232 616 l 1
 543 616 l 1
 543 232 l 1
 1287 232 l 1
 1287 0 l 1
 290 0 l 1
EndSplineSet
Validated: 1
EndChar

StartChar: ebreve
Encoding: 277 277 244
Width: 1266
VWidth: 0
Flags: W
HStem: -20 213<529.948 1014.89> 37 190<863.283 1041.64> 376 206<382 884> 783 224<487.686 806.2> 1041 220<555.397 845.648>
LayerCount: 2
Fore
SplineSet
130 464 m 0xb8
 130 843 398 1007 691 1007 c 0
 1117 1007 1136 696 1136 488 c 2
 1136 376 l 1
 380 376 l 1
 405 288 530 193 760 193 c 0xb8
 852 193 945 211 1000 227 c 2
 1041 239 l 1
 1090 49 l 1
 1054 37 l 2x78
 966 7 835 -20 687 -20 c 0
 242 -20 130 235 130 464 c 0xb8
650 783 m 0
 487 783 398 688 382 582 c 1
 884 582 l 1
 872 734 782 783 650 783 c 0
222 1360 m 1
 421 1463 l 1
 442 1425 l 2
 462 1389 543 1261 693 1261 c 0
 815 1261 932 1356 992 1432 c 2
 1016 1463 l 1
 1197 1340 l 1
 1171 1305 l 1
 1065 1165 888 1041 675 1041 c 0
 431 1041 285 1189 234 1327 c 2
 222 1360 l 1
EndSplineSet
Validated: 1
EndChar

StartChar: Edotaccent
Encoding: 278 278 245
Width: 1447
VWidth: 0
Flags: W
HStem: 0 232<543 1287> 616 232<543 1232> 1189 232<543 1287> 1537 292<603 951>
VStem: 290 253<232 616 848 1189> 603 348<1537 1829>
LayerCount: 2
Fore
SplineSet
290 0 m 1
 290 1421 l 1
 1287 1421 l 1
 1287 1189 l 1
 543 1189 l 1
 543 848 l 1
 1232 848 l 1
 1232 616 l 1
 543 616 l 1
 543 232 l 1
 1287 232 l 1
 1287 0 l 1
 290 0 l 1
603 1829 m 1
 951 1829 l 1
 951 1537 l 1
 603 1537 l 1
 603 1829 l 1
EndSplineSet
Validated: 1
EndChar

StartChar: edotaccent
Encoding: 279 279 246
Width: 1266
VWidth: 0
Flags: W
HStem: -20 213<525.131 1015.47> 37 190<868.866 1041.64> 376 206<382 894> 783 224<490.247 821.21> 1130 291<521 869>
VStem: 521 348<1130 1421>
LayerCount: 2
Fore
SplineSet
130 464 m 0xbc
 130 843 398 1007 697 1007 c 0
 1117 1007 1136 696 1136 488 c 2
 1136 376 l 1
 380 376 l 1
 406 288 532 193 767 193 c 0xbc
 861 193 945 211 1000 227 c 2
 1041 239 l 1
 1090 49 l 1
 1054 37 l 2x7c
 966 7 845 -20 694 -20 c 0
 243 -20 130 235 130 464 c 0xbc
656 783 m 0
 490 783 398 688 382 582 c 1
 894 582 l 1
 883 734 791 783 656 783 c 0
521 1421 m 1
 869 1421 l 1
 869 1130 l 1
 521 1130 l 1
 521 1421 l 1
EndSplineSet
Validated: 1
EndChar

StartChar: Ecaron
Encoding: 282 282 247
Width: 1447
VWidth: 0
Flags: W
HStem: 0 232<543 1287> 616 232<543 1232> 1189 232<543 1287>
VStem: 290 253<232 616 848 1189>
DStem2: 789 1756 772 1457 0.734147 0.678991<0 286.061>
LayerCount: 2
Fore
SplineSet
290 0 m 1
 290 1421 l 1
 1287 1421 l 1
 1287 1189 l 1
 543 1189 l 1
 543 848 l 1
 1232 848 l 1
 1232 616 l 1
 543 616 l 1
 543 232 l 1
 1287 232 l 1
 1287 0 l 1
 290 0 l 1
772 1457 m 1
 422 1805 l 1
 580 1950 l 1
 789 1756 l 1
 1002 1947 l 1
 1158 1814 l 1
 772 1457 l 1
EndSplineSet
Validated: 1
EndChar

StartChar: ecaron
Encoding: 283 283 248
Width: 1266
VWidth: 0
Flags: W
HStem: -20 213<525.131 1015.47> 37 190<868.866 1041.64> 376 206<382 894> 783 224<490.247 821.21>
DStem2: 710 1322 694 1023 0.719534 0.694457<0 281.585>
LayerCount: 2
Fore
SplineSet
130 464 m 0xb0
 130 843 398 1007 697 1007 c 0
 1117 1007 1136 696 1136 488 c 2
 1136 376 l 1
 380 376 l 1
 406 288 532 193 767 193 c 0xb0
 861 193 945 211 1000 227 c 2
 1041 239 l 1
 1090 49 l 1
 1054 37 l 2x70
 966 7 845 -20 694 -20 c 0
 243 -20 130 235 130 464 c 0xb0
656 783 m 0
 490 783 398 688 382 582 c 1
 894 582 l 1
 883 734 791 783 656 783 c 0
694 1023 m 1
 331 1371 l 1
 504 1516 l 1
 710 1322 l 1
 917 1513 l 1
 1067 1383 l 1
 694 1023 l 1
EndSplineSet
Validated: 1
EndChar

StartChar: Gcircumflex
Encoding: 284 284 249
Width: 1755
VWidth: 0
Flags: W
HStem: -20 233<812.246 1285.56> 569 222<913 1358> 1200 232<785.695 1290.04>
VStem: 215 253<521.759 912.333> 1358 247<270.145 569>
LayerCount: 2
Fore
SplineSet
1605 206 m 1
 1552 148 1390 -20 1013 -20 c 0
 447 -20 215 359 215 709 c 0
 215 1080 478 1432 1010 1432 c 0
 1220 1432 1399 1373 1519 1306 c 1
 1554 1286 l 1
 1449 1088 l 1
 1413 1107 l 1
 1334 1147 1179 1200 1020 1200 c 0
 739 1200 468 1023 468 719 c 0
 468 424 717 213 1057 213 c 0
 1191 213 1289 247 1358 296 c 1
 1358 569 l 1
 913 569 l 1
 913 791 l 1
 1605 791 l 1
 1605 206 l 1
962 1951 m 1
 1305 1603 l 1
 1137 1458 l 1
 947 1652 l 1
 750 1461 l 1
 585 1594 l 1
 962 1951 l 1
EndSplineSet
Validated: 1
EndChar

StartChar: gcircumflex
Encoding: 285 285 250
Width: 1340
VWidth: 0
Flags: W
HStem: -541 219<302.188 760.748> -20 217<515.12 901.013> 793 215<501.002 900.701> 968 20G<966.628 1160>
VStem: 128 242<343.323 659.667> 904 256<-178.489 25 219.359 766.39>
DStem2: 267 -265 192 -458 0.946164 -0.323688<0 287.474> 310 1160 473 1027 0.734147 0.678991<29.3602 310.282>
LayerCount: 2
Fore
SplineSet
310 1160 m 1xcc
 696 1517 l 1
 1046 1169 l 1
 881 1024 l 1
 679 1218 l 1
 473 1027 l 1
 310 1160 l 1xcc
668 1008 m 0xec
 714 1008 803 1006 957 945 c 1
 975 988 l 1
 1160 988 l 1xdc
 1160 -21 l 2
 1160 -255 1055 -541 579 -541 c 0
 476 -541 348 -524 229 -474 c 1
 192 -458 l 1
 267 -265 l 1
 305 -278 l 1
 386 -307 477 -322 555 -322 c 0
 919 -322 903 -45 904 25 c 1
 830 -1 744 -20 650 -20 c 0
 393 -20 128 115 128 491 c 0
 128 883 447 1008 668 1008 c 0xec
370 508 m 0
 370 336 478 197 703 197 c 0
 781 197 851 214 904 233 c 1
 904 755 l 1
 800 785 727 793 680 793 c 0xec
 494 793 370 683 370 508 c 0
EndSplineSet
Validated: 1
EndChar

StartChar: Gbreve
Encoding: 286 286 251
Width: 1755
VWidth: 0
Flags: W
HStem: -20 233<814.708 1285.56> 569 222<913 1358> 1200 232<795.543 1290.04> 1475 220<839.256 1113.68>
VStem: 216 252<522.319 914.425> 1358 247<270.145 569>
LayerCount: 2
Fore
SplineSet
501 1794 m 1
 712 1897 l 1
 733 1859 l 2
 752 1823 827 1695 970 1695 c 0
 1085 1695 1196 1790 1259 1866 c 2
 1285 1897 l 1
 1472 1774 l 1
 1446 1739 l 1
 1344 1606 1161 1475 953 1475 c 0
 723 1475 570 1622 514 1761 c 1
 501 1794 l 1
1605 206 m 1
 1552 148 1390 -20 1013 -20 c 0
 464 -20 216 335 216 697 c 0
 216 1064 473 1432 1010 1432 c 0
 1220 1432 1399 1373 1519 1306 c 1
 1554 1286 l 1
 1449 1088 l 1
 1413 1107 l 1
 1334 1147 1179 1200 1020 1200 c 0
 739 1200 468 1023 468 719 c 0
 468 424 717 213 1057 213 c 0
 1191 213 1289 247 1358 296 c 1
 1358 569 l 1
 913 569 l 1
 913 791 l 1
 1605 791 l 1
 1605 206 l 1
EndSplineSet
Validated: 1
EndChar

StartChar: gbreve
Encoding: 287 287 252
Width: 1340
VWidth: 0
Flags: W
HStem: -541 219<302.188 757.594> -20 217<515.12 901.013> 793 215<501.002 900.701> 968 20G<966.628 1160> 1041 220<567.287 856.311>
VStem: 128 242<343.323 659.667> 904 256<-181.528 25 219.359 766.39>
DStem2: 267 -265 192 -458 0.946164 -0.323688<0 287.474>
LayerCount: 2
Fore
SplineSet
579 -541 m 0xde
 476 -541 348 -524 229 -474 c 1
 192 -458 l 1
 267 -265 l 1
 305 -278 l 1
 386 -307 477 -322 555 -322 c 0
 919 -322 903 -45 904 25 c 1
 830 -1 744 -20 650 -20 c 0
 393 -20 128 115 128 491 c 0
 128 883 447 1008 668 1008 c 0xee
 714 1008 803 1006 957 945 c 1
 975 988 l 1
 1160 988 l 1
 1160 -7 l 2
 1160 -425 866 -541 579 -541 c 0xde
370 508 m 0
 370 336 478 197 703 197 c 0
 781 197 851 214 904 233 c 1
 904 755 l 1
 800 785 727 793 680 793 c 0
 494 793 370 683 370 508 c 0
245 1327 m 2
 233 1360 l 1
 434 1463 l 1
 455 1425 l 2
 475 1389 555 1261 704 1261 c 0
 826 1261 942 1356 1004 1432 c 1
 1028 1463 l 1
 1208 1340 l 1
 1182 1305 l 1
 1076 1165 898 1041 686 1041 c 0
 444 1041 296 1189 245 1327 c 2
EndSplineSet
Validated: 1
EndChar

StartChar: Gdotaccent
Encoding: 288 288 253
Width: 1755
VWidth: 0
Flags: W
HStem: -20 233<812.246 1285.56> 569 222<913 1358> 1200 232<785.695 1290.04> 1537 292<831 1152>
VStem: 215 253<521.759 912.333> 831 321<1537 1829> 1358 247<270.145 569>
DStem2: 1519 1306 1413 1107 0.884385 -0.466759<-249.902 39.8464>
LayerCount: 2
Fore
SplineSet
831 1829 m 1
 1152 1829 l 1
 1152 1537 l 1
 831 1537 l 1
 831 1829 l 1
1605 206 m 1
 1552 148 1390 -20 1013 -20 c 0
 447 -20 215 359 215 709 c 0
 215 1080 478 1432 1010 1432 c 0
 1220 1432 1399 1373 1519 1306 c 1
 1554 1286 l 1
 1449 1088 l 1
 1413 1107 l 1
 1334 1147 1179 1200 1020 1200 c 0
 739 1200 468 1023 468 719 c 0
 468 424 717 213 1057 213 c 0
 1191 213 1289 247 1358 296 c 1
 1358 569 l 1
 913 569 l 1
 913 791 l 1
 1605 791 l 1
 1605 206 l 1
EndSplineSet
Validated: 1
EndChar

StartChar: gdotaccent
Encoding: 289 289 254
Width: 1340
VWidth: 0
Flags: W
HStem: -541 219<301.297 760.748> -20 217<515.12 901.013> 793 215<501.002 900.701> 968 20G<966.628 1160> 1130 291<499 837>
VStem: 128 242<343.323 659.667> 499 338<1130 1421> 904 256<-178.489 25 219.359 766.39>
LayerCount: 2
Fore
SplineSet
499 1130 m 1xcf
 499 1421 l 1
 837 1421 l 1
 837 1130 l 1
 499 1130 l 1xcf
370 508 m 0
 370 336 478 197 703 197 c 0
 781 197 851 214 904 233 c 1
 904 755 l 1
 800 785 727 793 680 793 c 0xef
 494 793 370 683 370 508 c 0
668 1008 m 0
 714 1008 803 1006 957 945 c 1
 975 988 l 1
 1160 988 l 1xdf
 1160 -21 l 2
 1160 -255 1055 -541 579 -541 c 0
 476 -541 348 -524 229 -474 c 1
 192 -458 l 1
 267 -264 l 1
 305 -279 l 2
 358 -299 451 -322 555 -322 c 0
 919 -322 903 -45 904 25 c 1
 830 -1 744 -20 650 -20 c 0
 393 -20 128 115 128 491 c 0
 128 883 447 1008 668 1008 c 0
EndSplineSet
Validated: 1
EndChar

StartChar: Gcommaaccent
Encoding: 290 290 255
Width: 1755
VWidth: 0
Flags: W
HStem: -20 233<812.246 1285.56> 569 222<913 1358> 1200 232<785.862 1290.04>
VStem: 215 253<521.759 912.519> 733 295<-531 -236> 943 296<-355 -59> 1358 247<270.145 569>
DStem2: 733 -531 1028 -531 0.408112 0.912932<120.393 516.607>
LayerCount: 2
Fore
SplineSet
1605 206 m 1xf2
 1552 148 1390 -20 1013 -20 c 0
 447 -20 215 359 215 709 c 0
 215 1081 479 1432 1010 1432 c 0
 1220 1432 1399 1373 1519 1306 c 1
 1554 1286 l 1
 1449 1088 l 1
 1413 1107 l 1
 1334 1147 1179 1200 1020 1200 c 0
 739 1200 468 1023 468 719 c 0
 468 424 717 213 1057 213 c 0
 1191 213 1289 247 1358 296 c 1
 1358 569 l 1
 913 569 l 1
 913 791 l 1
 1605 791 l 1
 1605 206 l 1xf2
943 -59 m 1xf6
 1239 -59 l 1xf6
 1028 -531 l 1
 733 -531 l 1xfa
 943 -59 l 1xf6
EndSplineSet
Validated: 1
EndChar

StartChar: Hcircumflex
Encoding: 292 292 256
Width: 1764
VWidth: 0
Flags: W
HStem: 0 21G<290 542 1302 1554> 617 232<542 1302> 1401 20G<290 542 1302 1554>
VStem: 290 252<0 617 849 1421> 1302 252<0 617 849 1421>
LayerCount: 2
Fore
SplineSet
1302 1421 m 1
 1554 1421 l 1
 1554 0 l 1
 1302 0 l 1
 1302 617 l 1
 542 617 l 1
 542 0 l 1
 290 0 l 1
 290 1421 l 1
 542 1421 l 1
 542 849 l 1
 1302 849 l 1
 1302 1421 l 1
945 1956 m 5
 1295 1608 l 5
 1124 1463 l 5
 929 1657 l 5
 730 1466 l 5
 563 1599 l 5
 945 1956 l 5
EndSplineSet
Validated: 1
EndChar

StartChar: hcircumflex
Encoding: 293 293 257
Width: 1355
VWidth: 0
Flags: W
HStem: 0 21G<190 436 925 1175> 778 228<508.142 862.59> 1491 20G<190 436>
VStem: 190 246<0 738.57 937 1511> 925 250<0 713.862>
DStem2: 345 1649 496 1516 0.73061 0.682795<19.5103 307.005>
LayerCount: 2
Fore
SplineSet
704 778 m 0
 652 778 560 769 436 723 c 1
 436 0 l 1
 190 0 l 1
 190 1511 l 1
 436 1511 l 1
 436 937 l 1
 524 970 651 1006 781 1006 c 0
 1161 1006 1175 714 1175 562 c 2
 1175 0 l 1
 925 0 l 1
 925 577 l 2
 925 630 923 778 704 778 c 0
727 2006 m 5
 1081 1658 l 5
 919 1513 l 5
 711 1707 l 5
 496 1516 l 5
 345 1649 l 5
 727 2006 l 5
EndSplineSet
Validated: 1
EndChar

StartChar: Itilde
Encoding: 296 296 258
Width: 812
VWidth: 0
Flags: W
HStem: 0 21G<329 581> 1401 20G<329 581>
VStem: 84 183<1538.16 1647.5> 329 252<0 1421> 644 182<1714.29 1827.02>
LayerCount: 2
Back
SplineSet
305 1630 m 6
 267 1493 l 5
 84 1542 l 5
 121 1680 l 6
 128 1706 165 1866 339 1866 c 4
 437 1866 483 1799 500 1775 c 6
 548 1712 l 6
 560 1698 573 1681 582 1677 c 5
 590 1685 600 1711 605 1734 c 5
 644 1874 l 5
 826 1823 l 5
 790 1687 l 6
 777 1640 730 1468 568 1468 c 4
 470 1468 422 1545 410 1561 c 6
 362 1625 l 6
 345 1646 328 1661 319 1662 c 5
 314 1658 309 1644 305 1630 c 6
329 0 m 5
 329 1421 l 5
 581 1421 l 5
 581 0 l 5
 329 0 l 5
583 1677 m 5
 583 1677 l 5
EndSplineSet
Fore
SplineSet
568 1468 m 4
 416 1468 369 1660 325 1660 c 4
 311 1660 309 1646 267 1493 c 5
 84 1542 l 5
 124 1690 144 1866 339 1866 c 4
 497 1866 539 1681 581 1681 c 4
 594 1681 594 1694 644 1874 c 5
 826 1823 l 5
 788 1679 756 1468 568 1468 c 4
329 0 m 1
 329 1421 l 1
 581 1421 l 1
 581 0 l 1
 329 0 l 1
EndSplineSet
Validated: 1
EndChar

StartChar: itilde
Encoding: 297 297 259
Width: 606
VWidth: 0
Flags: W
HStem: 0 21G<180 426> 968 20G<180 426>
VStem: -58 183<1191.16 1300.5> 180 246<0 988> 502 182<1367.29 1480.02>
LayerCount: 2
Back
SplineSet
752 1248 m 4
 823 1248 853 1333 902 1430 c 5
 1006 1383 l 5
 954 1276 896 1126 752 1126 c 4
 594 1126 525 1306 433 1306 c 4
 362 1306 333 1222 284 1124 c 5
 178 1171 l 5
 230 1278 289 1428 433 1428 c 4
 591 1428 660 1248 752 1248 c 4
EndSplineSet
Fore
SplineSet
180 988 m 1
 426 988 l 1
 426 0 l 1
 180 0 l 1
 180 988 l 1
426 1121 m 0
 274 1121 227 1313 183 1313 c 0
 169 1313 167 1299 125 1146 c 1
 -58 1195 l 1
 -18 1343 2 1519 197 1519 c 0
 355 1519 397 1334 439 1334 c 0
 452 1334 452 1347 502 1527 c 1
 684 1476 l 1
 646 1332 614 1121 426 1121 c 0
EndSplineSet
Validated: 1
EndChar

StartChar: Imacron
Encoding: 298 298 260
Width: 812
VWidth: 0
Flags: W
HStem: 0 21G<320 572> 1401 20G<320 572> 1486 211<200 692>
VStem: 320 252<0 1421>
LayerCount: 2
Fore
SplineSet
200 1697 m 1
 692 1697 l 1
 692 1486 l 1
 200 1486 l 1
 200 1697 l 1
320 1421 m 1
 572 1421 l 1
 572 0 l 1
 320 0 l 1
 320 1421 l 1
EndSplineSet
Validated: 1
EndChar

StartChar: imacron
Encoding: 299 299 261
Width: 606
VWidth: 0
Flags: W
HStem: 0 21G<180 426> 968 20G<180 426> 1122 211<80 526>
VStem: 180 246<0 988>
LayerCount: 2
Fore
SplineSet
180 988 m 1
 426 988 l 1
 426 0 l 1
 180 0 l 1
 180 988 l 1
80 1333 m 1
 526 1333 l 1
 526 1122 l 1
 80 1122 l 1
 80 1333 l 1
EndSplineSet
Validated: 1
EndChar

StartChar: Ibreve
Encoding: 300 300 262
Width: 894
VWidth: 0
Flags: W
HStem: 0 21G<328 580> 1401 20G<328 580> 1472 220<357.08 575.675>
VStem: 328 252<0 1421>
LayerCount: 2
Back
SplineSet
83 1787 m 5
 277 1891 l 5
 294 1847 l 6
 327 1760 387 1705 450 1705 c 4
 518 1705 577 1758 731 1855 c 5
 757 1890 l 5
 910 1763 l 5
 893 1733 l 6
 807 1588 614 1475 419 1475 c 4
 225 1475 131 1632 93 1755 c 6
 83 1787 l 5
EndSplineSet
Fore
SplineSet
86 1791 m 5
 278 1894 l 5
 297 1856 l 6
 314 1820 333 1692 462 1692 c 4
 567 1692 628 1787 685 1863 c 5
 709 1894 l 5
 889 1771 l 5
 863 1736 l 5
 757 1596 629 1472 446 1472 c 4
 237 1472 149 1620 98 1758 c 6
 86 1791 l 5
328 1421 m 1
 580 1421 l 1
 580 0 l 1
 328 0 l 1
 328 1421 l 1
EndSplineSet
Validated: 1
EndChar

StartChar: ibreve
Encoding: 301 301 263
Width: 688
VWidth: 0
Flags: W
HStem: 0 21G<188 434> 968 20G<188 434> 1112 220<227.08 445.675>
VStem: 188 246<0 988>
LayerCount: 2
Fore
SplineSet
-44 1431 m 5
 148 1534 l 5
 167 1496 l 6
 184 1460 203 1332 332 1332 c 4
 437 1332 498 1427 555 1503 c 5
 579 1534 l 5
 759 1411 l 5
 733 1376 l 5
 627 1236 499 1112 316 1112 c 4
 107 1112 19 1260 -32 1398 c 6
 -44 1431 l 5
188 988 m 1
 434 988 l 1
 434 0 l 1
 188 0 l 1
 188 988 l 1
EndSplineSet
Validated: 1
EndChar

StartChar: Idotaccent
Encoding: 304 304 264
Width: 812
VWidth: 0
Flags: W
HStem: 0 21G<320 572> 1401 20G<320 572> 1537 292<298 590>
VStem: 298 292<1537 1829> 320 252<0 1421>
LayerCount: 2
Fore
SplineSet
298 1829 m 1xf0
 590 1829 l 1
 590 1537 l 1
 298 1537 l 1
 298 1829 l 1xf0
320 1421 m 1xe8
 572 1421 l 1
 572 0 l 1
 320 0 l 1
 320 1421 l 1xe8
EndSplineSet
Validated: 1
EndChar

StartChar: IJ
Encoding: 306 306 265
Width: 1929
VWidth: 0
Flags: W
HStem: -17 232<957.875 1338.66> 0 21G<320 572> 18 222<961.288 1135.94> 1401 20G<320 572 1474 1726>
VStem: 320 252<0 1421> 1474 252<336.598 1421>
LayerCount: 2
Fore
SplineSet
320 1421 m 1x5c
 572 1421 l 1
 572 0 l 1
 320 0 l 1
 320 1421 l 1x5c
1474 1421 m 1
 1726 1421 l 1
 1726 511 l 2
 1726 288 1668 -17 1166 -17 c 0x9c
 1097 -17 1027 -9 960 8 c 2
 922 18 l 1
 964 240 l 1x3c
 1006 230 l 2
 1048 220 1094 215 1138 215 c 0x9c
 1460 215 1474 424 1474 513 c 2
 1474 1421 l 1
EndSplineSet
Validated: 1
EndChar

StartChar: ij
Encoding: 307 307 266
Width: 1212
VWidth: 0
Flags: W
HStem: 0 21G<180 426> 968 20G<180 426 782 1028> 1150 271<165 445 768 1047>
VStem: 165 280<1150 1421> 180 246<0 988> 768 279<1150 1421> 782 246<-248.835 988>
LayerCount: 2
Fore
SplineSet
782 988 m 1xe2
 1028 988 l 1
 1028 -96 l 2
 1028 -210 1026 -427 726 -532 c 1
 682 -544 l 1
 555 -350 l 1
 605 -332 l 2
 757 -277 782 -195 782 -116 c 2
 782 988 l 1xe2
768 1421 m 1xe4
 1047 1421 l 1
 1047 1150 l 1
 768 1150 l 1
 768 1421 l 1xe4
180 988 m 1xe8
 426 988 l 1
 426 0 l 1
 180 0 l 1
 180 988 l 1xe8
165 1421 m 1xf0
 445 1421 l 1
 445 1150 l 1
 165 1150 l 1
 165 1421 l 1xf0
EndSplineSet
Validated: 1
EndChar

StartChar: Jcircumflex
Encoding: 308 308 267
Width: 1117
VWidth: 2097
Flags: W
HStem: -17 232<145.875 526.665> 18 222<149.288 323.936> 1401 20G<662 914>
VStem: 662 252<336.598 1421>
LayerCount: 2
Back
SplineSet
795 1951 m 5x20
 1107 1603 l 5
 954 1458 l 5
 780 1652 l 5
 581 1461 l 5
 376 1594 l 5
 795 1951 l 5x20
662 1421 m 5xa8
 914 1421 l 5xa8
 914 441 l 6
 914 309 897 203 793 111 c 5
 737 64 609 -17 354 -17 c 4xb0
 285 -17 215 -9 148 8 c 6
 110 18 l 5
 152 240 l 5x70
 194 230 l 6
 236 220 282 215 326 215 c 4
 611 215 623 354 623 443 c 5xb0
 662 1421 l 5xa8
EndSplineSet
Fore
SplineSet
662 1421 m 1xb0
 914 1421 l 1
 914 511 l 2
 914 288 856 -17 354 -17 c 0xb0
 285 -17 215 -9 148 8 c 2
 110 18 l 1
 152 240 l 1x70
 194 230 l 2
 236 220 282 215 326 215 c 0
 648 215 662 424 662 513 c 2
 662 1421 l 1xb0
793 1951 m 1
 1105 1603 l 1
 953 1458 l 1
 778 1652 l 1
 601 1461 l 1
 451 1594 l 1
 793 1951 l 1
EndSplineSet
Validated: 1
EndChar

StartChar: jcircumflex
Encoding: 309 309 268
Width: 606
VWidth: 0
Flags: W
HStem: 968 20G<196 442>
VStem: 196 246<-255.331 988>
LayerCount: 2
Fore
SplineSet
326 1514 m 1
 607 1159 l 1
 454 1014 l 1
 311 1195 l 1
 166 1017 l 1
 17 1150 l 1
 326 1514 l 1
196 988 m 1
 442 988 l 1
 442 -96 l 2
 442 -223 432 -430 151 -532 c 1
 117 -544 l 1
 20 -350 l 1
 58 -332 l 2
 191 -269 196 -166 196 -113 c 2
 196 988 l 1
EndSplineSet
Validated: 1
EndChar

StartChar: Kcommaaccent
Encoding: 310 310 269
Width: 1581
VWidth: 0
Flags: W
HStem: 0 21G<290 542 1202.23 1549> 1401 20G<290 542 1170.09 1513>
VStem: 290 252<0 688 770 1421> 470 296<-512 -216> 678 305<-345 -40> 1190 323<1098 1421> 1222 327<0 327>
DStem2: 470 -512 766 -512 0.417715 0.908578<123.644 515.734> 542 770 830 741 0.708661 0.705549<183.634 918.525> 830 741 542 688 0.696373 -0.71768<0 804.779>
LayerCount: 2
Fore
SplineSet
290 0 m 1xe2
 290 1421 l 1
 542 1421 l 1
 542 770 l 1
 1190 1421 l 1
 1513 1421 l 1xe4
 830 741 l 1
 1549 0 l 1
 1222 0 l 1
 542 688 l 1
 542 0 l 1
 290 0 l 1xe2
470 -512 m 5xd0
 678 -40 l 5
 983 -40 l 5xc8
 766 -512 l 5
 470 -512 l 5xd0
EndSplineSet
Validated: 1
EndChar

StartChar: kcommaaccent
Encoding: 311 311 270
Width: 1237
VWidth: 0
Flags: W
HStem: 0 21G<180 426 890.325 1212> 988 20G<877.266 1197> 1491 20G<180 426>
VStem: 180 246<0 492 591 1511> 310 296<-512 -216> 518 305<-345 -40> 900 297<711 1008> 910 302<0 302>
DStem2: 310 -512 606 -512 0.417715 0.908578<123.644 515.734> 426 591 687 556 0.74838 0.66327<172.113 631.316> 687 556 426 492 0.686547 -0.727086<0 557.36>
LayerCount: 2
Fore
SplineSet
310 -512 m 5xe8
 518 -40 l 5
 823 -40 l 5xe4
 606 -512 l 5
 310 -512 l 5xe8
180 0 m 1xf1
 180 1511 l 1
 426 1511 l 1
 426 591 l 1
 900 1008 l 1
 1197 1008 l 1xf2
 687 556 l 1
 1212 0 l 1
 910 0 l 1
 426 492 l 1
 426 0 l 1
 180 0 l 1xf1
EndSplineSet
Validated: 1
EndChar

StartChar: Lacute
Encoding: 313 313 271
Width: 1297
VWidth: 0
Flags: W
HStem: 0 231<562 1276> 1401 20G<304 556.101>
VStem: 304 258<231 1421>
LayerCount: 2
Fore
SplineSet
304 1421 m 1
 556 1421 l 1
 562 231 l 1
 1276 231 l 1
 1276 0 l 1
 304 0 l 1
 304 1421 l 1
920 1992 m 1
 1050 1797 l 1
 385 1461 l 1
 283 1639 l 1
 920 1992 l 1
EndSplineSet
Validated: 1
EndChar

StartChar: lacute
Encoding: 314 314 272
Width: 728
VWidth: 0
Flags: W
HStem: 0 21G<214 460.304> 1491 20G<214 483>
VStem: 214 269<569.187 1511> 214 246<0 941.813>
LayerCount: 2
Fore
SplineSet
214 1511 m 1xe0
 483 1511 l 1xe0
 460 0 l 1
 214 0 l 1xd0
 214 1511 l 1xe0
816 2067 m 1
 927 1872 l 1
 262 1536 l 1
 160 1714 l 1
 816 2067 l 1
EndSplineSet
Validated: 1
EndChar

StartChar: Lcommaaccent
Encoding: 315 315 273
Width: 1297
VWidth: 0
Flags: W
HStem: 0 231<567 1282> 1401 20G<310 562.084>
VStem: 310 257<231 1421>
LayerCount: 2
Fore
SplineSet
310 1421 m 1
 562 1421 l 1
 567 231 l 1
 1282 231 l 1
 1282 0 l 1
 310 0 l 1
 310 1421 l 1
479 -40 m 1
 789 -40 l 1
 561 -512 l 1
 288 -512 l 1
 479 -40 l 1
EndSplineSet
Validated: 1
EndChar

StartChar: lcommaaccent
Encoding: 316 316 274
Width: 646
VWidth: 0
Flags: W
HStem: 0 21G<220 466> 1491 20G<220 466>
VStem: 70 268<-512 -244> 220 246<0 1511> 261 269<-309 -40>
DStem2: 70 -512 338 -512 0.376798 0.926295<100.982 509.18>
LayerCount: 2
Fore
SplineSet
220 1511 m 1xd0
 466 1511 l 1
 466 0 l 1
 220 0 l 1
 220 1511 l 1xd0
261 -40 m 5xc8
 530 -40 l 5xc8
 338 -512 l 5
 70 -512 l 5xe0
 261 -40 l 5xc8
EndSplineSet
Validated: 1
EndChar

StartChar: Lcaron
Encoding: 317 317 275
Width: 1297
VWidth: 0
Flags: W
HStem: 0 231<542 1262> 1401 20G<290 542 920.907 1198>
VStem: 290 252<231 1421> 738 268<949 1217> 929 269<1152 1421>
DStem2: 738 949 1006 949 0.376798 0.926295<100.982 509.18>
LayerCount: 2
Fore
SplineSet
929 1421 m 1xe8
 1198 1421 l 1xe8
 1006 949 l 1
 738 949 l 1xf0
 929 1421 l 1xe8
290 1421 m 1
 542 1421 l 1
 542 231 l 1
 1262 231 l 1
 1262 0 l 1
 290 0 l 1
 290 1421 l 1
EndSplineSet
Validated: 1
EndChar

StartChar: lcaron
Encoding: 318 318 276
Width: 887
VWidth: 0
Flags: W
HStem: 0 21G<200 446> 1491 20G<200 446 594.941 851>
VStem: 200 246<0 1511> 458 250<1039 1289> 601 250<1261 1511>
DStem2: 458 1039 708 1039 0.289951 0.957041<72.4878 493.187>
LayerCount: 2
Fore
SplineSet
200 1511 m 1xe0
 446 1511 l 1
 446 0 l 1
 200 0 l 1
 200 1511 l 1xe0
601 1511 m 1xe8
 851 1511 l 1xe8
 708 1039 l 1
 458 1039 l 1xf0
 601 1511 l 1xe8
EndSplineSet
Validated: 1
EndChar

StartChar: Ldot
Encoding: 319 319 277
Width: 1297
VWidth: 0
Flags: W
HStem: 0 231<542 1262> 572 292<708 1053> 1401 20G<290 542>
VStem: 290 252<231 1421> 708 345<572 864>
LayerCount: 2
Fore
SplineSet
290 1421 m 1
 542 1421 l 1
 542 231 l 1
 1262 231 l 1
 1262 0 l 1
 290 0 l 1
 290 1421 l 1
708 864 m 1
 1053 864 l 1
 1053 572 l 1
 708 572 l 1
 708 864 l 1
EndSplineSet
Validated: 1
EndChar

StartChar: ldot
Encoding: 320 320 278
Width: 906
VWidth: 0
Flags: W
HStem: 0 21G<200 446> 587 292<534 826> 1491 20G<200 446>
VStem: 200 246<0 1511> 534 292<587 879>
LayerCount: 2
Fore
SplineSet
200 1511 m 1
 446 1511 l 1
 446 0 l 1
 200 0 l 1
 200 1511 l 1
534 879 m 1
 826 879 l 1
 826 587 l 1
 534 587 l 1
 534 879 l 1
EndSplineSet
Validated: 1
EndChar

StartChar: Nacute
Encoding: 323 323 279
Width: 1823
VWidth: 0
Flags: W
HStem: 0 21G<290 542 1317.56 1613> 1401 20G<290 582.524 1361 1613>
VStem: 290 252<0 1094> 1361 252<329 1421>
DStem2: 568 1421 542 1094 0.587599 -0.809152<249.315 1349.56>
LayerCount: 2
Fore
SplineSet
290 1421 m 1
 568 1421 l 1
 1361 329 l 1
 1361 1421 l 1
 1613 1421 l 1
 1613 0 l 1
 1332 0 l 1
 542 1094 l 1
 542 0 l 1
 290 0 l 1
 290 1421 l 1
1214 1992 m 1
 1338 1797 l 1
 688 1461 l 1
 574 1639 l 1
 1214 1992 l 1
EndSplineSet
Validated: 1
EndChar

StartChar: nacute
Encoding: 324 324 280
Width: 1341
VWidth: 0
Flags: W
HStem: 0 21G<180 426 914 1161> 778 230<507.74 854.346> 968 20G<180 371.529>
VStem: 180 246<0 737.786> 914 247<0 715.623>
LayerCount: 2
Fore
SplineSet
180 988 m 1xb8
 363 988 l 1xb8
 392 920 l 1
 554 990 689 1008 779 1008 c 0
 1114 1008 1161 784 1161 583 c 2
 1161 0 l 1
 914 0 l 1
 914 580 l 2
 914 650 905 778 694 778 c 0xd8
 593 778 488 746 426 723 c 1
 426 0 l 1
 180 0 l 1
 180 988 l 1xb8
991 1562 m 1
 1102 1365 l 1
 439 1031 l 1
 335 1209 l 1
 991 1562 l 1
EndSplineSet
Validated: 1
EndChar

StartChar: Ncommaaccent
Encoding: 325 325 281
Width: 1823
VWidth: 0
Flags: W
HStem: 0 21G<290 542 1317.56 1613> 1401 20G<290 582.524 1361 1613>
VStem: 290 252<0 1094> 585 299<-512 -213> 798 300<-340 -40> 1361 252<329 1421>
DStem2: 568 1421 542 1094 0.587599 -0.809152<249.315 1349.56> 585 -512 884 -512 0.41293 0.910763<123.466 517.834>
LayerCount: 2
Fore
SplineSet
798 -40 m 1xec
 1098 -40 l 1xec
 884 -512 l 1
 585 -512 l 1xf4
 798 -40 l 1xec
290 1421 m 1
 568 1421 l 1
 1361 329 l 1
 1361 1421 l 1
 1613 1421 l 1
 1613 0 l 1
 1332 0 l 1
 542 1094 l 1
 542 0 l 1
 290 0 l 1
 290 1421 l 1
EndSplineSet
Validated: 1
EndChar

StartChar: ncommaaccent
Encoding: 326 326 282
Width: 1341
VWidth: 0
Flags: W
HStem: 0 21G<180 426 914 1161> 778 230<507.74 854.346> 968 20G<180 371.529>
VStem: 180 246<0 737.786> 322 302<-512 -210> 531 323<-363 -40> 914 247<0 715.623>
LayerCount: 2
Fore
SplineSet
180 988 m 1xb2
 363 988 l 1xb2
 392 920 l 1
 554 990 689 1008 779 1008 c 0
 1114 1008 1161 784 1161 583 c 2
 1161 0 l 1
 914 0 l 1
 914 580 l 2
 914 650 905 778 694 778 c 0xd2
 593 778 488 746 426 723 c 1
 426 0 l 1
 180 0 l 1
 180 988 l 1xb2
531 -40 m 1x86
 854 -40 l 1x86
 624 -512 l 1
 322 -512 l 1x8a
 531 -40 l 1x86
EndSplineSet
Validated: 1
EndChar

StartChar: Ncaron
Encoding: 327 327 283
Width: 1823
VWidth: 0
Flags: W
HStem: 0 21G<290 542 1317.56 1613> 1401 20G<290 582.524 1361 1613>
VStem: 290 252<0 1094> 1361 252<329 1421>
DStem2: 568 1421 542 1094 0.587599 -0.809152<249.315 1349.56>
LayerCount: 2
Fore
SplineSet
290 1421 m 1
 568 1421 l 1
 1361 329 l 1
 1361 1421 l 1
 1613 1421 l 1
 1613 0 l 1
 1332 0 l 1
 542 1094 l 1
 542 0 l 1
 290 0 l 1
 290 1421 l 1
990 1457 m 1
 641 1806 l 1
 813 1950 l 1
 1006 1756 l 1
 1204 1947 l 1
 1370 1814 l 1
 990 1457 l 1
EndSplineSet
Validated: 1
EndChar

StartChar: ncaron
Encoding: 328 328 284
Width: 1341
VWidth: 0
Flags: W
HStem: 0 21G<180 426 914 1161> 778 230<507.74 854.346> 968 20G<180 371.529>
VStem: 180 246<0 737.786> 914 247<0 715.623>
DStem2: 697 1327 681 1027 0.73163 0.681702<0 286.824>
LayerCount: 2
Fore
SplineSet
180 988 m 1xb8
 363 988 l 1xb8
 392 920 l 1
 554 990 689 1008 779 1008 c 0
 1114 1008 1161 784 1161 583 c 2
 1161 0 l 1
 914 0 l 1
 914 580 l 2
 914 650 905 778 694 778 c 0xd8
 593 778 488 746 426 723 c 1
 426 0 l 1
 180 0 l 1
 180 988 l 1xb8
681 1027 m 1
 326 1375 l 1
 489 1520 l 1
 697 1327 l 1
 912 1517 l 1
 1062 1382 l 1
 681 1027 l 1
EndSplineSet
Validated: 1
EndChar

StartChar: Omacron
Encoding: 332 332 285
Width: 1850
VWidth: 0
Flags: W
HStem: -15 231<759.312 1181.63> 1205 231<746.505 1168.11> 1486 211<538 1433>
VStem: 215 258<509.785 941.479> 1457 258<489.506 926.62>
LayerCount: 2
Fore
SplineSet
1457 709 m 0
 1457 1059 1193 1205 953 1205 c 0
 727 1205 473 1063 473 727 c 0
 473 411 695 216 973 216 c 0
 1202 216 1457 361 1457 709 c 0
966 1436 m 0
 1400 1436 1715 1165 1715 726 c 0
 1715 285 1408 -15 958 -15 c 0
 572 -15 215 223 215 707 c 0
 215 1152 526 1436 966 1436 c 0
538 1697 m 1
 1433 1697 l 1
 1433 1486 l 1
 538 1486 l 1
 538 1697 l 1
EndSplineSet
Validated: 1
EndChar

StartChar: omacron
Encoding: 333 333 286
Width: 1375
VWidth: 0
Flags: W
HStem: -20 222<525.323 868.866> 785 222<508.332 849.803> 1062 211<251 1155>
VStem: 130 242<354.029 653.449> 1003 242<335.058 640.5>
LayerCount: 2
Fore
SplineSet
694 1007 m 0
 1016 1007 1245 831 1245 512 c 0
 1245 183 1021 -20 675 -20 c 0
 347 -20 130 168 130 484 c 0
 130 805 346 1007 694 1007 c 0
678 785 m 0
 530 785 372 695 372 509 c 0
 372 339 501 202 696 202 c 0
 866 202 1003 310 1003 483 c 0
 1003 686 832 785 678 785 c 0
251 1273 m 5
 1155 1273 l 5
 1155 1062 l 5
 251 1062 l 5
 251 1273 l 5
EndSplineSet
Validated: 1
EndChar

StartChar: Obreve
Encoding: 334 334 287
Width: 1850
VWidth: 0
Flags: W
HStem: -15 231<759.312 1181.63> 1205 231<746.505 1168.11> 1475 220<851.942 1121.43>
VStem: 215 258<509.785 941.479> 1457 258<489.506 926.62>
LayerCount: 2
Fore
SplineSet
518 1794 m 1
 727 1897 l 1
 747 1859 l 2
 766 1823 841 1695 981 1695 c 0
 1095 1695 1205 1790 1267 1866 c 2
 1292 1897 l 1
 1488 1774 l 1
 1461 1739 l 1
 1346 1599 1163 1475 964 1475 c 0
 736 1475 586 1623 531 1761 c 2
 518 1794 l 1
1457 709 m 0
 1457 1059 1193 1205 953 1205 c 0
 727 1205 473 1063 473 727 c 0
 473 411 695 216 973 216 c 0
 1202 216 1457 361 1457 709 c 0
966 1436 m 0
 1400 1436 1715 1165 1715 726 c 0
 1715 285 1408 -15 958 -15 c 0
 572 -15 215 223 215 707 c 0
 215 1152 526 1436 966 1436 c 0
EndSplineSet
Validated: 1
EndChar

StartChar: obreve
Encoding: 335 335 288
Width: 1375
VWidth: 0
Flags: W
HStem: -20 222<525.323 868.866> 785 222<508.332 849.803> 1041 220<593.083 880.826>
VStem: 130 242<354.029 653.449> 1003 242<335.058 640.5>
LayerCount: 2
Fore
SplineSet
257 1360 m 5
 461 1463 l 5
 482 1425 l 6
 502 1389 581 1261 730 1261 c 4
 851 1261 967 1356 1028 1432 c 5
 1052 1463 l 5
 1232 1340 l 5
 1206 1305 l 5
 1100 1165 921 1041 711 1041 c 0
 470 1041 320 1189 269 1327 c 6
 257 1360 l 5
678 785 m 0
 530 785 372 695 372 509 c 0
 372 339 501 202 696 202 c 0
 866 202 1003 310 1003 483 c 0
 1003 686 832 785 678 785 c 0
694 1007 m 0
 1016 1007 1245 831 1245 512 c 0
 1245 183 1021 -20 675 -20 c 0
 347 -20 130 168 130 484 c 0
 130 805 346 1007 694 1007 c 0
EndSplineSet
Validated: 1
EndChar

StartChar: Racute
Encoding: 340 340 289
Width: 1602
VWidth: 0
Flags: W
HStem: 0 21G<290 543 1167.58 1510> 551 232<543 784> 1190 231<543 1036.84>
VStem: 290 253<0 551 783 1190> 1129 263<868.018 1108.34> 1182 328<0 328>
DStem2: 1081 594 784 552 0.585491 -0.810679<0 540.678>
LayerCount: 2
Fore
SplineSet
1392 1014 m 0xf8
 1392 840 1312 664 1081 594 c 1
 1510 0 l 1
 1182 0 l 5xf4
 784 552 l 1
 768 552 752 551 735 551 c 2
 543 551 l 1
 543 0 l 1
 290 0 l 1
 290 1421 l 1
 896 1421 l 2
 1019 1421 1172 1415 1282 1310 c 1
 1354 1238 1392 1134 1392 1014 c 0xf8
543 1190 m 1
 543 783 l 1
 775 783 l 2
 928 783 1049 796 1106 897 c 0
 1120 922 1129 952 1129 991 c 0xf8
 1129 1071 1080 1158 940 1182 c 0
 894 1190 844 1190 791 1190 c 2
 543 1190 l 1
1051 1992 m 1
 1177 1797 l 1
 518 1461 l 1
 416 1639 l 1
 1051 1992 l 1
EndSplineSet
Validated: 1
EndChar

StartChar: racute
Encoding: 341 341 290
Width: 965
VWidth: 0
Flags: W
HStem: 0 21G<180 445> 785 222<459.785 886.406> 968 20G<180 373.943>
VStem: 180 265<0 753.478>
LayerCount: 2
Fore
SplineSet
392 935 m 1xb0
 483 977 598 1007 725 1007 c 0
 795 1007 866 993 931 963 c 2
 966 947 l 1
 887 743 l 1
 849 758 l 2
 803 776 754 785 699 785 c 2
 697 785 l 2xd0
 610 785 522 768 445 738 c 1
 445 0 l 1
 180 0 l 1
 180 988 l 1
 363 988 l 1
 392 935 l 1xb0
733 1567 m 1
 879 1394 l 1
 357 1026 l 1
 227 1189 l 1
 733 1567 l 1
EndSplineSet
Validated: 1
EndChar

StartChar: Rcommaaccent
Encoding: 342 342 291
Width: 1602
VWidth: 0
Flags: W
HStem: 0 21G<294 547 1171.58 1514> 551 232<547 788> 1190 231<547 1045.73>
VStem: 294 253<0 551 783 1190> 481 297<-337 -40> 1133 263<868.018 1108.34> 1186 328<0 328>
DStem2: 1085 594 788 552 0.585491 -0.810679<0 540.678>
LayerCount: 2
Fore
SplineSet
481 -40 m 1xe8
 778 -40 l 1
 560 -512 l 1
 290 -512 l 1
 481 -40 l 1xe8
547 1190 m 1xf4
 547 783 l 1
 779 783 l 2
 932 783 1052 796 1109 897 c 0
 1123 922 1133 952 1133 991 c 0
 1133 1071 1084 1158 944 1182 c 0
 898 1190 848 1190 795 1190 c 2
 547 1190 l 1xf4
1396 1014 m 0
 1396 840 1316 664 1085 594 c 1
 1514 0 l 1
 1186 0 l 5xe2
 788 552 l 1
 772 552 756 551 739 551 c 2
 547 551 l 1
 547 0 l 1
 294 0 l 1
 294 1421 l 1
 899 1421 l 2
 1022 1421 1176 1415 1286 1310 c 1
 1358 1238 1396 1134 1396 1014 c 0
EndSplineSet
Validated: 1
EndChar

StartChar: rcommaaccent
Encoding: 343 343 292
Width: 965
VWidth: 0
Flags: W
HStem: 0 21G<200 465> 785 222<479.785 906.406> 968 20G<200 393.943>
VStem: 200 265<0 753.478>
LayerCount: 2
Fore
SplineSet
412 935 m 1xb0
 503 977 618 1007 745 1007 c 0
 815 1007 886 993 951 963 c 2
 986 947 l 1
 907 743 l 1
 869 758 l 2
 823 776 774 785 719 785 c 2
 716 785 l 2xd0
 629 785 542 768 465 738 c 1
 465 0 l 1
 200 0 l 1
 200 988 l 1
 383 988 l 1
 412 935 l 1xb0
217 -40 m 1
 516 -40 l 1
 294 -512 l 1
 26 -512 l 1
 217 -40 l 1
EndSplineSet
Validated: 1
EndChar

StartChar: Rcaron
Encoding: 344 344 293
Width: 1602
VWidth: 0
Flags: W
HStem: 0 21G<290 543 1167.58 1510> 551 232<543 784> 1190 231<543 1036.84>
VStem: 290 253<0 551 783 1190> 1129 263<868.018 1108.34> 1182 328<0 328>
DStem2: 1081 594 784 552 0.585491 -0.810679<0 540.678>
LayerCount: 2
Fore
SplineSet
1392 1014 m 0xf8
 1392 840 1312 664 1081 594 c 1
 1510 0 l 1
 1182 0 l 5xf4
 784 552 l 1
 768 552 752 551 735 551 c 2
 543 551 l 1
 543 0 l 1
 290 0 l 1
 290 1421 l 1
 896 1421 l 2
 1019 1421 1172 1415 1282 1310 c 1
 1354 1238 1392 1134 1392 1014 c 0xf8
543 1190 m 1
 543 783 l 1
 775 783 l 2
 928 783 1049 796 1106 897 c 0
 1120 922 1129 952 1129 991 c 0xf8
 1129 1071 1080 1158 940 1182 c 0
 894 1190 844 1190 791 1190 c 2
 543 1190 l 1
766 1457 m 1
 427 1805 l 1
 584 1950 l 1
 782 1756 l 1
 985 1947 l 1
 1155 1814 l 1
 766 1457 l 1
EndSplineSet
Validated: 1
EndChar

StartChar: rcaron
Encoding: 345 345 294
Width: 965
VWidth: 0
Flags: W
HStem: 0 21G<180 445> 785 222<459.785 886.406> 968 20G<180 373.943>
VStem: 180 265<0 753.478>
DStem2: 601 1322 582 1023 0.720463 0.693494<0 280.152>
LayerCount: 2
Fore
SplineSet
392 935 m 1xb0
 483 977 598 1007 725 1007 c 0
 795 1007 866 993 931 963 c 2
 966 947 l 1
 887 743 l 1
 849 758 l 2
 803 776 754 785 699 785 c 2
 697 785 l 2xd0
 610 785 522 768 445 738 c 1
 445 0 l 1
 180 0 l 1
 180 988 l 1
 363 988 l 1
 392 935 l 1xb0
582 1023 m 1
 220 1372 l 1
 377 1516 l 1
 601 1322 l 1
 806 1513 l 1
 956 1383 l 1
 582 1023 l 1
EndSplineSet
Validated: 1
EndChar

StartChar: Sacute
Encoding: 346 346 295
Width: 1525
VWidth: 0
Flags: W
HStem: -20 250<510.42 1024.71> 1142 233<1120 1284.32> 1192 242<669.231 1221.28>
VStem: 280 275<946.732 1105.69> 1126 270<314.43 487.47>
DStem2: 325 335 240 93 0.933346 -0.358979<7.53856 396.783>
LayerCount: 2
Fore
SplineSet
1073 1992 m 1x98
 1194 1797 l 1
 535 1461 l 1
 426 1639 l 1
 1073 1992 l 1x98
927 1434 m 0xb8
 1093 1434 1241 1399 1320 1375 c 2
 1361 1363 l 1
 1279 1131 l 1
 1241 1142 l 1xd8
 1096 1182 980 1192 911 1192 c 0
 721 1192 555 1124 555 1021 c 0
 555 777 1396 866 1396 409 c 0
 1396 217 1230 -20 757 -20 c 0
 556 -20 415 25 277 79 c 1
 240 93 l 1
 325 335 l 1
 364 320 l 1
 555 252 694 230 781 230 c 0
 986 230 1126 298 1126 401 c 0
 1126 672 280 558 280 1010 c 0
 280 1242 523 1434 927 1434 c 0xb8
EndSplineSet
Validated: 1
EndChar

StartChar: sacute
Encoding: 347 347 296
Width: 1180
VWidth: 0
Flags: W
HStem: -20 211<307.371 775.504> 761 204<709.152 965.077> 797 210<463.723 973.023>
VStem: 165 261<653.253 755.418> 807 264<227.279 336.332>
DStem2: 204 273 130 73 0.930155 -0.367167<4.60182 332.179> 308 1189 452 1026 0.8 0.6<17.4 630>
LayerCount: 2
Fore
SplineSet
308 1189 m 1x98
 812 1567 l 1
 960 1394 l 1
 452 1026 l 1
 308 1189 l 1x98
807 295 m 1
 797 419 165 375 165 699 c 0
 165 820 275 1007 702 1007 c 0xb8
 856 1007 918 986 987 965 c 2
 1028 953 l 1
 960 751 l 1
 922 761 l 2xd8
 857 779 785 797 669 797 c 0xb8
 450 797 426 720 426 696 c 0
 426 583 1071 598 1071 293 c 0
 1071 163 979 -20 550 -20 c 0
 452 -20 316 -3 167 58 c 2
 130 73 l 1
 204 273 l 1
 242 258 l 1
 373 209 463 191 559 191 c 0
 731 191 807 225 807 295 c 1
EndSplineSet
Validated: 1
EndChar

StartChar: Scircumflex
Encoding: 348 348 297
Width: 1525
VWidth: 0
Flags: W
HStem: -20 250<510.42 1024.71> 1142 233<1120 1284.32> 1192 242<669.231 1221.28>
VStem: 280 275<946.732 1105.69> 1126 270<314.43 487.47>
DStem2: 325 335 240 93 0.933346 -0.358979<7.53856 396.783> 426 1594 588 1461 0.729716 0.68375<27.2753 306.004>
LayerCount: 2
Fore
SplineSet
927 1434 m 0xb8
 1093 1434 1241 1399 1320 1375 c 2
 1361 1363 l 1
 1279 1131 l 1
 1241 1142 l 1xd8
 1096 1182 980 1192 911 1192 c 0
 721 1192 555 1124 555 1021 c 0
 555 777 1396 866 1396 409 c 0
 1396 217 1230 -20 757 -20 c 0
 556 -20 415 25 277 79 c 1
 240 93 l 1
 325 335 l 1
 364 320 l 1
 555 252 694 230 781 230 c 0
 986 230 1126 298 1126 401 c 0
 1126 672 280 558 280 1010 c 0
 280 1242 523 1434 927 1434 c 0xb8
807 1951 m 1
 1162 1603 l 1
 990 1458 l 1
 791 1652 l 1
 588 1461 l 1
 426 1594 l 1
 807 1951 l 1
EndSplineSet
Validated: 1
EndChar

StartChar: scircumflex
Encoding: 349 349 298
Width: 1180
VWidth: 0
Flags: W
HStem: -20 211<307.371 775.504> 761 204<709.152 965.077> 797 210<463.723 973.023>
VStem: 165 261<653.253 755.418> 807 264<227.279 336.332>
DStem2: 204 273 130 73 0.930155 -0.367167<4.60182 332.179> 267 1160 426 1027 0.741045 0.671455<28.5227 318.319> 661 1517 644 1218 0.700932 -0.713229<201.34 484.799>
LayerCount: 2
Fore
SplineSet
267 1160 m 1x98
 661 1517 l 1
 1003 1169 l 1
 851 1024 l 1
 644 1218 l 1
 426 1027 l 1
 267 1160 l 1x98
807 295 m 1
 797 419 165 375 165 699 c 0
 165 820 275 1007 702 1007 c 0xb8
 856 1007 918 986 987 965 c 2
 1028 953 l 1
 960 751 l 1
 922 761 l 2xd8
 857 779 785 797 669 797 c 0xb8
 450 797 426 720 426 696 c 0
 426 583 1071 598 1071 293 c 0
 1071 163 979 -20 550 -20 c 0
 452 -20 316 -3 167 58 c 2
 130 73 l 1
 204 273 l 1
 242 258 l 1
 373 209 463 191 559 191 c 0
 731 191 807 225 807 295 c 1
EndSplineSet
Validated: 1
EndChar

StartChar: Scedilla
Encoding: 350 350 299
Width: 1525
VWidth: 0
Flags: W
HStem: -506 189<622.581 896.849> -440 183<557.221 680.359> -18 248<513.638 672 942 989> 1142 233<1120.68 1283.38> 1192 242<672.174 1221.49>
VStem: 280 279<942.724 1105.69> 1129 267<313.348 487.882>
DStem2: 325 335 240 93 0.933346 -0.358979<7.53856 394.07>
LayerCount: 2
Back
SplineSet
947 -317 m 4x2f
 947 -414 866 -507 735 -507 c 4xaf
 681 -507 647 -498 532 -464 c 6
 498 -454 l 5
 528 -350 l 5x4f
 558 -359 l 6
 667 -391 705 -400 742 -400 c 4
 802 -400 834 -366 834 -330 c 4
 834 -265 750 -248 736 -243 c 6
 600 -202 l 5
 650 -20 l 5xaf
 492 -20 371 24 240 76 c 5
 298 241 l 5x1f
 481 173 609 148 693 148 c 4
 893 148 1036 235 1036 372 c 4
 1036 709 269 570 269 1022 c 4
 269 1242 484 1434 821 1434 c 4
 949 1434 1078 1406 1174 1377 c 5
 1119 1222 l 5
 1074 1235 932 1274 807 1274 c 4
 614 1274 454 1184 454 1050 c 4
 454 741 1221 856 1221 397 c 4
 1221 235 1104 32 798 -11 c 5
 767 -136 l 5
 787 -142 947 -172 947 -317 c 4x2f
EndSplineSet
Fore
SplineSet
838 -317 m 0xa6
 889 -317 899 -297 899 -286 c 0
 899 -255 817 -238 663 -199 c 2
 619 -188 l 1
 672 -18 l 1
 510 -9 394 33 277 79 c 1
 240 93 l 1
 325 335 l 1
 364 320 l 1
 556 252 696 230 783 230 c 0
 989 230 1129 298 1129 401 c 0
 1129 672 280 558 280 1010 c 0
 280 1242 527 1434 929 1434 c 0xae
 1094 1434 1241 1399 1320 1375 c 2
 1361 1363 l 1
 1278 1131 l 1
 1241 1142 l 1x36
 1097 1182 981 1192 913 1192 c 0
 724 1192 559 1124 559 1021 c 0
 559 777 1396 866 1396 410 c 0
 1396 245 1273 44 942 -7 c 1
 925 -66 l 1
 995 -87 1122 -140 1122 -275 c 0
 1122 -395 1007 -506 832 -506 c 0xae
 775 -506 755 -504 546 -451 c 1
 501 -440 l 1
 562 -257 l 1x66
 607 -269 l 2
 712 -297 788 -317 838 -317 c 0xa6
EndSplineSet
Validated: 1
EndChar

StartChar: scedilla
Encoding: 351 351 300
Width: 1180
VWidth: 2097
Flags: W
HStem: -498 177<387.929 698.592> 761 204<711.059 965.077> 797 210<475.377 973.023>
VStem: 165 269<653.99 754.573> 810 261<226.548 338.51>
DStem2: 204 273 130 73 0.930155 -0.367167<4.60182 332.227> 386 -276 335 -445 0.961524 -0.274721<-43.1312 240.945>
LayerCount: 2
Back
SplineSet
706 -315 m 4
 706 -392 668 -486 501 -486 c 4
 443 -486 368 -475 274 -447 c 5
 300 -356 l 5
 420 -392 466 -403 507 -403 c 4
 571 -403 607 -366 607 -326 c 4
 607 -254 529 -242 378 -196 c 5
 425 -20 l 5
 352 -20 250 6 130 55 c 5
 176 179 l 5
 308 130 387 109 473 109 c 4
 592 109 717 135 717 264 c 4
 717 453 154 378 154 709 c 4
 154 820 245 1007 590 1007 c 4
 718 1007 770 988 841 967 c 5
 799 842 l 5
 734 860 663 879 563 879 c 4
 355 879 324 770 324 726 c 4
 324 549 896 591 896 283 c 4
 896 170 830 -16 553 -16 c 5
 523 -136 l 5
 569 -150 706 -179 706 -315 c 4
EndSplineSet
Fore
SplineSet
626 -321 m 0xb8
 682 -321 701 -299 701 -284 c 0
 701 -248 622 -236 453 -194 c 1
 406 -183 l 1
 461 -16 l 1
 370 -8 276 13 167 58 c 2
 130 73 l 1
 204 273 l 1
 242 258 l 1
 373 209 463 191 561 191 c 0
 735 191 810 225 810 295 c 1
 802 420 165 375 165 699 c 0
 165 820 274 1007 704 1007 c 0xb8
 856 1007 918 986 987 965 c 2
 1028 953 l 1
 960 751 l 1
 922 761 l 2xd8
 857 779 785 797 672 797 c 0
 505 797 434 740 434 699 c 0
 434 582 1071 598 1071 293 c 0
 1071 183 1004 30 727 -10 c 1
 708 -67 l 1
 788 -88 901 -138 901 -274 c 0
 901 -382 812 -498 622 -498 c 0
 528 -498 433 -471 335 -445 c 1
 296 -434 l 1
 344 -264 l 1
 386 -276 l 1
 507 -305 578 -321 626 -321 c 0xb8
EndSplineSet
Validated: 1
EndChar

StartChar: Tcommaaccent
Encoding: 354 354 301
Width: 1456
VWidth: 0
Flags: W
HStem: -506 190<511.943 780.213> 1189 232<85 601 853 1369>
VStem: 601 252<-66.8015 1189>
DStem2: 445 -257 425 -451 0.976187 -0.21693<0 288.942>
LayerCount: 2
Back
SplineSet
85 1421 m 5
 1369 1421 l 5
 1369 1189 l 5
 853 1189 l 5
 853 0 l 5
 601 0 l 5
 601 1189 l 5
 85 1189 l 5
 85 1421 l 5
EndSplineSet
Fore
SplineSet
730 -316 m 1
 765 -315 782 -303 782 -289 c 0
 782 -253 673 -229 564 -199 c 1
 512 -187 l 1
 527 -149 l 2
 595 22 601 11 601 171 c 2
 601 1189 l 1
 85 1189 l 1
 85 1421 l 1
 1369 1421 l 1
 1369 1189 l 1
 853 1189 l 1
 853 184 l 2
 853 81 849 19 816 -71 c 1
 902 -99 1027 -154 1027 -275 c 0
 1027 -387 908 -506 719 -506 c 0
 644 -506 590 -487 425 -451 c 1
 371 -440 l 1
 445 -257 l 1
 499 -269 l 1
 629 -300 685 -316 730 -316 c 1
EndSplineSet
Validated: 1
EndChar

StartChar: tcommaaccent
Encoding: 355 355 302
Width: 919
VWidth: 0
Flags: W
HStem: -498 177<326.34 658.452> -435 170<280.868 418.416> 777 211<70 203 480 832>
VStem: 203 277<211.968 777 988 1271> 660 181<-317.03 -248.051>
LayerCount: 2
Back
SplineSet
528 1055 m 5xd0
 736 1527 l 5
 1041 1527 l 5xc8
 824 1055 l 5
 528 1055 l 5xd0
203 1271 m 5
 480 1271 l 5
 480 988 l 5
 832 988 l 5
 832 777 l 5
 480 777 l 5
 480 334 l 6
 480 274 487 190 628 190 c 4
 661 190 676 192 798 210 c 5
 837 217 l 5
 876 28 l 5
 838 18 l 5
 715 -12 625 -20 567 -20 c 4
 267 -20 203 142 203 317 c 6
 203 777 l 5
 70 777 l 5
 70 988 l 5
 203 988 l 5
 203 1271 l 5
EndSplineSet
Fore
SplineSet
203 1271 m 1xb8
 480 1271 l 1
 480 988 l 1
 832 988 l 1
 832 777 l 1
 480 777 l 1
 480 322 l 2
 480 261 505 174 652 174 c 0
 678 174 691 176 798 192 c 2
 837 198 l 1
 876 28 l 1
 838 18 l 2
 805 9 744 -7 680 -16 c 1
 667 -68 l 1
 731 -89 841 -138 841 -274 c 0
 841 -382 752 -498 584 -498 c 0xb8
 469 -498 305 -455 275 -446 c 2
 236 -435 l 1
 285 -265 l 1x78
 328 -277 l 1
 384 -289 509 -321 589 -321 c 0
 631 -321 660 -312 660 -287 c 0
 660 -248 625 -246 399 -195 c 1
 347 -184 l 1
 415 1 l 1
 209 61 203 238 203 304 c 2
 203 777 l 1
 70 777 l 1
 70 988 l 1
 203 988 l 1
 203 1271 l 1xb8
EndSplineSet
Validated: 1
EndChar

StartChar: Tcaron
Encoding: 356 356 303
Width: 1374
VWidth: 0
Flags: W
HStem: 0 21G<601 853> 1189 232<85 601 853 1369>
VStem: 601 252<0 1189>
LayerCount: 2
Fore
SplineSet
85 1421 m 5
 1369 1421 l 5
 1369 1189 l 5
 853 1189 l 5
 853 0 l 5
 601 0 l 5
 601 1189 l 5
 85 1189 l 5
 85 1421 l 5
740 1457 m 1
 392 1805 l 1
 562 1950 l 1
 757 1756 l 1
 955 1947 l 1
 1122 1814 l 1
 740 1457 l 1
EndSplineSet
Validated: 1
EndChar

StartChar: tcaron
Encoding: 357 357 304
Width: 919
VWidth: 0
Flags: W
HStem: -20 210<509.221 844.023> 777 211<70 203 480 832>
VStem: 203 277<220.916 777 988 1271> 528 296<1055 1351> 736 305<1222 1527>
DStem2: 528 1055 824 1055 0.417715 0.908578<123.644 515.734>
LayerCount: 2
Fore
SplineSet
528 1055 m 5xf0
 736 1527 l 5
 1041 1527 l 5xe8
 824 1055 l 5
 528 1055 l 5xf0
203 1271 m 5
 480 1271 l 5
 480 988 l 5
 832 988 l 5
 832 777 l 5
 480 777 l 5
 480 334 l 6
 480 274 487 190 628 190 c 4
 661 190 676 192 798 210 c 5
 837 217 l 5
 876 28 l 5
 838 18 l 5
 715 -12 625 -20 567 -20 c 4
 267 -20 203 142 203 317 c 6
 203 777 l 5
 70 777 l 5
 70 988 l 5
 203 988 l 5
 203 1271 l 5
EndSplineSet
Validated: 1
EndChar

